{
.appVersion = "3227";
.formatVersion = 3;
axes = (
{
name = Weight;
tag = wght;
}
);
classes = (
{
automatic = 1;

glyphs = (
{
color = 6;
glyphname = A;
kernLeft = LAT_A_UC;
kernRight = LAT_A_UC;
lastChange = "2023-11-22 11:34:34 +0000";
layers = (
{
anchors = (
{
name = bottom;
pos = (572,0);
},
{
name = ogonek;
pos = (1178,0);
},
{
name = top;
pos = (869,1474);
}
);
guides = (
{
angle = 67.5;
pos = (-284,-200);
}
);
layerId = "AB099EFE-E788-4EFC-8633-CF147CB782A6";
shapes = (
{
closed = 1;
nodes = (
(32,0,l),
(318,488,l),
(338,522,l),
(844,1380,l),
(852,1380,l),
(1016,516,l),
(1020,498,l),
(1114,0,l),
(1178,0,l),
(890,1474,l),
(834,1474,l),
(-42,0,l)
);
},
{
closed = 1;
nodes = (
(1046,478,l),
(1060,538,l),
(298,538,l),
(284,478,l)
);
}
);
width = 1346;
},
{
anchors = (
{
name = bottom;
pos = (648,0);
},
{
name = ogonek;
pos = (1394,0);
},
{
name = top;
pos = (945,1474);
}
);
guides = (
{
angle = 67.5;
pos = (-307,-200);
}
);
layerId = "2D8F7115-C311-411E-929D-56333CF7FFB2";
shapes = (
{
closed = 1;
nodes = (
(321,0,l),
(523,360,l),
(581,504,l),
(867,1052,l),
(875,1052,l),
(961,504,l),
(965,360,l),
(1017,0,l),
(1395,0,l),
(1101,1474,l),
(781,1474,l),
(-107,0,l)
);
},
{
closed = 1;
nodes = (
(1097,270,l),
(1159,570,l),
(369,570,l),
(305,270,l)
);
}
);
width = 1502;
},
{
anchors = (
{
name = bottom;
pos = (594,0);
},
{
name = ogonek;
pos = (1260,0);
},
{
name = top;
pos = (891,1474);
}
);
layerId = "8CC1EFAB-F3CB-44D1-8974-978FC52DD9AB";
shapes = (
{
closed = 1;
nodes = (
(114,0,l),
(376,438,l),
(414,506,l),
(842,1222,l),
(850,1222,l),
(988,504,l),
(998,442,l),
(1086,0,l),
(1260,0,l),
(956,1474,l),
(814,1474,l),
(-80,0,l)
);
},
{
closed = 1;
nodes = (
(1064,393,l),
(1096,557,l),
(306,557,l),
(274,393,l)
);
}
);
width = 1392;
}
);
unicode = 65;
},
{
color = 6;
glyphname = AE;
kernLeft = LAT_AE_UC;
kernRight = LAT_E_UC;
lastChange = "2023-11-22 11:34:34 +0000";
layers = (
{
anchors = (
{
name = bottom;
pos = (978,0);
},
{
name = top;
pos = (1311,1474);
}
);
background = {
shapes = (
{
pos = (369,0);
ref = E;
}
);
};
layerId = "AB099EFE-E788-4EFC-8633-CF147CB782A6";
shapes = (
{
closed = 1;
nodes = (
(-14,0,l),
(646,878,l),
(1018,1366,l),
(1062,1366,l),
(1076,1474,l),
(1026,1474,l),
(-90,0,l)
);
},
{
closed = 1;
nodes = (
(940,476,l),
(946,538,l),
(336,538,l),
(320,476,l)
);
},
{
closed = 1;
nodes = (
(1567,0,l),
(1579,60,l),
(930,60,l),
(1079,1414,l),
(1852,1414,l),
(1864,1474,l),
(1036,1474,l),
(996,1194,l),
(864,0,l)
);
},
{
closed = 1;
nodes = (
(1618,724,l),
(1630,784,l),
(998,784,l),
(990,724,l)
);
}
);
width = 1813;
},
{
anchors = (
{
name = bottom;
pos = (1026,0);
},
{
name = top;
pos = (1321,1474);
}
);
background = {
shapes = (
{
pos = (379,0);
ref = E;
}
);
};
layerId = "2D8F7115-C311-411E-929D-56333CF7FFB2";
shapes = (
{
closed = 1;
nodes = (
(298,0,l),
(702,642,l),
(1000,1154,l),
(1020,1154,l),
(1070,1474,l),
(818,1474,l),
(-114,0,l)
);
},
{
closed = 1;
nodes = (
(1158,284,l),
(1192,562,l),
(424,562,l),
(370,284,l)
);
},
{
closed = 1;
nodes = (
(1634,0,l),
(1700,328,l),
(1240,328,l),
(1328,1146,l),
(1866,1146,l),
(1932,1474,l),
(1056,1474,l),
(958,954,l),
(846,0,l)
);
},
{
closed = 1;
nodes = (
(1670,586,l),
(1732,896,l),
(1268,896,l),
(1228,586,l)
);
}
);
width = 1840;
},
{
anchors = (
{
name = bottom;
pos = (993,0);
},
{
name = top;
pos = (1311,1474);
}
);
layerId = "8CC1EFAB-F3CB-44D1-8974-978FC52DD9AB";
shapes = (
{
closed = 1;
nodes = (
(100,0,l),
(664,788,l),
(1008,1284,l),
(1042,1284,l),
(1070,1474,l),
(942,1474,l),
(-102,0,l)
);
},
{
closed = 1;
nodes = (
(1020,393,l),
(1036,557,l),
(366,557,l),
(336,393,l)
);
},
{
closed = 1;
nodes = (
(1590,0,l),
(1622,164,l),
(1044,164,l),
(1170,1310,l),
(1853,1310,l),
(1886,1474,l),
(1040,1474,l),
(978,1102,l),
(854,0,l)
);
},
{
closed = 1;
nodes = (
(1633,668,l),
(1666,832,l),
(1098,832,l),
(1078,668,l)
);
}
);
width = 1814;
}
);
metricRight = E;
unicode = 198;
},
{
color = 6;
glyphname = B;
kernLeft = LAT_H_UC;
kernRight = LAT_B_UC;
lastChange = "2023-11-22 11:34:34 +0000";
layers = (
{
anchors = (
{
name = bottom;
pos = (474,0);
},
{
name = center;
pos = (220,422);
},
{
name = top;
pos = (763,1474);
}
);
background = {
shapes = (
{
closed = 1;
nodes = (
(573,0,ls),
(813,0,o),
(997,130,o),
(1027,354,cs),
(1055,550,o),
(934,728,o),
(756,766,c),
(760,752,l),
(908,810,o),
(1018,924,o),
(1046,1078,cs),
(1088,1302,o),
(936,1474,o),
(710,1474,cs),
(414,1474,l),
(398,1414,l),
(706,1414,ls),
(868,1414,o),
(1026,1302,o),
(982,1084,cs),
(946,912,o),
(796,790,o),
(634,790,cs),
(276,790,l),
(260,730,l),
(626,730,ls),
(846,730,o),
(990,558,o),
(964,366,cs),
(936,164,o),
(771,60,o),
(571,60,cs),
(164,60,l),
(154,0,l)
);
},
{
closed = 1;
nodes = (
(163,0,l),
(461,1474,l),
(396,1474,l),
(98,0,l)
);
}
);
};
layerId = "AB099EFE-E788-4EFC-8633-CF147CB782A6";
shapes = (
{
closed = 1;
nodes = (
(573,0,ls),
(835,0,o),
(1031,163,o),
(1031,404,cs),
(1031,585,o),
(920,730,o),
(756,766,c),
(760,752,l),
(935,820,o),
(1053,971,o),
(1053,1147,cs),
(1053,1340,o),
(911,1474,o),
(710,1474,cs),
(414,1474,l),
(398,1414,l),
(706,1414,ls),
(848,1414,o),
(989,1328,o),
(989,1151,cs),
(989,962,o),
(828,790,o),
(634,790,cs),
(276,790,l),
(260,730,l),
(626,730,ls),
(829,730,o),
(967,587,o),
(967,404,cs),
(967,201,o),
(798,60,o),
(571,60,cs),
(164,60,l),
(154,0,l)
);
},
{
closed = 1;
nodes = (
(163,0,l),
(461,1474,l),
(396,1474,l),
(98,0,l)
);
}
);
width = 1182;
},
{
anchors = (
{
name = bottom;
pos = (587,0);
},
{
name = center;
pos = (314,463);
},
{
name = top;
pos = (806,1474);
}
);
background = {
shapes = (
{
closed = 1;
nodes = (
(745,0,ls),
(1025,0,o),
(1209,166,o),
(1251,396,cs),
(1297,656,o),
(1125,776,o),
(945,802,c),
(937,710,l),
(1087,762,o),
(1231,888,o),
(1259,1070,cs),
(1297,1314,o),
(1085,1474,o),
(781,1474,cs),
(669,1474,l),
(603,1154,l),
(749,1154,ls),
(851,1154,o),
(905,1114,o),
(899,1036,cs),
(893,960,o),
(831,880,o),
(747,880,cs),
(549,880,l),
(495,610,l),
(765,610,ls),
(855,610,o),
(901,560,o),
(891,478,cs),
(879,388,o),
(817,320,o),
(725,320,cs),
(437,320,l),
(373,0,l)
);
},
{
closed = 1;
nodes = (
(407,0,l),
(705,1474,l),
(329,1474,l),
(33,0,l)
);
}
);
};
layerId = "2D8F7115-C311-411E-929D-56333CF7FFB2";
shapes = (
{
closed = 1;
nodes = (
(745,0,ls),
(1037,0,o),
(1259,201,o),
(1259,468,cs),
(1259,690,o),
(1105,777,o),
(945,802,c),
(937,710,l),
(1120,773,o),
(1263,937,o),
(1263,1121,cs),
(1263,1340,o),
(1061,1474,o),
(781,1474,cs),
(669,1474,l),
(603,1154,l),
(749,1154,ls),
(846,1154,o),
(899,1118,o),
(899,1047,cs),
(899,969,o),
(835,880,o),
(747,880,cs),
(549,880,l),
(495,610,l),
(765,610,ls),
(847,610,o),
(892,570,o),
(892,496,cs),
(892,406,o),
(825,320,o),
(725,320,cs),
(437,320,l),
(373,0,l)
);
},
{
closed = 1;
nodes = (
(407,0,l),
(705,1474,l),
(329,1474,l),
(33,0,l)
);
}
);
width = 1332;
},
{
anchors = (
{
name = bottom;
pos = (508,0);
},
{
name = center;
pos = (246,438);
},
{
name = top;
pos = (770,1474);
}
);
background = {
shapes = (
{
closed = 1;
nodes = (
(632,0,ls),
(902,0,o),
(1069,170,o),
(1106,372,cs),
(1138,546,o),
(1062,730,o),
(842,776,c),
(842,734,l),
(968,790,o),
(1086,906,o),
(1114,1070,cs),
(1156,1322,o),
(958,1474,o),
(714,1474,cs),
(502,1474,l),
(468,1310,l),
(688,1310,ls),
(852,1310,o),
(966,1242,o),
(931,1068,cs),
(905,938,o),
(810,834,o),
(666,834,cs),
(372,834,l),
(342,674,l),
(668,674,ls),
(864,674,o),
(952,558,o),
(930,410,cs),
(906,248,o),
(784,164,o),
(618,164,cs),
(256,164,l),
(224,0,l)
);
},
{
closed = 1;
nodes = (
(249,0,l),
(546,1474,l),
(362,1474,l),
(66,0,l)
);
}
);
};
layerId = "8CC1EFAB-F3CB-44D1-8974-978FC52DD9AB";
shapes = (
{
closed = 1;
nodes = (
(632,0,ls),
(903,0,o),
(1113,193,o),
(1113,438,cs),
(1113,612,o),
(1008,740,o),
(842,776,c),
(842,734,l),
(1005,806,o),
(1120,962,o),
(1120,1135,cs),
(1120,1339,o),
(961,1474,o),
(714,1474,cs),
(502,1474,l),
(468,1310,l),
(688,1310,ls),
(845,1310,o),
(937,1243,o),
(937,1116,cs),
(937,976,o),
(826,834,o),
(666,834,cs),
(372,834,l),
(342,674,l),
(668,674,ls),
(836,674,o),
(933,591,o),
(933,447,cs),
(933,280,o),
(806,164,o),
(618,164,cs),
(256,164,l),
(224,0,l)
);
},
{
closed = 1;
nodes = (
(249,0,l),
(546,1474,l),
(362,1474,l),
(66,0,l)
);
}
);
width = 1234;
}
);
metricLeft = H;
unicode = 66;
},
{
color = 6;
glyphname = C;
kernLeft = LAT_O_UC;
kernRight = LAT_C_UC;
lastChange = "2023-11-22 11:34:34 +0000";
layers = (
{
anchors = (
{
name = base;
pos = (740,0);
},
{
name = bottom;
pos = (700,0);
},
{
name = cedilla;
pos = (700,0);
},
{
name = top;
pos = (996,1474);
}
);
background = {
shapes = (
{
closed = 1;
nodes = (
(863,-16,o),
(1037,38,o),
(1183,158,c),
(1165,224,l),
(1043,110,o),
(881,44,o),
(717,44,cs),
(297,44,o),
(166,412,o),
(236,754,cs),
(306,1106,o),
(569,1430,o),
(973,1430,cs),
(1137,1430,o),
(1293,1370,o),
(1367,1276,c),
(1403,1334,l),
(1315,1424,o),
(1151,1490,o),
(971,1490,cs),
(531,1490,o),
(247,1132,o),
(173,766,cs),
(95,382,o),
(253,-16,o),
(713,-16,cs)
);
}
);
};
guides = (
{
angle = 67.5;
pos = (550,360);
},
{
angle = 112.5;
pos = (554,360);
}
);
layerId = "AB099EFE-E788-4EFC-8633-CF147CB782A6";
shapes = (
{
closed = 1;
nodes = (
(866,-16,o),
(1033,36,o),
(1183,158,c),
(1165,224,l),
(1043,111,o),
(887,44,o),
(711,44,cs),
(370,44,o),
(218,297,o),
(218,591,cs),
(218,1025,o),
(540,1430,o),
(971,1430,cs),
(1137,1430,o),
(1293,1370,o),
(1367,1276,c),
(1403,1334,l),
(1315,1424,o),
(1151,1490,o),
(971,1490,cs),
(508,1490,o),
(154,1058,o),
(154,590,cs),
(154,262,o),
(331,-16,o),
(704,-16,cs)
);
}
);
width = 1343;
},
{
anchors = (
{
name = base;
pos = (725,0);
},
{
name = bottom;
pos = (715,0);
},
{
name = cedilla;
pos = (739,0);
},
{
name = top;
pos = (983,1474);
}
);
background = {
shapes = (
{
closed = 1;
nodes = (
(954,-16,o),
(1092,18,o),
(1210,86,c),
(1126,440,l),
(1056,362,o),
(928,320,o),
(818,320,cs),
(592,320,o),
(436,498,o),
(474,744,cs),
(504,940,o),
(656,1154,o),
(918,1154,cs),
(1030,1154,o),
(1134,1116,o),
(1202,1052,c),
(1402,1364,l),
(1264,1444,o),
(1100,1490,o),
(932,1490,cs),
(492,1490,o),
(177,1166,o),
(110,796,cs),
(30,356,o),
(320,-16,o),
(806,-16,cs)
);
}
);
};
layerId = "2D8F7115-C311-411E-929D-56333CF7FFB2";
shapes = (
{
closed = 1;
nodes = (
(954,-16,o),
(1092,18,o),
(1210,86,c),
(1126,440,l),
(1056,362,o),
(928,320,o),
(818,320,cs),
(615,320,o),
(468,465,o),
(468,684,cs),
(468,931,o),
(661,1154,o),
(922,1154,cs),
(1029,1154,o),
(1134,1116,o),
(1202,1052,c),
(1402,1364,l),
(1264,1444,o),
(1098,1490,o),
(936,1490,cs),
(470,1490,o),
(97,1113,o),
(97,666,cs),
(97,277,o),
(374,-16,o),
(806,-16,cs)
);
}
);
width = 1342;
},
{
anchors = (
{
name = base;
pos = (741,0);
},
{
name = bottom;
pos = (711,0);
},
{
name = cedilla;
pos = (719,0);
},
{
name = top;
pos = (975,1474);
}
);
background = {
shapes = (
{
closed = 1;
nodes = (
(923,-16,o),
(1091,36,o),
(1205,126,c),
(1161,306,l),
(1051,214,o),
(905,148,o),
(755,148,cs),
(448,148,o),
(263,423,o),
(325,749,cs),
(386,1072,o),
(666,1326,o),
(964,1326,cs),
(1107,1326,o),
(1241,1268,o),
(1317,1190,c),
(1411,1352,l),
(1303,1436,o),
(1145,1490,o),
(978,1490,cs),
(582,1490,o),
(220,1185,o),
(145,761,cs),
(69,331,o),
(324,-16,o),
(756,-16,cs)
);
}
);
};
layerId = "8CC1EFAB-F3CB-44D1-8974-978FC52DD9AB";
shapes = (
{
closed = 1;
nodes = (
(923,-16,o),
(1091,36,o),
(1205,126,c),
(1161,306,l),
(1051,214,o),
(905,148,o),
(755,148,cs),
(488,148,o),
(312,360,o),
(312,632,cs),
(312,989,o),
(614,1326,o),
(963,1326,cs),
(1107,1326,o),
(1241,1268,o),
(1317,1190,c),
(1411,1352,l),
(1303,1436,o),
(1145,1490,o),
(977,1490,cs),
(515,1490,o),
(131,1082,o),
(131,623,cs),
(131,257,o),
(375,-16,o),
(756,-16,cs)
);
}
);
width = 1331;
}
);
metricLeft = O;
unicode = 67;
},
{
color = 6;
glyphname = D;
kernLeft = LAT_H_UC;
kernRight = LAT_O_UC;
lastChange = "2023-11-22 11:34:34 +0000";
layers = (
{
anchors = (
{
name = bottom;
pos = (584,0);
},
{
name = center;
pos = (286,737);
},
{
name = top;
pos = (875,1474);
}
);
background = {
shapes = (
{
closed = 1;
nodes = (
(566,0,ls),
(908,0,o),
(1210,228,o),
(1290,668,cs),
(1370,1106,o),
(1190,1474,o),
(786,1474,cs),
(396,1474,l),
(98,0,l)
);
},
{
closed = 1;
nodes = (
(449,1414,l),
(778,1414,ls),
(1120,1414,o),
(1301,1120,o),
(1229,688,cs),
(1167,324,o),
(926,60,o),
(572,60,cs),
(176,60,l)
);
}
);
};
layerId = "AB099EFE-E788-4EFC-8633-CF147CB782A6";
shapes = (
{
closed = 1;
nodes = (
(566,0,ls),
(1025,0,o),
(1307,403,o),
(1307,856,cs),
(1307,1219,o),
(1127,1474,o),
(786,1474,cs),
(396,1474,l),
(98,0,l)
);
},
{
closed = 1;
nodes = (
(449,1414,l),
(778,1414,ls),
(1070,1414,o),
(1243,1207,o),
(1243,858,cs),
(1243,438,o),
(991,60,o),
(572,60,cs),
(176,60,l)
);
}
);
width = 1386;
},
{
anchors = (
{
name = bottom;
pos = (579,0);
},
{
name = center;
pos = (380,736);
},
{
name = top;
pos = (880,1474);
}
);
background = {
shapes = (
{
closed = 1;
nodes = (
(615,0,ls),
(1017,0,o),
(1331,254,o),
(1407,638,cs),
(1497,1086,o),
(1213,1474,o),
(767,1474,cs),
(329,1474,l),
(33,0,l)
);
},
{
closed = 1;
nodes = (
(639,1146,l),
(743,1146,ls),
(969,1146,o),
(1087,952,o),
(1051,722,cs),
(1011,478,o),
(841,328,o),
(661,328,cs),
(474,328,l)
);
}
);
};
layerId = "2D8F7115-C311-411E-929D-56333CF7FFB2";
shapes = (
{
closed = 1;
nodes = (
(615,0,ls),
(1078,0,o),
(1422,351,o),
(1422,794,cs),
(1422,1184,o),
(1157,1474,o),
(767,1474,cs),
(329,1474,l),
(33,0,l)
);
},
{
closed = 1;
nodes = (
(639,1146,l),
(743,1146,ls),
(942,1146,o),
(1055,998,o),
(1055,801,cs),
(1055,566,o),
(892,328,o),
(661,328,cs),
(474,328,l)
);
}
);
width = 1444;
},
{
anchors = (
{
name = bottom;
pos = (573,0);
},
{
name = center;
pos = (313,737);
},
{
name = top;
pos = (870,1474);
}
);
background = {
shapes = (
{
closed = 1;
nodes = (
(578,0,ls),
(942,0,o),
(1248,238,o),
(1326,654,cs),
(1410,1100,o),
(1192,1474,o),
(770,1474,cs),
(362,1474,l),
(66,0,l)
);
},
{
closed = 1;
nodes = (
(513,1310,l),
(756,1310,ls),
(1060,1310,o),
(1211,1048,o),
(1152,702,cs),
(1096,372,o),
(878,164,o),
(598,164,cs),
(282,164,l)
);
}
);
};
layerId = "8CC1EFAB-F3CB-44D1-8974-978FC52DD9AB";
shapes = (
{
closed = 1;
nodes = (
(578,0,ls),
(1039,0,o),
(1344,372,o),
(1344,839,cs),
(1344,1199,o),
(1132,1474,o),
(770,1474,cs),
(362,1474,l),
(66,0,l)
);
},
{
closed = 1;
nodes = (
(513,1310,l),
(756,1310,ls),
(1016,1310,o),
(1165,1118,o),
(1165,845,cs),
(1165,484,o),
(948,164,o),
(598,164,cs),
(282,164,l)
);
}
);
width = 1399;
}
);
metricLeft = H;
metricRight = O;
unicode = 68;
},
{
color = 6;
glyphname = E;
kernLeft = LAT_H_UC;
kernRight = LAT_E_UC;
lastChange = "2023-12-15 06:17:10 +0000";
layers = (
{
anchors = (
{
name = bottom;
pos = (506,0);
},
{
name = cedilla;
pos = (494,0);
},
{
name = ogonek;
pos = (830,0);
},
{
name = top;
pos = (776,1474);
},
{
name = topleft;
pos = (238,1474);
}
);
hints = (
{
horizontal = 1;
options = 4;
origin = (0,2);
target = (0,11);
type = TTStem;
},
{
horizontal = 1;
options = 1;
origin = (0,3);
target = (0,6);
type = TTStem;
},
{
horizontal = 1;
options = 4;
origin = (0,10);
target = (0,7);
type = TTStem;
}
);
layerId = "AB099EFE-E788-4EFC-8633-CF147CB782A6";
shapes = (
{
closed = 1;
nodes = (
(830,0,l),
(842,60,l),
(175,60,l),
(310,724,l),
(882,724,l),
(894,784,l),
(322,784,l),
(449,1414,l),
(1115,1414,l),
(1127,1474,l),
(396,1474,l),
(98,0,l)
);
}
);
width = 1076;
},
{
anchors = (
{
name = bottom;
pos = (501,0);
},
{
name = cedilla;
pos = (497,0);
},
{
name = ogonek;
pos = (885,0);
},
{
name = top;
pos = (771,1474);
},
{
name = topleft;
pos = (232,1474);
}
);
hints = (
{
horizontal = 1;
options = 4;
origin = (0,2);
target = (0,11);
type = TTStem;
},
{
horizontal = 1;
options = 1;
origin = (0,3);
target = (0,6);
type = TTStem;
},
{
horizontal = 1;
options = 4;
origin = (0,10);
target = (0,7);
type = TTStem;
}
);
layerId = "2D8F7115-C311-411E-929D-56333CF7FFB2";
shapes = (
{
closed = 1;
nodes = (
(885,0,l),
(951,328,l),
(477,328,l),
(526,586,l),
(922,586,l),
(985,902,l),
(589,902,l),
(638,1146,l),
(1111,1146,l),
(1181,1474,l),
(329,1474,l),
(33,0,l)
);
}
);
width = 1089;
},
{
anchors = (
{
name = bottom;
pos = (496,0);
},
{
name = cedilla;
pos = (487,0);
},
{
name = ogonek;
pos = (844,0);
},
{
name = top;
pos = (766,1474);
},
{
name = topleft;
pos = (227,1474);
}
);
hints = (
{
horizontal = 1;
options = 4;
origin = (0,2);
target = (0,11);
type = TTStem;
},
{
horizontal = 1;
options = 1;
origin = (0,3);
target = (0,6);
type = TTStem;
},
{
horizontal = 1;
options = 4;
origin = (0,10);
target = (0,7);
type = TTStem;
}
);
layerId = "8CC1EFAB-F3CB-44D1-8974-978FC52DD9AB";
shapes = (
{
closed = 1;
nodes = (
(844,0,l),
(876,164,l),
(283,164,l),
(384,668,l),
(887,668,l),
(920,832,l),
(417,832,l),
(513,1310,l),
(1109,1310,l),
(1142,1474,l),
(362,1474,l),
(66,0,l)
);
}
);
width = 1070;
}
);
metricLeft = H;
unicode = 69;
},
{
color = 6;
glyphname = Schwa;
kernLeft = LAT_SCHWA_UC;
kernRight = LAT_O_UC;
lastChange = "2023-11-22 11:34:34 +0000";
layers = (
{
anchors = (
{
name = bottom;
pos = (593,-49);
},
{
name = top;
pos = (917,1535);
}
);
layerId = "AB099EFE-E788-4EFC-8633-CF147CB782A6";
shapes = (
{
closed = 1;
nodes = (
(1081,-16,o),
(1375,466,o),
(1375,931,cs),
(1375,1302,o),
(1188,1490,o),
(884,1490,cs),
(664,1490,o),
(446,1392,o),
(300,1208,c),
(354,1172,l),
(502,1350,o),
(692,1430,o),
(882,1430,cs),
(1153,1430,o),
(1315,1266,o),
(1315,940,cs),
(1315,516,o),
(1042,44,o),
(622,44,cs),
(362,44,o),
(206,224,o),
(206,523,cs),
(206,577,o),
(211,635,o),
(222,698,c),
(1312,698,l),
(1326,758,l),
(170,758,l),
(156,665,o),
(148,589,o),
(148,520,cs),
(148,190,o),
(320,-16,o),
(621,-16,cs)
);
}
);
width = 1440;
},
{
anchors = (
{
name = bottom;
pos = (671,-49);
},
{
name = top;
pos = (959,1515);
}
);
layerId = "2D8F7115-C311-411E-929D-56333CF7FFB2";
shapes = (
{
closed = 1;
nodes = (
(1153,-16,o),
(1508,397,o),
(1508,869,cs),
(1508,1265,o),
(1258,1490,o),
(896,1490,cs),
(625,1490,o),
(389,1364,o),
(235,1158,c),
(531,992,l),
(609,1086,o),
(719,1170,o),
(873,1170,cs),
(1047,1170,o),
(1139,1062,o),
(1139,862,cs),
(1139,586,o),
(963,296,o),
(686,296,cs),
(527,296,o),
(407,391,o),
(407,521,cs),
(407,533,o),
(408,549,o),
(411,562,c),
(1203,562,l),
(1257,856,l),
(121,856,l),
(88,717,o),
(71,614,o),
(71,529,cs),
(71,199,o),
(302,-16,o),
(659,-16,cs)
);
}
);
width = 1517;
},
{
anchors = (
{
name = bottom;
pos = (648,-49);
},
{
name = top;
pos = (957,1529);
}
);
layerId = "8CC1EFAB-F3CB-44D1-8974-978FC52DD9AB";
shapes = (
{
closed = 1;
nodes = (
(1114,-20,o),
(1459,428,o),
(1459,913,cs),
(1459,1283,o),
(1213,1490,o),
(897,1490,cs),
(667,1490,o),
(429,1386,o),
(275,1190,c),
(421,1110,l),
(529,1242,o),
(707,1326,o),
(885,1326,cs),
(1120,1326,o),
(1278,1171,o),
(1278,899,cs),
(1278,514,o),
(1028,144,o),
(659,144,cs),
(429,144,o),
(273,285,o),
(273,519,cs),
(273,554,o),
(277,595,o),
(285,635,c),
(1275,635,l),
(1309,795,l),
(149,795,l),
(123,674,o),
(109,577,o),
(109,517,cs),
(109,204,o),
(315,-20,o),
(649,-20,cs)
);
}
);
width = 1499;
}
);
metricLeft = O;
metricRight = O;
unicode = 399;
},
{
color = 6;
glyphname = F;
kernLeft = LAT_H_UC;
kernRight = LAT_F_UC;
lastChange = "2023-11-22 11:34:34 +0000";
layers = (
{
anchors = (
{
name = bottom;
pos = (130,0);
},
{
name = center;
pos = (206,378);
},
{
name = top;
pos = (781,1474);
}
);
layerId = "AB099EFE-E788-4EFC-8633-CF147CB782A6";
shapes = (
{
closed = 1;
nodes = (
(164,0,l),
(310,726,l),
(874,726,l),
(886,786,l),
(322,786,l),
(449,1414,l),
(1092,1414,l),
(1104,1474,l),
(396,1474,l),
(98,0,l)
);
}
);
width = 995;
},
{
anchors = (
{
name = bottom;
pos = (220,0);
},
{
name = center;
pos = (277,291);
},
{
name = top;
pos = (818,1474);
}
);
layerId = "2D8F7115-C311-411E-929D-56333CF7FFB2";
shapes = (
{
closed = 1;
nodes = (
(408,0,l),
(514,524,l),
(905,524,l),
(971,852,l),
(580,852,l),
(638,1146,l),
(1115,1146,l),
(1181,1474,l),
(329,1474,l),
(33,0,l)
);
}
);
width = 1051;
},
{
anchors = (
{
name = bottom;
pos = (156,0);
},
{
name = center;
pos = (225,344);
},
{
name = top;
pos = (788,1474);
}
);
layerId = "8CC1EFAB-F3CB-44D1-8974-978FC52DD9AB";
shapes = (
{
closed = 1;
nodes = (
(250,0,l),
(379,646,l),
(877,646,l),
(910,810,l),
(412,810,l),
(513,1310,l),
(1091,1310,l),
(1124,1474,l),
(362,1474,l),
(66,0,l)
);
}
);
width = 1008;
}
);
metricLeft = H;
unicode = 70;
},
{
color = 6;
glyphname = G;
kernLeft = LAT_O_UC;
kernRight = LAT_G_UC;
lastChange = "2023-11-22 11:34:34 +0000";
layers = (
{
anchors = (
{
name = bottom;
pos = (656,0);
},
{
name = hook;
pos = (1382,1326);
},
{
name = top;
pos = (954,1474);
}
);
background = {
shapes = (
{
closed = 1;
nodes = (
(1072,-16,o),
(1337,302,o),
(1406,700,cs),
(1416,758,l),
(788,758,l),
(778,698,l),
(1372,698,l),
(1348,720,l),
(1264,272,o),
(990,44,o),
(708,44,cs),
(392,44,o),
(159,324,o),
(231,730,cs),
(295,1088,o),
(582,1430,o),
(966,1430,cs),
(1118,1430,o),
(1258,1376,o),
(1344,1268,c),
(1382,1326,l),
(1306,1406,o),
(1160,1490,o),
(966,1490,cs),
(576,1490,o),
(242,1162,o),
(168,744,cs),
(86,282,o),
(356,-16,o),
(708,-16,cs)
);
}
);
};
layerId = "AB099EFE-E788-4EFC-8633-CF147CB782A6";
shapes = (
{
closed = 1;
nodes = (
(1073,-16,o),
(1337,302,o),
(1406,700,cs),
(1416,758,l),
(788,758,l),
(778,698,l),
(1372,698,l),
(1348,720,l),
(1264,272,o),
(991,44,o),
(706,44,cs),
(431,44,o),
(218,257,o),
(218,592,cs),
(218,1010,o),
(549,1430,o),
(967,1430,cs),
(1117,1430,o),
(1257,1376,o),
(1343,1268,c),
(1382,1326,l),
(1306,1406,o),
(1161,1490,o),
(964,1490,cs),
(511,1490,o),
(153,1045,o),
(153,589,cs),
(153,211,o),
(399,-16,o),
(708,-16,cs)
);
}
);
width = 1493;
},
{
anchors = (
{
name = bottom;
pos = (679,0);
},
{
name = hook;
pos = (1418,1364);
},
{
name = top;
pos = (964,1474);
}
);
background = {
shapes = (
{
closed = 1;
nodes = (
(1124,-16,o),
(1402,248,o),
(1468,572,cs),
(1526,858,l),
(826,858,l),
(768,562,l),
(1282,562,l),
(1122,628,l),
(1106,434,o),
(970,313,o),
(786,313,cs),
(556,313,o),
(428,518,o),
(476,762,cs),
(522,990,o),
(714,1154,o),
(934,1154,cs),
(1050,1154,o),
(1180,1110,o),
(1218,1052,c),
(1418,1364,l),
(1312,1434,o),
(1144,1490,o),
(954,1490,cs),
(530,1490,o),
(188,1202,o),
(110,810,cs),
(24,370,o),
(314,-16,o),
(758,-16,cs)
);
}
);
};
layerId = "2D8F7115-C311-411E-929D-56333CF7FFB2";
shapes = (
{
closed = 1;
nodes = (
(1124,-16,o),
(1402,248,o),
(1468,572,cs),
(1526,858,l),
(826,858,l),
(768,562,l),
(1282,562,l),
(1122,628,l),
(1106,434,o),
(970,313,o),
(786,313,cs),
(588,313,o),
(466,464,o),
(466,662,cs),
(466,927,o),
(673,1154,o),
(934,1154,cs),
(1050,1154,o),
(1180,1110,o),
(1218,1052,c),
(1418,1364,l),
(1312,1434,o),
(1144,1490,o),
(954,1490,cs),
(481,1490,o),
(95,1121,o),
(95,656,cs),
(95,284,o),
(367,-16,o),
(758,-16,cs)
);
}
);
width = 1531;
},
{
anchors = (
{
name = bottom;
pos = (712,0);
},
{
name = hook;
pos = (1397,1342);
},
{
name = top;
pos = (947,1474);
}
);
background = {
shapes = (
{
closed = 1;
nodes = (
(1101,-16,o),
(1337,239,o),
(1407,636,cs),
(1435,794,l),
(787,794,l),
(757,634,l),
(1307,634,l),
(1229,690,l),
(1195,368,o),
(1015,148,o),
(747,148,cs),
(413,148,o),
(271,474,o),
(333,786,cs),
(385,1052,o),
(589,1326,o),
(935,1326,cs),
(1117,1326,o),
(1235,1250,o),
(1299,1180,c),
(1397,1342,l),
(1309,1414,o),
(1161,1490,o),
(941,1490,cs),
(479,1490,o),
(221,1154,o),
(155,812,cs),
(73,384,o),
(293,-16,o),
(741,-16,cs)
);
}
);
};
layerId = "8CC1EFAB-F3CB-44D1-8974-978FC52DD9AB";
shapes = (
{
closed = 1;
nodes = (
(1101,-16,o),
(1337,239,o),
(1407,636,cs),
(1435,794,l),
(787,794,l),
(757,634,l),
(1307,634,l),
(1229,690,l),
(1194,365,o),
(1015,148,o),
(744,148,cs),
(464,148,o),
(319,381,o),
(319,650,cs),
(319,1008,o),
(576,1326,o),
(939,1326,cs),
(1116,1326,o),
(1235,1250,o),
(1299,1180,c),
(1397,1342,l),
(1301,1421,o),
(1147,1490,o),
(946,1490,cs),
(473,1490,o),
(138,1110,o),
(138,648,cs),
(138,276,o),
(355,-16,o),
(741,-16,cs)
);
}
);
width = 1486;
}
);
metricLeft = O;
unicode = 71;
},
{
color = 6;
glyphname = H;
kernLeft = LAT_H_UC;
kernRight = LAT_H_UC;
lastChange = "2023-11-22 11:34:34 +0000";
layers = (
{
anchors = (
{
name = bottom;
pos = (588,0);
},
{
name = center;
pos = (804,1083);
},
{
name = top;
pos = (882,1474);
}
);
layerId = "AB099EFE-E788-4EFC-8633-CF147CB782A6";
shapes = (
{
closed = 1;
nodes = (
(164,0,l),
(308,724,l),
(1160,724,l),
(1020,0,l),
(1085,0,l),
(1371,1474,l),
(1306,1474,l),
(1172,784,l),
(320,784,l),
(456,1474,l),
(391,1474,l),
(99,0,l)
);
}
);
width = 1391;
},
{
anchors = (
{
name = bottom;
pos = (656,0);
},
{
name = center;
pos = (892,1183);
},
{
name = top;
pos = (949,1474);
}
);
guides = (
{
angle = 78.75;
pos = (-46,0);
}
);
layerId = "2D8F7115-C311-411E-929D-56333CF7FFB2";
shapes = (
{
closed = 1;
nodes = (
(408,0,l),
(524,579,l),
(1020,579,l),
(905,0,l),
(1280,0,l),
(1574,1474,l),
(1199,1474,l),
(1085,905,l),
(589,905,l),
(703,1474,l),
(327,1474,l),
(33,0,l)
);
}
);
width = 1528;
},
{
anchors = (
{
name = bottom;
pos = (608,0);
},
{
name = center;
pos = (829,1121);
},
{
name = top;
pos = (901,1474);
}
);
layerId = "8CC1EFAB-F3CB-44D1-8974-978FC52DD9AB";
shapes = (
{
closed = 1;
nodes = (
(249,0,l),
(384,670,l),
(1098,670,l),
(965,0,l),
(1148,0,l),
(1442,1474,l),
(1258,1474,l),
(1131,834,l),
(417,834,l),
(546,1474,l),
(362,1474,l),
(66,0,l)
);
}
);
width = 1426;
}
);
unicode = 72;
},
{
color = 6;
glyphname = I;
kernLeft = LAT_H_UC;
kernRight = LAT_H_UC;
lastChange = "2023-11-22 11:34:34 +0000";
layers = (
{
anchors = (
{
name = bottom;
pos = (144,0);
},
{
name = ogonek;
pos = (177,0);
},
{
name = top;
pos = (440,1474);
}
);
layerId = "AB099EFE-E788-4EFC-8633-CF147CB782A6";
shapes = (
{
closed = 1;
nodes = (
(177,0,l),
(472,1474,l),
(407,1474,l),
(112,0,l)
);
}
);
width = 500;
},
{
anchors = (
{
name = bottom;
pos = (237,0);
},
{
name = ogonek;
pos = (424,0);
},
{
name = top;
pos = (530,1474);
}
);
layerId = "2D8F7115-C311-411E-929D-56333CF7FFB2";
shapes = (
{
closed = 1;
nodes = (
(424,0,l),
(718,1474,l),
(343,1474,l),
(49,0,l)
);
}
);
width = 688;
},
{
anchors = (
{
name = bottom;
pos = (176,0);
},
{
name = ogonek;
pos = (266,0);
},
{
name = top;
pos = (473,1474);
}
);
layerId = "8CC1EFAB-F3CB-44D1-8974-978FC52DD9AB";
shapes = (
{
closed = 1;
nodes = (
(266,0,l),
(564,1474,l),
(380,1474,l),
(82,0,l)
);
}
);
width = 566;
}
);
unicode = 73;
},
{
color = 6;
glyphname = I.ss03;
kernLeft = LAT_ISS03_UC;
kernRight = LAT_ISS03_UC;
lastChange = "2023-11-22 11:34:34 +0000";
layers = (
{
anchors = (
{
name = bottom;
pos = (257,0);
},
{
name = ogonek;
pos = (461,0);
},
{
name = top;
pos = (554,1475);
}
);
layerId = "AB099EFE-E788-4EFC-8633-CF147CB782A6";
shapes = (
{
closed = 1;
nodes = (
(289,0,l),
(586,1474,l),
(522,1474,l),
(229,0,l)
);
},
{
closed = 1;
nodes = (
(461,0,l),
(470,59,l),
(68,59,l),
(57,0,l)
);
},
{
closed = 1;
nodes = (
(739,1415,l),
(758,1474,l),
(354,1474,l),
(338,1415,l)
);
}
);
width = 729;
},
{
anchors = (
{
name = bottom;
pos = (375,0);
},
{
name = ogonek;
pos = (748,0);
},
{
name = top;
pos = (672,1475);
}
);
layerId = "2D8F7115-C311-411E-929D-56333CF7FFB2";
shapes = (
{
closed = 1;
nodes = (
(559,0,l),
(856,1474,l),
(492,1474,l),
(195,0,l)
);
},
{
closed = 1;
nodes = (
(748,0,l),
(813,319,l),
(78,319,l),
(6,0,l)
);
},
{
closed = 1;
nodes = (
(973,1155,l),
(1044,1474,l),
(303,1474,l),
(231,1155,l)
);
}
);
width = 969;
},
{
anchors = (
{
name = bottom;
pos = (299,0);
},
{
name = ogonek;
pos = (567,0);
},
{
name = top;
pos = (596,1475);
}
);
layerId = "8CC1EFAB-F3CB-44D1-8974-978FC52DD9AB";
shapes = (
{
closed = 1;
nodes = (
(389,0,l),
(686,1474,l),
(508,1474,l),
(213,0,l)
);
},
{
closed = 1;
nodes = (
(567,0,l),
(600,160,l),
(70,160,l),
(35,0,l)
);
},
{
closed = 1;
nodes = (
(827,1315,l),
(864,1474,l),
(332,1474,l),
(295,1315,l)
);
}
);
width = 815;
}
);
},
{
color = 6;
glyphname = J;
kernLeft = LAT_J_UC;
kernRight = LAT_U_UC;
lastChange = "2023-11-22 11:34:34 +0000";
layers = (
{
anchors = (
{
name = bottom;
pos = (314,0);
},
{
name = top;
pos = (860,1474);
}
);
layerId = "AB099EFE-E788-4EFC-8633-CF147CB782A6";
shapes = (
{
closed = 1;
nodes = (
(502,-16,o),
(624,126,o),
(684,426,cs),
(893,1474,l),
(827,1474,l),
(618,426,ls),
(575,208,o),
(494,44,o),
(310,44,cs),
(168,44,o),
(40,156,o),
(76,344,c),
(12,352,l),
(-24,140,o),
(120,-16,o),
(314,-16,cs)
);
}
);
width = 906;
},
{
anchors = (
{
name = bottom;
pos = (449,0);
},
{
name = top;
pos = (975,1474);
}
);
layerId = "2D8F7115-C311-411E-929D-56333CF7FFB2";
shapes = (
{
closed = 1;
nodes = (
(716,-16,o),
(903,160,o),
(962,456,cs),
(1166,1474,l),
(791,1474,l),
(592,484,ls),
(582,432,o),
(554,312,o),
(448,312,cs),
(374,312,o),
(336,370,o),
(358,470,c),
(10,502,l),
(-59,157,o),
(155,-16,o),
(434,-16,cs)
);
}
);
width = 1120;
},
{
anchors = (
{
name = bottom;
pos = (365,0);
},
{
name = top;
pos = (903,1474);
}
);
layerId = "8CC1EFAB-F3CB-44D1-8974-978FC52DD9AB";
shapes = (
{
closed = 1;
nodes = (
(584,-16,o),
(728,138,o),
(788,436,cs),
(996,1474,l),
(812,1474,l),
(607,450,ls),
(567,250,o),
(490,148,o),
(362,148,cs),
(230,148,o),
(160,252,o),
(188,396,c),
(10,414,l),
(-38,160,o),
(122,-16,o),
(362,-16,cs)
);
}
);
width = 980;
}
);
metricRight = H;
unicode = 74;
},
{
color = 6;
glyphname = K;
kernLeft = LAT_H_UC;
kernRight = LAT_K_UC;
lastChange = "2023-11-22 11:34:34 +0000";
layers = (
{
anchors = (
{
name = bottom;
pos = (510,0);
},
{
name = top;
pos = (801,1474);
}
);
layerId = "AB099EFE-E788-4EFC-8633-CF147CB782A6";
shapes = (
{
closed = 1;
nodes = (
(164,0,l),
(304,706,l),
(334,706,l),
(304,732,l),
(919,0,l),
(997,0,l),
(364,754,l),
(366,716,l),
(1239,1474,l),
(1148,1474,l),
(304,742,l),
(352,774,l),
(318,774,l),
(456,1474,l),
(391,1474,l),
(99,0,l)
);
}
);
width = 1146;
},
{
anchors = (
{
name = bottom;
pos = (619,0);
},
{
name = top;
pos = (878,1474);
}
);
guides = (
{
angle = 120;
pos = (525,0);
}
);
layerId = "2D8F7115-C311-411E-929D-56333CF7FFB2";
shapes = (
{
closed = 1;
nodes = (
(408,0,l),
(534,630,l),
(616,630,l),
(506,696,l),
(870,0,l),
(1282,0,l),
(824,826,l),
(826,606,l),
(1576,1474,l),
(1114,1474,l),
(546,772,l),
(656,816,l),
(571,816,l),
(703,1474,l),
(327,1474,l),
(33,0,l)
);
}
);
width = 1406;
},
{
anchors = (
{
name = bottom;
pos = (543,0);
},
{
name = top;
pos = (825,1474);
}
);
layerId = "8CC1EFAB-F3CB-44D1-8974-978FC52DD9AB";
shapes = (
{
closed = 1;
nodes = (
(250,0,l),
(385,676,l),
(436,676,l),
(376,718,l),
(895,0,l),
(1098,0,l),
(532,782,l),
(536,674,l),
(1364,1474,l),
(1130,1474,l),
(390,754,l),
(462,790,l),
(408,790,l),
(545,1472,l),
(362,1474,l),
(66,0,l)
);
}
);
width = 1236;
}
);
metricLeft = H;
unicode = 75;
},
{
color = 6;
glyphname = L;
kernLeft = LAT_H_UC;
kernRight = LAT_L_UC;
lastChange = "2023-11-22 11:34:34 +0000";
layers = (
{
anchors = (
{
name = bottom;
pos = (472,0);
},
{
name = center;
pos = (275,737);
},
{
name = dot;
pos = (775,737);
},
{
name = top;
pos = (422,1474);
},
{
name = topright;
pos = (923,1474);
}
);
layerId = "AB099EFE-E788-4EFC-8633-CF147CB782A6";
shapes = (
{
closed = 1;
nodes = (
(809,0,l),
(821,60,l),
(176,60,l),
(456,1474,l),
(391,1474,l),
(99,0,l)
);
}
);
width = 968;
},
{
anchors = (
{
name = bottom;
pos = (462,0);
},
{
name = center;
pos = (367,758);
},
{
name = dot;
pos = (887,754);
},
{
name = top;
pos = (523,1474);
},
{
name = topright;
pos = (802,1474);
}
);
layerId = "2D8F7115-C311-411E-929D-56333CF7FFB2";
shapes = (
{
closed = 1;
nodes = (
(868,0,l),
(934,328,l),
(474,328,l),
(703,1474,l),
(327,1474,l),
(33,0,l)
);
}
);
width = 1008;
},
{
anchors = (
{
name = bottom;
pos = (459,0);
},
{
name = center;
pos = (303,745);
},
{
name = dot;
pos = (811,743);
},
{
name = top;
pos = (457,1474);
},
{
name = topright;
pos = (872,1474);
}
);
layerId = "8CC1EFAB-F3CB-44D1-8974-978FC52DD9AB";
shapes = (
{
closed = 1;
nodes = (
(826,0,l),
(859,164,l),
(282,164,l),
(546,1474,l),
(362,1474,l),
(66,0,l)
);
}
);
width = 974;
}
);
metricLeft = H;
unicode = 76;
},
{
color = 6;
glyphname = M;
kernLeft = LAT_H_UC;
kernRight = LAT_H_UC;
lastChange = "2023-11-22 11:34:34 +0000";
layers = (
{
anchors = (
{
name = bottom;
pos = (682,0);
},
{
name = top;
pos = (973,1474);
}
);
layerId = "AB099EFE-E788-4EFC-8633-CF147CB782A6";
shapes = (
{
closed = 1;
nodes = (
(164,0,l),
(376,1074,l),
(429,1352,l),
(437,1352,l),
(716,274,l),
(758,274,l),
(1459,1358,l),
(1467,1358,l),
(1409,1076,l),
(1196,0,l),
(1261,0,l),
(1551,1474,l),
(1463,1474,l),
(760,382,l),
(748,382,l),
(467,1474,l),
(391,1474,l),
(99,0,l)
);
}
);
width = 1567;
},
{
anchors = (
{
name = bottom;
pos = (796,0);
},
{
name = top;
pos = (1093,1474);
}
);
layerId = "2D8F7115-C311-411E-929D-56333CF7FFB2";
shapes = (
{
closed = 1;
nodes = (
(410,0,l),
(484,400,l),
(549,814,l),
(561,814,l),
(809,308,l),
(873,308,l),
(1377,856,l),
(1385,856,l),
(1268,400,l),
(1188,0,l),
(1563,0,l),
(1857,1474,l),
(1555,1474,l),
(921,816,l),
(913,816,l),
(579,1474,l),
(329,1474,l),
(33,0,l)
);
}
);
width = 1811;
},
{
anchors = (
{
name = bottom;
pos = (721,0);
},
{
name = top;
pos = (1018,1474);
}
);
layerId = "8CC1EFAB-F3CB-44D1-8974-978FC52DD9AB";
shapes = (
{
closed = 1;
nodes = (
(249,0,l),
(411,804,l),
(464,1096,l),
(472,1096,l),
(746,286,l),
(810,286,l),
(1410,1108,l),
(1418,1108,l),
(1346,806,l),
(1182,0,l),
(1366,0,l),
(1664,1474,l),
(1496,1474,l),
(824,556,l),
(816,556,l),
(496,1474,l),
(362,1474,l),
(66,0,l)
);
}
);
width = 1648;
}
);
metricLeft = H;
metricRight = H;
unicode = 77;
},
{
color = 6;
glyphname = N;
kernLeft = LAT_H_UC;
kernRight = LAT_H_UC;
lastChange = "2023-11-22 11:34:34 +0000";
layers = (
{
anchors = (
{
name = bottom;
pos = (575,0);
},
{
name = leghookright;
pos = (1049,0);
},
{
name = top;
pos = (881,1474);
}
);
layerId = "AB099EFE-E788-4EFC-8633-CF147CB782A6";
shapes = (
{
closed = 1;
nodes = (
(164,0,l),
(356,970,l),
(430,1344,l),
(438,1344,l),
(550,1082,l),
(1018,0,l),
(1079,0,l),
(1369,1474,l),
(1304,1474,l),
(1115,514,l),
(1038,126,l),
(1026,126,l),
(916,386,l),
(447,1474,l),
(391,1474,l),
(99,0,l)
);
}
);
width = 1385;
},
{
anchors = (
{
name = bottom;
pos = (665,0);
},
{
name = leghookright;
pos = (1125,0);
},
{
name = top;
pos = (964,1474);
}
);
layerId = "2D8F7115-C311-411E-929D-56333CF7FFB2";
shapes = (
{
closed = 1;
nodes = (
(415,0,l),
(511,520,l),
(555,854,l),
(563,854,l),
(635,712,l),
(1029,0,l),
(1305,0,l),
(1601,1474,l),
(1227,1474,l),
(1121,954,l),
(1071,640,l),
(1063,640,l),
(995,778,l),
(599,1474,l),
(329,1474,l),
(33,0,l)
);
}
);
width = 1555;
},
{
anchors = (
{
name = bottom;
pos = (608,0);
},
{
name = leghookright;
pos = (1083,0);
},
{
name = top;
pos = (915,1474);
}
);
layerId = "8CC1EFAB-F3CB-44D1-8974-978FC52DD9AB";
shapes = (
{
closed = 1;
nodes = (
(249,0,l),
(406,780,l),
(475,1135,l),
(483,1135,l),
(581,937,l),
(1036,0,l),
(1170,0,l),
(1466,1474,l),
(1282,1474,l),
(1128,702,l),
(1055,335,l),
(1043,335,l),
(945,531,l),
(497,1474,l),
(362,1474,l),
(66,0,l)
);
}
);
width = 1450;
}
);
metricLeft = H;
metricRight = H;
unicode = 78;
},
{
color = 6;
glyphname = O;
kernLeft = LAT_O_UC;
kernRight = LAT_O_UC;
lastChange = "2023-11-22 11:34:34 +0000";
layers = (
{
anchors = (
{
name = bottom;
pos = (675,0);
},
{
name = center;
pos = (818,737);
},
{
name = horn;
pos = (1209,1408);
},
{
name = ogonek;
pos = (861,0);
},
{
name = top;
pos = (955,1474);
},
{
name = topleft;
pos = (242,1474);
},
{
name = topright;
pos = (1637,1474);
}
);
background = {
shapes = (
{
closed = 1;
nodes = (
(1065,-16,o),
(1376,250,o),
(1454,653,cs),
(1532,1054,o),
(1360,1490,o),
(914,1490,cs),
(575,1490,o),
(268,1237,o),
(184,828,cs),
(94,388,o),
(308,-16,o),
(726,-16,cs)
);
},
{
closed = 1;
nodes = (
(364,44,o),
(162,393,o),
(245,806,cs),
(317,1165,o),
(577,1430,o),
(908,1430,cs),
(1308,1430,o),
(1466,1043,o),
(1391,666,cs),
(1315,282,o),
(1025,44,o),
(726,44,cs)
);
}
);
};
layerId = "AB099EFE-E788-4EFC-8633-CF147CB782A6";
shapes = (
{
closed = 1;
nodes = (
(1153,-16,o),
(1472,386,o),
(1472,839,cs),
(1472,1179,o),
(1292,1490,o),
(912,1490,cs),
(479,1490,o),
(164,1086,o),
(164,636,cs),
(164,271,o),
(371,-16,o),
(729,-16,cs)
);
},
{
closed = 1;
nodes = (
(417,44,o),
(226,294,o),
(226,631,cs),
(226,1038,o),
(506,1430,o),
(908,1430,cs),
(1244,1430,o),
(1409,1157,o),
(1409,845,cs),
(1409,431,o),
(1120,44,o),
(730,44,cs)
);
}
);
width = 1552;
},
{
anchors = (
{
name = bottom;
pos = (735,0);
},
{
name = center;
pos = (844,738);
},
{
name = horn;
pos = (1229,1424);
},
{
name = ogonek;
pos = (924,0);
},
{
name = top;
pos = (952,1474);
},
{
name = topleft;
pos = (166,1474);
},
{
name = topright;
pos = (1737,1474);
}
);
background = {
shapes = (
{
closed = 1;
nodes = (
(1170,-16,o),
(1496,264,o),
(1570,640,cs),
(1662,1104,o),
(1384,1492,o),
(908,1492,cs),
(512,1492,o),
(194,1216,o),
(118,836,cs),
(24,366,o),
(310,-16,o),
(778,-16,cs)
);
},
{
closed = 1;
nodes = (
(560,320,o),
(431,528,o),
(483,784,cs),
(525,996,o),
(682,1156,o),
(888,1156,cs),
(1128,1156,o),
(1256,950,o),
(1206,694,cs),
(1162,478,o),
(1002,320,o),
(800,320,cs)
);
}
);
};
layerId = "2D8F7115-C311-411E-929D-56333CF7FFB2";
shapes = (
{
closed = 1;
nodes = (
(1229,-16,o),
(1587,355,o),
(1587,810,cs),
(1587,1201,o),
(1323,1492,o),
(911,1492,cs),
(448,1492,o),
(99,1120,o),
(99,671,cs),
(99,275,o),
(370,-16,o),
(774,-16,cs)
);
},
{
closed = 1;
nodes = (
(595,320,o),
(471,471,o),
(471,680,cs),
(471,925,o),
(641,1156,o),
(891,1156,cs),
(1093,1156,o),
(1216,1005,o),
(1216,797,cs),
(1216,551,o),
(1045,320,o),
(796,320,cs)
);
}
);
width = 1606;
},
{
anchors = (
{
name = bottom;
pos = (705,0);
},
{
name = center;
pos = (824,737);
},
{
name = horn;
pos = (1196,1414);
},
{
name = ogonek;
pos = (885,0);
},
{
name = top;
pos = (956,1474);
},
{
name = topleft;
pos = (225,1474);
},
{
name = topright;
pos = (1683,1474);
}
);
background = {
shapes = (
{
closed = 1;
nodes = (
(1124,-12,o),
(1414,264,o),
(1492,652,cs),
(1580,1092,o),
(1336,1486,o),
(898,1486,cs),
(526,1486,o),
(232,1198,o),
(156,822,cs),
(66,374,o),
(326,-12,o),
(760,-12,cs)
);
},
{
closed = 1;
nodes = (
(428,152,o),
(266,446,o),
(332,782,cs),
(394,1092,o),
(614,1322,o),
(900,1322,cs),
(1228,1322,o),
(1382,1018,o),
(1314,682,cs),
(1252,368,o),
(1028,152,o),
(756,152,cs)
);
}
);
};
layerId = "8CC1EFAB-F3CB-44D1-8974-978FC52DD9AB";
shapes = (
{
closed = 1;
nodes = (
(1193,-12,o),
(1510,386,o),
(1510,821,cs),
(1510,1194,o),
(1276,1486,o),
(901,1486,cs),
(465,1486,o),
(138,1090,o),
(138,655,cs),
(138,277,o),
(384,-12,o),
(756,-12,cs)
);
},
{
closed = 1;
nodes = (
(476,152,o),
(317,366,o),
(317,644,cs),
(317,986,o),
(558,1322,o),
(902,1322,cs),
(1177,1322,o),
(1330,1107,o),
(1330,829,cs),
(1330,485,o),
(1097,152,o),
(752,152,cs)
);
}
);
width = 1566;
}
);
unicode = 79;
},
{
color = 6;
glyphname = OE;
kernLeft = LAT_O_UC;
kernRight = LAT_E_UC;
lastChange = "2023-11-22 11:34:34 +0000";
layers = (
{
anchors = (
{
name = bottom;
pos = (1067,0);
},
{
name = top;
pos = (1362,1474);
}
);
background = {
shapes = (
{
pos = (583,0);
ref = E;
}
);
};
layerId = "AB099EFE-E788-4EFC-8633-CF147CB782A6";
shapes = (
{
closed = 1;
nodes = (
(988,-16,o),
(1251,148,o),
(1395,452,c),
(1367,456,l),
(1275,0,l),
(2025,0,l),
(2035,60,l),
(1353,60,l),
(1485,725,l),
(2075,725,l),
(2087,785,l),
(1499,785,l),
(1624,1414,l),
(2307,1414,l),
(2319,1474,l),
(1570,1474,l),
(1480,1018,l),
(1495,1014,l),
(1483,1312,o),
(1262,1490,o),
(979,1490,cs),
(526,1490,o),
(151,1036,o),
(151,581,cs),
(151,233,o),
(370,-16,o),
(711,-16,cs)
);
},
{
closed = 1;
nodes = (
(400,44,o),
(216,274,o),
(216,586,cs),
(216,1010,o),
(556,1430,o),
(983,1430,cs),
(1284,1430,o),
(1448,1222,o),
(1448,909,cs),
(1448,482,o),
(1144,44,o),
(713,44,cs)
);
}
);
width = 2268;
},
{
anchors = (
{
name = bottom;
pos = (950,0);
},
{
name = top;
pos = (1245,1474);
}
);
layerId = "2D8F7115-C311-411E-929D-56333CF7FFB2";
shapes = (
{
closed = 1;
nodes = (
(925,-16,o),
(1117,92,o),
(1251,292,c),
(1109,308,l),
(1047,0,l),
(1875,0,l),
(1941,328,l),
(1451,328,l),
(1499,586,l),
(1910,586,l),
(1974,902,l),
(1565,902,l),
(1615,1146,l),
(2103,1146,l),
(2167,1474,l),
(1341,1474,l),
(1285,1166,l),
(1419,1150,l),
(1368,1344,o),
(1155,1490,o),
(892,1490,cs),
(456,1490,o),
(93,1096,o),
(93,643,cs),
(93,285,o),
(329,-16,o),
(701,-16,cs)
);
},
{
closed = 1;
nodes = (
(591,320,o),
(468,472,o),
(468,668,cs),
(468,917,o),
(641,1154,o),
(883,1154,cs),
(1088,1154,o),
(1216,996,o),
(1216,795,cs),
(1216,548,o),
(1038,320,o),
(793,320,cs)
);
}
);
width = 2077;
},
{
anchors = (
{
name = bottom;
pos = (1022,0);
},
{
name = top;
pos = (1317,1474);
}
);
layerId = "8CC1EFAB-F3CB-44D1-8974-978FC52DD9AB";
shapes = (
{
closed = 1;
nodes = (
(963,-16,o),
(1199,128,o),
(1337,390,c),
(1267,400,l),
(1187,0,l),
(1964,0,l),
(1997,164,l),
(1387,164,l),
(1487,669,l),
(2011,669,l),
(2043,829,l),
(1521,829,l),
(1617,1310,l),
(2226,1310,l),
(2259,1474,l),
(1481,1474,l),
(1403,1074,l),
(1465,1066,l),
(1437,1330,o),
(1241,1490,o),
(960,1490,cs),
(501,1490,o),
(127,1064,o),
(127,602,cs),
(127,249,o),
(355,-16,o),
(705,-16,cs)
);
},
{
closed = 1;
nodes = (
(468,148,o),
(302,329,o),
(302,597,cs),
(302,965,o),
(600,1326,o),
(970,1326,cs),
(1229,1326,o),
(1370,1149,o),
(1370,884,cs),
(1370,517,o),
(1098,148,o),
(727,148,cs)
);
}
);
width = 2187;
}
);
metricLeft = O;
metricRight = E;
unicode = 338;
},
{
color = 6;
glyphname = P;
kernLeft = LAT_H_UC;
kernRight = LAT_P_UC;
lastChange = "2023-11-22 11:34:34 +0000";
layers = (
{
anchors = (
{
name = bottom;
pos = (152,0);
},
{
name = top;
pos = (784,1474);
}
);
background = {
shapes = (
{
closed = 1;
nodes = (
(163,0,l),
(456,1474,l),
(391,1474,l),
(98,0,l)
);
},
{
closed = 1;
nodes = (
(644,666,ls),
(888,666,o),
(1067,804,o),
(1105,1036,cs),
(1148,1300,o),
(975,1474,o),
(741,1474,cs),
(433,1474,l),
(419,1414,l),
(737,1414,ls),
(929,1414,o),
(1082,1275,o),
(1043,1054,cs),
(1008,856,o),
(876,726,o),
(658,726,cs),
(284,726,l),
(272,666,l)
);
}
);
};
layerId = "AB099EFE-E788-4EFC-8633-CF147CB782A6";
shapes = (
{
closed = 1;
nodes = (
(644,666,ls),
(919,666,o),
(1112,851,o),
(1112,1106,cs),
(1112,1338,o),
(951,1474,o),
(741,1474,cs),
(433,1474,l),
(419,1414,l),
(737,1414,ls),
(909,1414,o),
(1049,1309,o),
(1049,1110,cs),
(1049,899,o),
(893,726,o),
(658,726,cs),
(284,726,l),
(272,666,l)
);
},
{
closed = 1;
nodes = (
(163,0,l),
(456,1474,l),
(391,1474,l),
(98,0,l)
);
}
);
width = 1108;
},
{
anchors = (
{
name = bottom;
pos = (241,0);
},
{
name = top;
pos = (855,1474);
}
);
background = {
shapes = (
{
closed = 1;
nodes = (
(408,0,l),
(705,1474,l),
(329,1474,l),
(33,0,l)
);
},
{
closed = 1;
nodes = (
(717,452,ls),
(1039,452,o),
(1251,640,o),
(1297,914,cs),
(1355,1248,o),
(1127,1474,o),
(783,1474,cs),
(603,1474,l),
(537,1146,l),
(763,1146,ls),
(865,1146,o),
(951,1084,o),
(941,968,cs),
(929,840,o),
(825,772,o),
(733,772,cs),
(483,772,l),
(417,452,l)
);
}
);
};
layerId = "2D8F7115-C311-411E-929D-56333CF7FFB2";
shapes = (
{
closed = 1;
nodes = (
(717,452,ls),
(1062,452,o),
(1306,685,o),
(1306,1002,cs),
(1306,1299,o),
(1091,1474,o),
(783,1474,cs),
(603,1474,l),
(537,1146,l),
(763,1146,ls),
(860,1146,o),
(942,1091,o),
(942,984,cs),
(942,870,o),
(849,772,o),
(733,772,cs),
(483,772,l),
(417,452,l)
);
},
{
closed = 1;
nodes = (
(408,0,l),
(705,1474,l),
(329,1474,l),
(33,0,l)
);
}
);
width = 1281;
},
{
anchors = (
{
name = bottom;
pos = (176,0);
},
{
name = top;
pos = (807,1474);
}
);
background = {
shapes = (
{
closed = 1;
nodes = (
(250,0,l),
(544,1474,l),
(360,1474,l),
(66,0,l)
);
},
{
closed = 1;
nodes = (
(666,584,ls),
(940,584,o),
(1130,740,o),
(1174,994,cs),
(1224,1282,o),
(1028,1474,o),
(754,1474,cs),
(492,1474,l),
(458,1310,l),
(744,1310,ls),
(890,1310,o),
(1028,1214,o),
(1000,1016,cs),
(976,854,o),
(852,748,o),
(680,748,cs),
(352,748,l),
(322,584,l)
);
}
);
};
layerId = "8CC1EFAB-F3CB-44D1-8974-978FC52DD9AB";
shapes = (
{
closed = 1;
nodes = (
(666,584,ls),
(969,584,o),
(1182,786,o),
(1182,1082,cs),
(1182,1320,o),
(999,1474,o),
(754,1474,cs),
(492,1474,l),
(458,1310,l),
(744,1310,ls),
(877,1310,o),
(1004,1230,o),
(1004,1066,cs),
(1004,882,o),
(872,748,o),
(680,748,cs),
(352,748,l),
(322,584,l)
);
},
{
closed = 1;
nodes = (
(250,0,l),
(544,1474,l),
(360,1474,l),
(66,0,l)
);
}
);
width = 1164;
}
);
metricLeft = H;
unicode = 80;
},
{
color = 6;
glyphname = Thorn;
kernLeft = LAT_H_UC;
kernRight = LAT_THORN_UC;
lastChange = "2023-11-22 11:34:34 +0000";
layers = (
{
layerId = "AB099EFE-E788-4EFC-8633-CF147CB782A6";
shapes = (
{
closed = 1;
nodes = (
(622,330,ls),
(889,330,o),
(1093,549,o),
(1093,816,cs),
(1093,1030,o),
(937,1138,o),
(728,1138,cs),
(374,1138,l),
(362,1078,l),
(729,1078,ls),
(902,1078,o),
(1030,1000,o),
(1030,819,cs),
(1030,590,o),
(866,390,o),
(636,390,cs),
(226,390,l),
(214,330,l)
);
},
{
closed = 1;
nodes = (
(164,0,l),
(456,1474,l),
(391,1474,l),
(99,0,l)
);
}
);
width = 1150;
},
{
layerId = "2D8F7115-C311-411E-929D-56333CF7FFB2";
shapes = (
{
closed = 1;
nodes = (
(657,230,ls),
(1007,230,o),
(1265,494,o),
(1265,821,cs),
(1265,1095,o),
(1083,1252,o),
(777,1252,cs),
(567,1252,l),
(503,924,l),
(713,924,ls),
(835,924,o),
(886,873,o),
(886,782,cs),
(886,667,o),
(805,558,o),
(687,558,cs),
(427,558,l),
(361,230,l)
);
},
{
closed = 1;
nodes = (
(408,0,l),
(704,1474,l),
(329,1474,l),
(33,0,l)
);
}
);
width = 1279;
},
{
layerId = "8CC1EFAB-F3CB-44D1-8974-978FC52DD9AB";
shapes = (
{
closed = 1;
nodes = (
(628,292,ls),
(928,292,o),
(1152,526,o),
(1152,824,cs),
(1152,1053,o),
(988,1182,o),
(742,1182,cs),
(442,1182,l),
(408,1018,l),
(716,1018,ls),
(871,1018,o),
(974,950,o),
(974,804,cs),
(974,620,o),
(835,456,o),
(648,456,cs),
(296,456,l),
(264,292,l)
);
},
{
closed = 1;
nodes = (
(250,0,l),
(543,1474,l),
(359,1474,l),
(66,0,l)
);
}
);
width = 1188;
}
);
metricLeft = H;
unicode = 222;
},
{
color = 3;
glyphname = Q;
kernLeft = LAT_O_UC;
kernRight = LAT_Q_UC;
lastChange = "2023-11-22 11:34:34 +0000";
layers = (
{
anchors = (
{
name = bottom;
pos = (654,0);
},
{
name = top;
pos = (940,1474);
}
);
layerId = "AB099EFE-E788-4EFC-8633-CF147CB782A6";
shapes = (
{
closed = 1;
nodes = (
(1320,0,l),
(1196,196,l),
(1176,212,l),
(960,548,l),
(889,548,l),
(1128,174,l),
(1150,156,l),
(1249,0,l)
);
},
{
ref = O;
}
);
width = 1560;
},
{
anchors = (
{
name = bottom;
pos = (631,0);
},
{
name = top;
pos = (954,1474);
}
);
layerId = "2D8F7115-C311-411E-929D-56333CF7FFB2";
shapes = (
{
closed = 1;
nodes = (
(1612,0,l),
(1374,300,l),
(1184,452,l),
(1036,632,l),
(658,632,l),
(930,320,l),
(1084,202,l),
(1246,0,l)
);
},
{
ref = O;
}
);
width = 1659;
},
{
anchors = (
{
name = bottom;
pos = (772,0);
},
{
name = top;
pos = (813,1474);
}
);
layerId = "8CC1EFAB-F3CB-44D1-8974-978FC52DD9AB";
shapes = (
{
closed = 1;
nodes = (
(1430,0,l),
(1264,244,l),
(1198,298,l),
(1008,580,l),
(818,580,l),
(1068,220,l),
(1126,178,l),
(1246,0,l)
);
},
{
alignment = -1;
ref = O;
}
);
width = 1595;
}
);
metricLeft = O;
unicode = 81;
},
{
color = 6;
glyphname = R;
kernLeft = LAT_H_UC;
kernRight = LAT_R_UC;
lastChange = "2023-11-22 11:34:34 +0000";
layers = (
{
anchors = (
{
name = bottom;
pos = (522,0);
},
{
name = top;
pos = (746,1474);
}
);
background = {
shapes = (
{
closed = 1;
nodes = (
(164,0,l),
(456,1474,l),
(391,1474,l),
(99,0,l)
);
},
{
closed = 1;
nodes = (
(988,0,l),
(640,718,l),
(590,674,l),
(917,0,l)
);
},
{
closed = 1;
nodes = (
(620,666,ls),
(884,666,o),
(1068,804,o),
(1105,1036,cs),
(1147,1301,o),
(975,1474,o),
(741,1474,cs),
(433,1474,l),
(419,1414,l),
(739,1414,ls),
(933,1414,o),
(1076,1276,o),
(1043,1054,cs),
(1015,866,o),
(882,726,o),
(638,726,cs),
(284,726,l),
(274,666,l)
);
}
);
};
layerId = "AB099EFE-E788-4EFC-8633-CF147CB782A6";
shapes = (
{
closed = 1;
nodes = (
(620,666,ls),
(909,666,o),
(1111,837,o),
(1111,1114,cs),
(1111,1334,o),
(951,1474,o),
(741,1474,cs),
(433,1474,l),
(419,1414,l),
(739,1414,ls),
(914,1414,o),
(1048,1301,o),
(1048,1116,cs),
(1048,882,o),
(886,726,o),
(638,726,cs),
(284,726,l),
(274,666,l)
);
},
{
closed = 1;
nodes = (
(164,0,l),
(456,1474,l),
(391,1474,l),
(99,0,l)
);
},
{
closed = 1;
nodes = (
(988,0,l),
(640,718,l),
(590,674,l),
(917,0,l)
);
}
);
width = 1200;
},
{
anchors = (
{
name = bottom;
pos = (587,0);
},
{
name = top;
pos = (794,1474);
}
);
background = {
shapes = (
{
closed = 1;
nodes = (
(408,0,l),
(703,1474,l),
(327,1474,l),
(33,0,l)
);
},
{
closed = 1;
nodes = (
(1221,0,l),
(880,738,l),
(588,538,l),
(825,0,l)
);
},
{
closed = 1;
nodes = (
(695,486,ls),
(1021,486,o),
(1231,666,o),
(1277,918,cs),
(1339,1258,o),
(1096,1474,o),
(762,1474,cs),
(582,1474,l),
(514,1146,l),
(742,1146,ls),
(846,1146,o),
(924,1084,o),
(911,964,cs),
(899,852,o),
(821,784,o),
(713,784,cs),
(463,784,l),
(403,486,l)
);
}
);
};
guides = (
{
angle = 120;
pos = (545,0);
}
);
layerId = "2D8F7115-C311-411E-929D-56333CF7FFB2";
shapes = (
{
closed = 1;
nodes = (
(695,486,ls),
(1037,486,o),
(1287,700,o),
(1287,1011,cs),
(1287,1306,o),
(1061,1474,o),
(762,1474,cs),
(582,1474,l),
(514,1146,l),
(742,1146,ls),
(838,1146,o),
(912,1095,o),
(912,985,cs),
(912,874,o),
(836,784,o),
(713,784,cs),
(463,784,l),
(403,486,l)
);
},
{
closed = 1;
nodes = (
(408,0,l),
(703,1474,l),
(327,1474,l),
(33,0,l)
);
},
{
closed = 1;
nodes = (
(1221,0,l),
(880,738,l),
(588,538,l),
(825,0,l)
);
}
);
width = 1376;
},
{
anchors = (
{
name = bottom;
pos = (539,0);
},
{
name = top;
pos = (760,1474);
}
);
background = {
shapes = (
{
closed = 1;
nodes = (
(250,0,l),
(546,1474,l),
(362,1474,l),
(66,0,l)
);
},
{
closed = 1;
nodes = (
(1067,0,l),
(726,726,l),
(580,622,l),
(873,0,l)
);
},
{
closed = 1;
nodes = (
(644,596,ls),
(930,596,o),
(1124,750,o),
(1166,992,cs),
(1216,1282,o),
(1022,1474,o),
(746,1474,cs),
(488,1474,l),
(452,1310,l),
(736,1310,ls),
(896,1310,o),
(1021,1204,o),
(992,1016,cs),
(968,862,o),
(852,748,o),
(660,748,cs),
(346,748,l),
(318,596,l)
);
}
);
};
layerId = "8CC1EFAB-F3CB-44D1-8974-978FC52DD9AB";
shapes = (
{
closed = 1;
nodes = (
(644,596,ls),
(953,596,o),
(1174,789,o),
(1174,1071,cs),
(1174,1326,o),
(993,1474,o),
(746,1474,cs),
(488,1474,l),
(452,1310,l),
(736,1310,ls),
(880,1310,o),
(996,1227,o),
(996,1062,cs),
(996,883,o),
(861,748,o),
(660,748,cs),
(346,748,l),
(318,596,l)
);
},
{
closed = 1;
nodes = (
(250,0,l),
(546,1474,l),
(362,1474,l),
(66,0,l)
);
},
{
closed = 1;
nodes = (
(1067,0,l),
(726,726,l),
(580,622,l),
(873,0,l)
);
}
);
width = 1256;
}
);
metricLeft = H;
unicode = 82;
},
{
color = 6;
glyphname = S;
kernLeft = LAT_S_UC;
kernRight = LAT_S_UC;
lastChange = "2023-11-22 11:34:34 +0000";
layers = (
{
anchors = (
{
name = bottom;
pos = (508,0);
},
{
name = top;
pos = (770,1474);
}
);
background = {
shapes = (
{
closed = 1;
nodes = (
(853,-16,o),
(1046,134,o),
(1088,381,cs),
(1124,590,o),
(1030,746,o),
(822,854,cs),
(719,907,o),
(577,959,o),
(582,1056,cs),
(585,1113,o),
(635,1154,o),
(707,1154,cs),
(795,1154,o),
(848,1094,o),
(860,1024,c),
(1218,1170,l),
(1182,1346,o),
(994,1490,o),
(728,1490,cs),
(498,1490,o),
(284,1382,o),
(224,1140,cs),
(176,944,o),
(252,764,o),
(498,636,cs),
(596,586,o),
(736,538,o),
(724,432,cs),
(718,368,o),
(666,320,o),
(594,320,cs),
(498,320,o),
(426,404,o),
(408,502,c),
(34,348,l),
(82,142,o),
(286,-16,o),
(574,-16,cs)
);
}
);
};
guides = (
{
angle = 22.5;
pos = (322,458);
}
);
layerId = "2D8F7115-C311-411E-929D-56333CF7FFB2";
shapes = (
{
closed = 1;
nodes = (
(878,-16,o),
(1096,175,o),
(1096,455,cs),
(1096,884,o),
(582,856,o),
(582,1050,cs),
(582,1111,o),
(633,1154,o),
(707,1154,cs),
(795,1154,o),
(848,1094,o),
(860,1024,c),
(1218,1170,l),
(1182,1346,o),
(993,1490,o),
(730,1490,cs),
(437,1490,o),
(210,1312,o),
(210,1034,cs),
(210,616,o),
(725,643,o),
(725,441,cs),
(725,375,o),
(671,320,o),
(594,320,cs),
(498,320,o),
(426,404,o),
(408,502,c),
(34,348,l),
(79,149,o),
(282,-16,o),
(569,-16,cs)
);
}
);
userData = {
RMXScaler = {
height = 137;
weight = 160;
width = 140;
};
};
width = 1196;
},
{
anchors = (
{
name = bottom;
pos = (465,0);
},
{
name = top;
pos = (728,1474);
}
);
background = {
shapes = (
{
closed = 1;
nodes = (
(696,-16,o),
(860,128,o),
(902,338,cs),
(950,576,o),
(783,686,o),
(583,806,cs),
(447,886,o),
(323,965,o),
(351,1147,cs),
(379,1317,o),
(513,1430,o),
(691,1430,cs),
(865,1430,o),
(940,1324,o),
(966,1234,c),
(1026,1258,l),
(998,1372,o),
(890,1490,o),
(692,1490,cs),
(494,1490,o),
(328,1374,o),
(290,1172,cs),
(244,936,o),
(423,831,o),
(557,751,cs),
(741,641,o),
(880,554,o),
(838,346,cs),
(802,160,o),
(642,44,o),
(474,44,cs),
(306,44,o),
(164,158,o),
(146,298,c),
(78,270,l),
(108,132,o),
(250,-16,o),
(474,-16,cs)
);
}
);
};
layerId = "AB099EFE-E788-4EFC-8633-CF147CB782A6";
shapes = (
{
closed = 1;
nodes = (
(721,-16,o),
(910,179,o),
(910,405,cs),
(910,795,o),
(347,771,o),
(347,1108,cs),
(347,1279,o),
(492,1430,o),
(694,1430,cs),
(867,1430,o),
(942,1319,o),
(966,1234,c),
(1026,1258,l),
(998,1372,o),
(890,1490,o),
(693,1490,cs),
(459,1490,o),
(283,1322,o),
(283,1109,cs),
(283,729,o),
(846,762,o),
(846,410,cs),
(846,220,o),
(683,44,o),
(474,44,cs),
(306,44,o),
(164,158,o),
(146,298,c),
(78,270,l),
(107,133,o),
(252,-16,o),
(471,-16,cs)
);
}
);
userData = {
RMXScaler = {
height = 139;
width = 140;
};
};
width = 1068;
},
{
anchors = (
{
name = bottom;
pos = (444,0);
},
{
name = top;
pos = (739,1474);
}
);
background = {
shapes = (
{
closed = 1;
nodes = (
(728,-16,o),
(922,118,o),
(968,362,cs),
(1028,678,o),
(736,794,o),
(644,836,cs),
(526,890,o),
(397,973,o),
(432,1130,cs),
(458,1246,o),
(548,1326,o),
(680,1326,cs),
(818,1326,o),
(902,1236,o),
(922,1164,c),
(1088,1226,l),
(1054,1372,o),
(900,1490,o),
(688,1490,cs),
(472,1490,o),
(310,1378,o),
(262,1178,cs),
(211,967,o),
(328,798,o),
(556,692,cs),
(644,652,o),
(826,578,o),
(792,382,cs),
(766,234,o),
(644,148,o),
(512,148,cs),
(370,148,o),
(242,258,o),
(228,380,c),
(52,318,l),
(76,152,o),
(258,-16,o),
(500,-16,cs)
);
}
);
};
layerId = "8CC1EFAB-F3CB-44D1-8974-978FC52DD9AB";
shapes = (
{
closed = 1;
nodes = (
(771,-16,o),
(976,183,o),
(976,439,cs),
(976,859,o),
(426,780,o),
(426,1083,cs),
(426,1216,o),
(532,1326,o),
(682,1326,cs),
(817,1326,o),
(902,1236,o),
(922,1164,c),
(1088,1226,l),
(1054,1372,o),
(900,1490,o),
(688,1490,cs),
(436,1490,o),
(250,1324,o),
(250,1086,cs),
(250,677,o),
(796,719,o),
(796,421,cs),
(796,280,o),
(675,148,o),
(515,148,cs),
(370,148,o),
(243,256,o),
(228,380,c),
(52,318,l),
(77,150,o),
(258,-16,o),
(503,-16,cs)
);
}
);
width = 1102;
},
{
anchors = (
{
name = bottom;
pos = (452,0);
},
{
name = top;
pos = (735,1474);
}
);
associatedMasterId = "AB099EFE-E788-4EFC-8633-CF147CB782A6";
attr = {
coordinates = (
68
);
};
layerId = "10A582B9-86DA-4CCD-86E3-E700719D73B0";
name = "{68}";
shapes = (
{
closed = 1;
nodes = (
(753,-16,o),
(952,182,o),
(952,427,cs),
(952,836,o),
(398,777,o),
(398,1092,cs),
(398,1239,o),
(518,1363,o),
(686,1363,cs),
(835,1363,o),
(916,1266,o),
(938,1189,c),
(1066,1237,l),
(1034,1372,o),
(896,1490,o),
(690,1490,cs),
(444,1490,o),
(262,1323,o),
(262,1094,cs),
(262,696,o),
(814,734,o),
(814,417,cs),
(814,259,o),
(678,111,o),
(500,111,cs),
(347,111,o),
(215,221,o),
(199,351,c),
(61,301,l),
(88,144,o),
(256,-16,o),
(492,-16,cs)
);
}
);
width = 1090;
},
{
anchors = (
{
name = bottom;
pos = (480,0);
},
{
name = top;
pos = (757,1474);
}
);
associatedMasterId = "8CC1EFAB-F3CB-44D1-8974-978FC52DD9AB";
attr = {
coordinates = (
140
);
};
background = {
shapes = (
{
closed = 1;
nodes = (
(728,-16,o),
(922,118,o),
(968,362,cs),
(1028,678,o),
(736,794,o),
(644,836,cs),
(526,890,o),
(397,973,o),
(432,1130,cs),
(458,1246,o),
(548,1326,o),
(680,1326,cs),
(818,1326,o),
(902,1236,o),
(922,1164,c),
(1088,1226,l),
(1054,1372,o),
(900,1490,o),
(688,1490,cs),
(472,1490,o),
(310,1378,o),
(262,1178,cs),
(211,967,o),
(328,798,o),
(556,692,cs),
(644,652,o),
(826,578,o),
(792,382,cs),
(766,234,o),
(644,148,o),
(512,148,cs),
(370,148,o),
(242,258,o),
(228,380,c),
(52,318,l),
(76,152,o),
(258,-16,o),
(500,-16,cs)
);
}
);
};
layerId = "C7803EA9-7C23-4E71-99C2-BBC3C47817E2";
name = "22. Nov 23 at 12:22";
shapes = (
{
closed = 1;
nodes = (
(831,-16,o),
(1044,177,o),
(1044,445,cs),
(1044,868,o),
(516,823,o),
(516,1068,cs),
(516,1160,o),
(590,1230,o),
(696,1230,cs),
(804,1230,o),
(871,1156,o),
(887,1085,c),
(1161,1194,l),
(1126,1357,o),
(952,1490,o),
(711,1490,cs),
(436,1490,o),
(229,1318,o),
(229,1057,cs),
(229,641,o),
(757,690,o),
(757,435,cs),
(757,330,o),
(670,244,o),
(560,244,cs),
(442,244,o),
(346,341,o),
(330,449,c),
(44,335,l),
(81,147,o),
(278,-16,o),
(543,-16,cs)
);
}
);
width = 1155;
}
);
unicode = 83;
userData = {
RMXScaler = {
source = s;
};
};
},
{
color = 6;
glyphname = Germandbls;
kernLeft = LAT_GERMANDBLS_UC;
kernRight = LAT_GERMANDBLS_UC;
lastChange = "2023-11-22 11:34:34 +0000";
layers = (
{
layerId = "AB099EFE-E788-4EFC-8633-CF147CB782A6";
shapes = (
{
closed = 1;
nodes = (
(895,-15,o),
(1163,241,o),
(1163,529,cs),
(1163,767,o),
(981,906,o),
(731,892,c),
(757,860,l),
(1101,1414,l),
(1101,1430,l),
(993,1474,o),
(868,1490,o),
(767,1490,cs),
(382,1490,o),
(337,1259,o),
(311,1130,cs),
(86,0,l),
(151,0,l),
(375,1126,ls),
(405,1277,o),
(460,1432,o),
(780,1432,cs),
(886,1432,o),
(967,1414,o),
(1035,1386,c),
(1033,1418,l),
(697,864,l),
(691,838,l),
(727,838,ls),
(957,838,o),
(1102,729,o),
(1102,537,cs),
(1102,290,o),
(860,44,o),
(617,44,cs),
(555,44,o),
(471,60,o),
(403,76,c),
(393,12,l),
(461,-5,o),
(533,-15,o),
(593,-15,cs)
);
}
);
width = 1290;
},
{
layerId = "2D8F7115-C311-411E-929D-56333CF7FFB2";
shapes = (
{
closed = 1;
nodes = (
(1104,-18,o),
(1375,200,o),
(1375,500,cs),
(1375,713,o),
(1239,844,o),
(1000,844,c),
(1116,704,l),
(1444,1338,l),
(1440,1368,l),
(1335,1432,o),
(1126,1490,o),
(900,1490,cs),
(527,1490,o),
(285,1331,o),
(226,1036,cs),
(18,0,l),
(393,0,l),
(586,958,ls),
(614,1096,o),
(725,1170,o),
(899,1170,cs),
(954,1170,o),
(997,1162,o),
(1024,1148,c),
(1016,1226,l),
(738,680,l),
(730,622,l),
(810,622,ls),
(819,622,o),
(1012,622,o),
(1012,469,cs),
(1012,361,o),
(917,293,o),
(762,293,cs),
(729,293,o),
(700,296,o),
(650,306,c),
(590,4,l),
(606,-2,o),
(676,-18,o),
(767,-18,cs)
);
}
);
width = 1441;
},
{
layerId = "8CC1EFAB-F3CB-44D1-8974-978FC52DD9AB";
shapes = (
{
closed = 1;
nodes = (
(976,-15,o),
(1240,222,o),
(1240,515,cs),
(1240,729,o),
(1100,883,o),
(830,874,c),
(890,800,l),
(1228,1384,l),
(1228,1406,l),
(1122,1458,o),
(962,1490,o),
(818,1490,cs),
(441,1490,o),
(310,1276,o),
(274,1096,cs),
(54,0,l),
(238,0,l),
(451,1062,ls),
(485,1232,o),
(613,1326,o),
(826,1326,cs),
(908,1326,o),
(971,1312,o),
(1023,1288,c),
(1019,1346,l),
(708,804,l),
(700,756,l),
(754,756,ls),
(908,756,o),
(1062,686,o),
(1062,506,cs),
(1062,311,o),
(882,149,o),
(666,149,cs),
(618,149,o),
(575,157,o),
(494,174,c),
(464,8,l),
(532,-9,o),
(595,-15,o),
(648,-15,cs)
);
}
);
width = 1346;
}
);
metricRight = B;
unicode = 7838;
},
{
color = 6;
glyphname = T;
kernLeft = LAT_T_UC;
kernRight = LAT_T_UC;
lastChange = "2023-11-22 11:34:34 +0000";
layers = (
{
anchors = (
{
name = bottom;
pos = (397,0);
},
{
name = cedilla;
pos = (397,0);
},
{
name = center;
pos = (545,736);
},
{
name = top;
pos = (692,1474);
}
);
layerId = "AB099EFE-E788-4EFC-8633-CF147CB782A6";
shapes = (
{
closed = 1;
nodes = (
(430,0,l),
(715,1432,l),
(650,1432,l),
(365,0,l)
);
},
{
closed = 1;
nodes = (
(1111,1414,l),
(1121,1474,l),
(259,1474,l),
(247,1414,l)
);
}
);
width = 1004;
},
{
anchors = (
{
name = bottom;
pos = (455,0);
},
{
name = cedilla;
pos = (455,0);
},
{
name = center;
pos = (586,671);
},
{
name = top;
pos = (752,1474);
}
);
layerId = "2D8F7115-C311-411E-929D-56333CF7FFB2";
shapes = (
{
closed = 1;
nodes = (
(645,0,l),
(881,1196,l),
(506,1196,l),
(270,0,l)
);
},
{
closed = 1;
nodes = (
(1202,1146,l),
(1268,1474,l),
(236,1474,l),
(170,1146,l)
);
}
);
width = 1130;
},
{
anchors = (
{
name = bottom;
pos = (416,0);
},
{
name = cedilla;
pos = (416,0);
},
{
name = center;
pos = (557,712);
},
{
name = top;
pos = (713,1474);
}
);
layerId = "8CC1EFAB-F3CB-44D1-8974-978FC52DD9AB";
shapes = (
{
closed = 1;
nodes = (
(509,0,l),
(776,1340,l),
(592,1340,l),
(326,0,l)
);
},
{
closed = 1;
nodes = (
(1143,1310,l),
(1175,1474,l),
(248,1474,l),
(216,1310,l)
);
}
);
width = 1048;
}
);
unicode = 84;
},
{
color = 6;
glyphname = U;
kernLeft = LAT_U_UC;
kernRight = LAT_U_UC;
lastChange = "2023-11-22 11:34:34 +0000";
layers = (
{
anchors = (
{
name = bottom;
pos = (585,0);
},
{
name = horn;
pos = (1289,1474);
},
{
name = ogonek;
pos = (720,0);
},
{
name = top;
pos = (861,1474);
}
);
layerId = "AB099EFE-E788-4EFC-8633-CF147CB782A6";
shapes = (
{
closed = 1;
nodes = (
(896,-16,o),
(1066,172,o),
(1126,470,cs),
(1328,1474,l),
(1263,1474,l),
(1066,496,ls),
(1008,208,o),
(840,44,o),
(604,44,cs),
(372,44,o),
(203,204,o),
(262,500,cs),
(457,1474,l),
(392,1474,l),
(196,492,ls),
(135,188,o),
(318,-16,o),
(612,-16,cs)
);
}
);
width = 1341;
},
{
anchors = (
{
name = bottom;
pos = (671,0);
},
{
name = horn;
pos = (1402,1474);
},
{
name = ogonek;
pos = (802,0);
},
{
name = top;
pos = (908,1474);
}
);
layerId = "2D8F7115-C311-411E-929D-56333CF7FFB2";
shapes = (
{
closed = 1;
nodes = (
(1014,-16,o),
(1244,198,o),
(1316,562,cs),
(1497,1474,l),
(1122,1474,l),
(942,570,ls),
(912,420,o),
(822,312,o),
(686,312,cs),
(558,312,o),
(488,400,o),
(515,536,cs),
(701,1474,l),
(326,1474,l),
(153,602,ls),
(80,238,o),
(306,-16,o),
(664,-16,cs)
);
}
);
width = 1452;
},
{
anchors = (
{
name = bottom;
pos = (610,0);
},
{
name = horn;
pos = (1323,1474);
},
{
name = ogonek;
pos = (743,0);
},
{
name = top;
pos = (870,1474);
}
);
layerId = "8CC1EFAB-F3CB-44D1-8974-978FC52DD9AB";
shapes = (
{
closed = 1;
nodes = (
(931,-16,o),
(1126,178,o),
(1191,506,cs),
(1383,1474,l),
(1200,1474,l),
(1011,524,ls),
(964,290,o),
(825,148,o),
(627,148,cs),
(435,148,o),
(304,280,o),
(351,514,cs),
(543,1474,l),
(359,1474,l),
(171,532,ls),
(106,206,o),
(305,-16,o),
(625,-16,cs)
);
}
);
width = 1368;
}
);
metricLeft = H;
metricRight = H;
unicode = 85;
},
{
color = 6;
glyphname = V;
kernLeft = LAT_V_UC;
kernRight = LAT_V_UC;
lastChange = "2023-11-22 11:34:34 +0000";
layers = (
{
anchors = (
{
name = bottom;
pos = (572,0);
},
{
name = top;
pos = (861,1474);
}
);
layerId = "AB099EFE-E788-4EFC-8633-CF147CB782A6";
shapes = (
{
closed = 1;
nodes = (
(596,0,l),
(1480,1474,l),
(1404,1474,l),
(888,600,l),
(586,88,l),
(578,88,l),
(484,600,l),
(317,1474,l),
(252,1474,l),
(542,0,l)
);
}
);
width = 1354;
},
{
anchors = (
{
name = bottom;
pos = (635,0);
},
{
name = top;
pos = (928,1474);
}
);
layerId = "2D8F7115-C311-411E-929D-56333CF7FFB2";
shapes = (
{
closed = 1;
nodes = (
(800,0,l),
(1670,1474,l),
(1240,1474,l),
(926,898,l),
(724,496,l),
(724,496,l),
(666,898,l),
(580,1474,l),
(186,1474,l),
(480,0,l)
);
}
);
width = 1484;
},
{
anchors = (
{
name = bottom;
pos = (590,0);
},
{
name = top;
pos = (879,1474);
}
);
layerId = "8CC1EFAB-F3CB-44D1-8974-978FC52DD9AB";
shapes = (
{
closed = 1;
nodes = (
(660,0,l),
(1550,1474,l),
(1348,1474,l),
(910,714,l),
(642,258,l),
(634,258,l),
(542,714,l),
(402,1474,l),
(214,1474,l),
(518,0,l)
);
}
);
width = 1392;
}
);
unicode = 86;
},
{
color = 6;
glyphname = W;
kernLeft = LAT_W_UC;
kernRight = LAT_W_UC;
lastChange = "2023-11-22 11:34:34 +0000";
layers = (
{
anchors = (
{
name = bottom;
pos = (810,0);
},
{
name = top;
pos = (1091,1474);
}
);
layerId = "AB099EFE-E788-4EFC-8633-CF147CB782A6";
shapes = (
{
closed = 1;
nodes = (
(454,0,l),
(1044,1243,l),
(1054,1243,l),
(1200,0,l),
(1280,0,l),
(1962,1474,l),
(1892,1474,l),
(1338,268,l),
(1256,72,l),
(1248,72,l),
(1094,1378,l),
(1044,1378,l),
(428,72,l),
(420,72,l),
(406,268,l),
(316,1474,l),
(252,1474,l),
(374,0,l)
);
}
);
width = 1838;
},
{
anchors = (
{
name = bottom;
pos = (918,0);
},
{
name = top;
pos = (1214,1474);
}
);
layerId = "2D8F7115-C311-411E-929D-56333CF7FFB2";
shapes = (
{
closed = 1;
nodes = (
(656,0,l),
(1044,638,l),
(1052,638,l),
(1246,0,l),
(1540,0,l),
(2234,1474,l),
(1834,1474,l),
(1572,882,l),
(1418,512,l),
(1410,512,l),
(1220,1306,l),
(1072,1306,l),
(640,512,l),
(632,512,l),
(610,882,l),
(568,1474,l),
(196,1474,l),
(356,0,l)
);
}
);
width = 2056;
},
{
anchors = (
{
name = bottom;
pos = (831,0);
},
{
name = top;
pos = (1116,1474);
}
);
layerId = "8CC1EFAB-F3CB-44D1-8974-978FC52DD9AB";
shapes = (
{
closed = 1;
nodes = (
(536,0,l),
(1012,914,l),
(1020,914,l),
(1176,0,l),
(1338,0,l),
(2038,1474,l),
(1848,1474,l),
(1454,612,l),
(1292,248,l),
(1284,248,l),
(1120,1320,l),
(1048,1320,l),
(508,248,l),
(500,248,l),
(470,612,l),
(400,1474,l),
(220,1474,l),
(376,0,l)
);
}
);
width = 1882;
}
);
unicode = 87;
},
{
color = 6;
glyphname = W.ss03;
kernLeft = LAT_W_UC;
kernRight = LAT_W_UC;
lastChange = "2023-11-22 11:34:34 +0000";
layers = (
{
anchors = (
{
name = bottom;
pos = (794,-49);
},
{
name = top;
pos = (1107,1545);
}
);
layerId = "AB099EFE-E788-4EFC-8633-CF147CB782A6";
shapes = (
{
closed = 1;
nodes = (
(426,0,l),
(710,600,l),
(1061,1352,l),
(1069,1352,l),
(1116,600,l),
(1163,0,l),
(1237,0,l),
(1927,1474,l),
(1862,1474,l),
(1457,592,l),
(1221,79,l),
(1212,79,l),
(1180,592,l),
(1116,1474,l),
(1063,1474,l),
(646,592,l),
(404,79,l),
(395,79,l),
(369,592,l),
(317,1474,l),
(250,1474,l),
(346,0,l)
);
}
);
width = 1800;
},
{
anchors = (
{
name = bottom;
pos = (860,-49);
},
{
name = top;
pos = (1169,1524);
}
);
layerId = "2D8F7115-C311-411E-929D-56333CF7FFB2";
shapes = (
{
closed = 1;
nodes = (
(606,0,l),
(870,483,l),
(1040,811,l),
(1032,811,l),
(1071,483,l),
(1141,0,l),
(1501,0,l),
(2136,1474,l),
(1722,1474,l),
(1501,885,l),
(1378,492,l),
(1374,492,l),
(1343,811,l),
(1264,1474,l),
(1044,1474,l),
(698,815,l),
(549,492,l),
(555,492,l),
(567,885,l),
(588,1474,l),
(199,1474,l),
(236,0,l)
);
}
);
width = 1962;
},
{
anchors = (
{
name = bottom;
pos = (848,-12);
},
{
name = top;
pos = (1149,1491);
}
);
layerId = "8CC1EFAB-F3CB-44D1-8974-978FC52DD9AB";
shapes = (
{
closed = 1;
nodes = (
(528,0,l),
(766,477,l),
(1067,1094,l),
(1075,1094,l),
(1130,477,l),
(1176,0,l),
(1343,0,l),
(2044,1474,l),
(1864,1474,l),
(1501,686,l),
(1317,274,l),
(1309,274,l),
(1270,709,l),
(1198,1474,l),
(1094,1474,l),
(711,709,l),
(502,274,l),
(494,274,l),
(477,686,l),
(428,1474,l),
(246,1474,l),
(360,0,l)
);
}
);
width = 1878;
}
);
},
{
color = 6;
glyphname = X;
kernLeft = LAT_X_UC;
kernRight = LAT_X_UC;
lastChange = "2023-11-22 11:34:34 +0000";
layers = (
{
anchors = (
{
name = bottom;
pos = (519,0);
},
{
name = top;
pos = (816,1474);
}
);
layerId = "AB099EFE-E788-4EFC-8633-CF147CB782A6";
shapes = (
{
closed = 1;
nodes = (
(1046,0,l),
(714,732,l),
(714,740,l),
(684,790,l),
(676,790,l),
(342,1474,l),
(276,1474,l),
(632,750,l),
(632,742,l),
(660,696,l),
(670,696,l),
(980,0,l)
);
},
{
closed = 1;
nodes = (
(76,0,l),
(666,696,l),
(674,696,l),
(714,730,l),
(714,736,l),
(1328,1474,l),
(1252,1474,l),
(680,790,l),
(672,790,l),
(632,754,l),
(632,744,l),
(-6,0,l)
);
}
);
width = 1246;
},
{
anchors = (
{
name = bottom;
pos = (645,0);
},
{
name = top;
pos = (942,1474);
}
);
layerId = "2D8F7115-C311-411E-929D-56333CF7FFB2";
shapes = (
{
closed = 1;
nodes = (
(1358,0,l),
(1040,706,l),
(1040,710,l),
(844,974,l),
(836,974,l),
(640,1474,l),
(234,1474,l),
(548,768,l),
(548,764,l),
(754,466,l),
(760,466,l),
(952,0,l)
);
},
{
closed = 1;
nodes = (
(404,0,l),
(756,466,l),
(762,466,l),
(1040,712,l),
(1040,714,l),
(1640,1474,l),
(1182,1474,l),
(832,974,l),
(826,974,l),
(548,764,l),
(548,760,l),
(-76,0,l)
);
}
);
width = 1500;
},
{
anchors = (
{
name = bottom;
pos = (563,0);
},
{
name = top;
pos = (860,1474);
}
);
layerId = "8CC1EFAB-F3CB-44D1-8974-978FC52DD9AB";
shapes = (
{
closed = 1;
nodes = (
(1162,0,l),
(836,722,l),
(836,728,l),
(742,860,l),
(734,860,l),
(454,1474,l),
(256,1474,l),
(596,756,l),
(596,750,l),
(692,608,l),
(700,608,l),
(966,0,l)
);
},
{
closed = 1;
nodes = (
(198,0,l),
(696,608,l),
(702,608,l),
(836,724,l),
(836,728,l),
(1444,1474,l),
(1222,1474,l),
(736,860,l),
(728,860,l),
(596,758,l),
(596,752,l),
(-38,0,l)
);
}
);
width = 1336;
}
);
unicode = 88;
},
{
color = 6;
glyphname = Y;
kernLeft = LAT_Y_UC;
kernRight = LAT_Y_UC;
lastChange = "2023-11-22 11:34:34 +0000";
layers = (
{
anchors = (
{
name = bottom;
pos = (486,0);
},
{
name = top;
pos = (779,1474);
}
);
layerId = "AB099EFE-E788-4EFC-8633-CF147CB782A6";
shapes = (
{
closed = 1;
nodes = (
(518,0,l),
(656,676,l),
(1308,1474,l),
(1230,1474,l),
(878,1042,l),
(638,750,l),
(630,750,l),
(503,1042,l),
(317,1474,l),
(252,1474,l),
(592,684,l),
(454,0,l)
);
}
);
width = 1182;
},
{
anchors = (
{
name = bottom;
pos = (565,0);
},
{
name = top;
pos = (834,1474);
}
);
layerId = "2D8F7115-C311-411E-929D-56333CF7FFB2";
shapes = (
{
closed = 1;
nodes = (
(753,0,l),
(859,538,l),
(1538,1474,l),
(1072,1474,l),
(914,1200,l),
(734,906,l),
(730,906,l),
(658,1200,l),
(580,1474,l),
(186,1474,l),
(488,556,l),
(378,0,l)
);
}
);
width = 1352;
},
{
anchors = (
{
name = bottom;
pos = (514,0);
},
{
name = top;
pos = (797,1474);
}
);
layerId = "8CC1EFAB-F3CB-44D1-8974-978FC52DD9AB";
shapes = (
{
closed = 1;
nodes = (
(604,0,l),
(731,624,l),
(1394,1474,l),
(1166,1474,l),
(890,1104,l),
(672,810,l),
(664,810,l),
(558,1104,l),
(414,1474,l),
(224,1474,l),
(550,636,l),
(420,0,l)
);
}
);
width = 1240;
}
);
unicode = 89;
},
{
color = 6;
glyphname = Z;
kernLeft = LAT_Z_UC;
kernRight = LAT_Z_UC;
lastChange = "2023-11-22 11:34:34 +0000";
layers = (
{
anchors = (
{
name = bottom;
pos = (530,0);
},
{
name = top;
pos = (819,1474);
}
);
layerId = "AB099EFE-E788-4EFC-8633-CF147CB782A6";
shapes = (
{
closed = 1;
nodes = (
(966,0,l),
(978,60,l),
(136,60,l),
(136,64,l),
(1226,1438,l),
(1234,1474,l),
(358,1474,l),
(346,1414,l),
(1126,1414,l),
(1126,1410,l),
(40,40,l),
(34,0,l)
);
}
);
width = 1208;
},
{
anchors = (
{
name = bottom;
pos = (508,0);
},
{
name = top;
pos = (805,1474);
}
);
guides = (
{
angle = 63;
pos = (121,112);
}
);
layerId = "2D8F7115-C311-411E-929D-56333CF7FFB2";
shapes = (
{
closed = 1;
nodes = (
(1068,0,l),
(1133,324,l),
(575,324,l),
(575,332,l),
(1328,1420,l),
(1340,1474,l),
(284,1474,l),
(219,1150,l),
(719,1150,l),
(719,1142,l),
(-34,50,l),
(-44,0,l)
);
}
);
width = 1238;
},
{
anchors = (
{
name = bottom;
pos = (518,0);
},
{
name = top;
pos = (809,1474);
}
);
layerId = "8CC1EFAB-F3CB-44D1-8974-978FC52DD9AB";
shapes = (
{
closed = 1;
nodes = (
(1000,0,l),
(1032,160,l),
(302,160,l),
(302,164,l),
(1262,1432,l),
(1270,1474,l),
(328,1474,l),
(296,1314,l),
(965,1314,l),
(965,1310,l),
(8,44,l),
(0,0,l)
);
}
);
width = 1212;
}
);
unicode = 90;
},
{
color = 6;
glyphname = a;
kernLeft = LAT_O_LC;
kernRight = LAT_A_LC;
lastChange = "2023-11-22 11:34:34 +0000";
layers = (
{
anchors = (
{
name = bottom;
pos = (467,0);
},
{
name = ogonek;
pos = (899,-16);
},
{
name = top;
pos = (676,1048);
},
{
name = topright;
pos = (1200,1048);
}
);
background = {
shapes = (
{
closed = 1;
nodes = (
(602,-16,o),
(736,54,o),
(828,200,c),
(808,178,l),
(820,178,l),
(818,194,l),
(802,86,o),
(832,24,o),
(900,-16,c),
(924,40,l),
(864,68,o),
(866,138,o),
(884,228,cs),
(1048,1048,l),
(986,1048,l),
(934,780,l),
(968,802,l),
(906,802,l),
(938,780,l),
(912,950,o),
(790,1064,o),
(616,1064,cs),
(358,1064,o),
(160,836,o),
(114,528,cs),
(68,214,o),
(206,-16,o),
(464,-16,cs)
);
},
{
closed = 1;
nodes = (
(252,40,o),
(134,236,o),
(172,512,cs),
(206,770,o),
(378,1008,o),
(612,1008,cs),
(820,1008,o),
(932,830,o),
(884,520,cs),
(840,230,o),
(680,40,o),
(464,40,cs)
);
}
);
};
layerId = "AB099EFE-E788-4EFC-8633-CF147CB782A6";
shapes = (
{
closed = 1;
nodes = (
(603,-16,o),
(736,54,o),
(828,200,c),
(808,178,l),
(820,178,l),
(818,194,l),
(804,100,o),
(823,29,o),
(900,-16,c),
(924,40,l),
(865,68,o),
(866,136,o),
(884,228,cs),
(1048,1048,l),
(986,1048,l),
(934,780,l),
(968,802,l),
(906,802,l),
(938,780,l),
(912,948,o),
(794,1064,o),
(613,1064,cs),
(309,1064,o),
(105,738,o),
(105,418,cs),
(105,158,o),
(239,-16,o),
(462,-16,cs)
);
},
{
closed = 1;
nodes = (
(278,40,o),
(165,187,o),
(165,416,cs),
(165,706,o),
(347,1008,o),
(616,1008,cs),
(788,1008,o),
(895,884,o),
(895,644,cs),
(895,358,o),
(743,40,o),
(466,40,cs)
);
}
);
width = 1118;
},
{
anchors = (
{
name = bottom;
pos = (509,0);
},
{
name = ogonek;
pos = (1015,-16);
},
{
name = top;
pos = (726,1080);
},
{
name = topright;
pos = (1220,1080);
}
);
background = {
shapes = (
{
closed = 1;
nodes = (
(602,-16,o),
(726,70,o),
(816,214,c),
(580,124,l),
(908,124,l),
(730,214,l),
(726,106,o),
(858,14,o),
(1016,-16,c),
(1136,272,l),
(1098,282,o),
(1067,306,o),
(1082,380,cs),
(1224,1080,l),
(894,1080,l),
(842,816,l),
(1010,942,l),
(680,942,l),
(894,884,l),
(838,1016,o),
(726,1096,o),
(580,1096,cs),
(384,1096,o),
(126,952,o),
(64,574,cs),
(4,210,o),
(184,-16,o),
(442,-16,cs)
);
},
{
closed = 1;
nodes = (
(442,280,o),
(376,372,o),
(397,527,cs),
(418,681,o),
(510,802,o),
(642,802,cs),
(760,802,o),
(810,704,o),
(798,572,cs),
(786,441,o),
(715,280,o),
(560,280,cs)
);
}
);
};
layerId = "2D8F7115-C311-411E-929D-56333CF7FFB2";
shapes = (
{
closed = 1;
nodes = (
(602,-16,o),
(726,70,o),
(816,214,c),
(580,124,l),
(908,124,l),
(730,214,l),
(726,106,o),
(858,14,o),
(1016,-16,c),
(1136,272,l),
(1084,286,o),
(1070,320,o),
(1082,380,cs),
(1224,1080,l),
(894,1080,l),
(842,816,l),
(1010,942,l),
(680,942,l),
(894,884,l),
(837,1016,o),
(730,1096,o),
(574,1096,cs),
(262,1096,o),
(53,777,o),
(53,448,cs),
(53,155,o),
(218,-16,o),
(442,-16,cs)
);
},
{
closed = 1;
nodes = (
(462,280,o),
(394,358,o),
(394,492,cs),
(394,658,o),
(498,802,o),
(635,802,cs),
(733,802,o),
(800,727,o),
(800,591,cs),
(800,424,o),
(698,280,o),
(561,280,cs)
);
}
);
width = 1248;
},
{
anchors = (
{
name = bottom;
pos = (479,0);
},
{
name = ogonek;
pos = (932,-16);
},
{
name = top;
pos = (684,1060);
},
{
name = topright;
pos = (1233,1060);
}
);
background = {
shapes = (
{
closed = 1;
nodes = (
(611,-16,o),
(743,60,o),
(837,222,c),
(717,146,l),
(865,146,l),
(795,176,l),
(781,102,o),
(825,18,o),
(937,-16,c),
(999,140,l),
(938,164,o),
(944,217,o),
(961,298,cs),
(1113,1060,l),
(946,1060,l),
(902,848,l),
(981,890,l),
(855,890,l),
(909,878,l),
(869,998,o),
(749,1076,o),
(599,1076,cs),
(347,1076,o),
(147,858,o),
(95,554,cs),
(38,223,o),
(194,-16,o),
(461,-16,cs)
);
},
{
closed = 1;
nodes = (
(315,144,o),
(234,296,o),
(268,520,cs),
(304,757,o),
(442,916,o),
(626,916,cs),
(806,916,o),
(890,763,o),
(847,538,cs),
(803,308,o),
(659,144,o),
(484,144,cs)
);
}
);
};
layerId = "8CC1EFAB-F3CB-44D1-8974-978FC52DD9AB";
shapes = (
{
closed = 1;
nodes = (
(611,-16,o),
(743,60,o),
(837,222,c),
(717,146,l),
(865,146,l),
(795,176,l),
(779,89,o),
(839,14,o),
(937,-16,c),
(999,140,l),
(938,164,o),
(944,216,o),
(961,298,cs),
(1113,1060,l),
(946,1060,l),
(902,848,l),
(981,890,l),
(855,890,l),
(909,878,l),
(869,998,o),
(749,1076,o),
(599,1076,cs),
(290,1076,o),
(83,752,o),
(83,422,cs),
(83,161,o),
(231,-16,o),
(461,-16,cs)
);
},
{
closed = 1;
nodes = (
(340,144,o),
(260,254,o),
(260,424,cs),
(260,669,o),
(396,916,o),
(626,916,cs),
(775,916,o),
(858,811,o),
(858,648,cs),
(858,410,o),
(708,144,o),
(484,144,cs)
);
}
);
width = 1169;
}
);
metricLeft = o;
metricRight = u;
unicode = 97;
},
{
color = 6;
glyphname = a.ss01;
kernLeft = LAT_O_LC;
kernRight = LAT_ASS01_LC;
lastChange = "2023-11-22 11:34:34 +0000";
layers = (
{
anchors = (
{
name = bottom;
pos = (486,0);
},
{
name = ogonek;
pos = (919,0);
},
{
name = top;
pos = (695,1048);
}
);
layerId = "AB099EFE-E788-4EFC-8633-CF147CB782A6";
shapes = (
{
closed = 1;
nodes = (
(807,-16,o),
(1034,339,o),
(1034,649,cs),
(1034,906,o),
(878,1064,o),
(651,1064,cs),
(332,1064,o),
(107,754,o),
(107,437,cs),
(107,169,o),
(267,-16,o),
(493,-16,cs)
);
},
{
closed = 1;
nodes = (
(294,40,o),
(167,204,o),
(167,434,cs),
(167,719,o),
(361,1008,o),
(651,1008,cs),
(841,1008,o),
(980,883,o),
(980,644,cs),
(980,357,o),
(779,40,o),
(497,40,cs)
);
},
{
closed = 1;
nodes = (
(920,0,l),
(1128,1048,l),
(1067,1048,l),
(1018,798,l),
(998,798,l),
(1016,762,l),
(916,276,l),
(882,227,l),
(904,227,l),
(859,0,l)
);
}
);
width = 1188;
},
{
anchors = (
{
name = bottom;
pos = (496,0);
},
{
name = ogonek;
pos = (1077,0);
},
{
name = top;
pos = (709,1080);
}
);
layerId = "2D8F7115-C311-411E-929D-56333CF7FFB2";
shapes = (
{
closed = 1;
nodes = (
(778,-16,o),
(986,347,o),
(986,671,cs),
(986,928,o),
(856,1096,o),
(605,1096,cs),
(276,1096,o),
(58,806,o),
(58,480,cs),
(58,207,o),
(211,-16,o),
(460,-16,cs)
);
},
{
closed = 1;
nodes = (
(463,280,o),
(394,379,o),
(394,500,cs),
(394,650,o),
(501,794,o),
(655,794,cs),
(774,794,o),
(845,708,o),
(845,583,cs),
(845,433,o),
(742,280,o),
(587,280,cs)
);
},
{
closed = 1;
nodes = (
(1077,0,l),
(1293,1080,l),
(951,1080,l),
(925,946,l),
(877,946,l),
(917,854,l),
(781,174,l),
(725,130,l),
(787,130,l),
(761,0,l)
);
}
);
width = 1298;
},
{
anchors = (
{
name = bottom;
pos = (481,0);
},
{
name = ogonek;
pos = (997,0);
},
{
name = top;
pos = (688,1060);
}
);
layerId = "8CC1EFAB-F3CB-44D1-8974-978FC52DD9AB";
shapes = (
{
closed = 1;
nodes = (
(809,-16,o),
(1051,320,o),
(1051,647,cs),
(1051,908,o),
(896,1076,o),
(647,1076,cs),
(316,1076,o),
(87,780,o),
(87,452,cs),
(87,179,o),
(246,-16,o),
(489,-16,cs)
);
},
{
closed = 1;
nodes = (
(356,144,o),
(260,276,o),
(260,458,cs),
(260,694,o),
(422,920,o),
(660,920,cs),
(833,920,o),
(942,801,o),
(942,618,cs),
(942,384,o),
(765,144,o),
(530,144,cs)
);
},
{
closed = 1;
nodes = (
(998,0,l),
(1206,1060,l),
(1035,1060,l),
(1001,886,l),
(976,886,l),
(1000,816,l),
(888,246,l),
(836,160,l),
(866,160,l),
(834,0,l)
);
}
);
width = 1230;
}
);
metricLeft = o;
metricRight = "=n.ss01+4";
},
{
color = 6;
glyphname = ae;
kernLeft = LAT_ASS02_LC;
kernRight = LAT_E_LC;
lastChange = "2023-11-22 11:34:34 +0000";
layers = (
{
background = {
shapes = (
{
closed = 1;
nodes = (
(583,-16,o),
(725,54,o),
(822,226,c),
(782,188,l),
(816,188,l),
(802,224,l),
(800,118,o),
(800,74,o),
(804,0,c),
(864,0,l),
(858,122,o),
(854,240,o),
(880,364,c),
(1016,1048,l),
(955,1048,l),
(903,788,l),
(938,802,l),
(880,802,l),
(908,780,l),
(884,949,o),
(773,1064,o),
(597,1064,cs),
(352,1064,o),
(157,839,o),
(114,528,cs),
(70,214,o),
(206,-16,o),
(449,-16,cs)
);
},
{
closed = 1;
nodes = (
(246,40,o),
(135,240,o),
(172,511,cs),
(207,771,o),
(368,1008,o),
(597,1008,cs),
(803,1008,o),
(900,816,o),
(858,525,cs),
(816,232,o),
(661,40,o),
(456,40,cs)
);
},
{
closed = 1;
nodes = (
(1350,-16,o),
(1454,42,o),
(1526,102,c),
(1506,160,l),
(1422,88,o),
(1330,40,o),
(1214,40,cs),
(996,40,o),
(872,198,o),
(926,500,cs),
(976,779,o),
(1149,1008,o),
(1359,1008,cs),
(1547,1008,o),
(1658,823,o),
(1611,560,c),
(922,560,l),
(908,504,l),
(1655,504,l),
(1660,524,o),
(1662,533,o),
(1665,549,cs),
(1720,849,o),
(1594,1064,o),
(1363,1064,cs),
(1127,1064,o),
(910,841,o),
(868,489,cs),
(833,197,o),
(941,-16,o),
(1210,-16,cs)
);
}
);
};
layerId = "AB099EFE-E788-4EFC-8633-CF147CB782A6";
shapes = (
{
closed = 1;
nodes = (
(583,-16,o),
(725,54,o),
(822,226,c),
(782,188,l),
(816,188,l),
(802,224,l),
(801,151,o),
(801,59,o),
(804,0,c),
(864,0,l),
(857,136,o),
(857,254,o),
(880,364,c),
(1016,1048,l),
(955,1048,l),
(903,788,l),
(938,802,l),
(880,802,l),
(908,780,l),
(884,949,o),
(773,1064,o),
(597,1064,cs),
(302,1064,o),
(106,742,o),
(106,420,cs),
(106,158,o),
(236,-16,o),
(448,-16,cs)
);
},
{
closed = 1;
nodes = (
(273,40,o),
(165,191,o),
(165,416,cs),
(165,698,o),
(336,1008,o),
(598,1008,cs),
(771,1008,o),
(868,873,o),
(868,643,cs),
(868,362,o),
(723,40,o),
(456,40,cs)
);
},
{
closed = 1;
nodes = (
(1350,-16,o),
(1454,42,o),
(1526,102,c),
(1506,160,l),
(1422,88,o),
(1331,40,o),
(1212,40,cs),
(1030,40,o),
(913,151,o),
(913,375,cs),
(913,654,o),
(1095,1008,o),
(1362,1008,cs),
(1522,1008,o),
(1623,881,o),
(1623,680,cs),
(1623,640,o),
(1619,601,o),
(1612,560,c),
(922,560,l),
(908,504,l),
(1656,504,l),
(1670,560,o),
(1679,627,o),
(1679,690,cs),
(1679,921,o),
(1558,1064,o),
(1366,1064,cs),
(1125,1064,o),
(909,838,o),
(868,489,cs),
(834,201,o),
(938,-16,o),
(1210,-16,cs)
);
}
);
width = 1768;
},
{
background = {
shapes = (
{
closed = 1;
nodes = (
(535,-16,o),
(642,64,o),
(716,198,c),
(654,140,l),
(700,140,l),
(692,212,l),
(682,146,o),
(682,66,o),
(694,0,c),
(1010,0,l),
(986,96,o),
(990,196,o),
(1010,292,c),
(1156,1080,l),
(836,1080,l),
(782,818,l),
(966,942,l),
(648,942,l),
(856,884,l),
(800,1016,o),
(696,1096,o),
(552,1096,cs),
(349,1096,o),
(123,937,o),
(64,573,cs),
(6,220,o),
(154,-16,o),
(395,-16,cs)
);
},
{
closed = 1;
nodes = (
(423,280,o),
(377,375,o),
(396,518,cs),
(417,678,o),
(507,802,o),
(640,802,cs),
(755,802,o),
(812,708,o),
(796,570,cs),
(780,428,o),
(692,280,o),
(543,280,cs)
);
},
{
closed = 1;
nodes = (
(1502,-16,o),
(1620,6,o),
(1710,54,c),
(1608,316,l),
(1576,290,o),
(1462,258,o),
(1358,258,cs),
(1164,258,o),
(1121,368,o),
(1134,510,cs),
(1144,623,o),
(1193,818,o),
(1404,818,cs),
(1530,818,o),
(1599,749,o),
(1584,652,c),
(1126,652,l),
(1088,422,l),
(1830,422,l),
(1846,463,o),
(1859,503,o),
(1868,556,cs),
(1922,874,o),
(1725,1096,o),
(1463,1096,cs),
(1212,1096,o),
(953,891,o),
(902,552,cs),
(852,220,o),
(1037,-16,o),
(1393,-16,cs)
);
}
);
};
layerId = "2D8F7115-C311-411E-929D-56333CF7FFB2";
shapes = (
{
closed = 1;
nodes = (
(535,-16,o),
(642,64,o),
(716,198,c),
(654,140,l),
(700,140,l),
(692,212,l),
(682,151,o),
(683,62,o),
(694,0,c),
(1010,0,l),
(986,99,o),
(989,188,o),
(1010,292,c),
(1156,1080,l),
(836,1080,l),
(782,818,l),
(966,942,l),
(648,942,l),
(856,884,l),
(798,1019,o),
(696,1096,o),
(548,1096,cs),
(238,1096,o),
(52,757,o),
(52,433,cs),
(52,154,o),
(189,-16,o),
(394,-16,cs)
);
},
{
closed = 1;
nodes = (
(440,280,o),
(393,348,o),
(393,465,cs),
(393,626,o),
(483,802,o),
(641,802,cs),
(742,802,o),
(799,730,o),
(799,609,cs),
(799,448,o),
(698,280,o),
(540,280,cs)
);
},
{
closed = 1;
nodes = (
(1507,-16,o),
(1637,13,o),
(1710,54,c),
(1608,316,l),
(1580,295,o),
(1493,258,o),
(1396,258,cs),
(1264,258,o),
(1140,326,o),
(1140,509,cs),
(1140,656,o),
(1220,824,o),
(1418,824,cs),
(1525,824,o),
(1586,775,o),
(1586,689,cs),
(1586,670,o),
(1583,652,o),
(1580,638,c),
(1122,638,l),
(1088,426,l),
(1830,426,l),
(1859,499,o),
(1877,577,o),
(1877,659,cs),
(1877,921,o),
(1707,1096,o),
(1469,1096,cs),
(1152,1096,o),
(894,786,o),
(894,448,cs),
(894,173,o),
(1065,-16,o),
(1383,-16,cs)
);
}
);
width = 1918;
},
{
background = {
shapes = (
{
closed = 1;
nodes = (
(554,-16,o),
(692,36,o),
(782,198,c),
(734,150,l),
(772,150,l),
(760,202,l),
(756,126,o),
(750,66,o),
(756,0,c),
(926,0,l),
(914,112,o),
(916,224,o),
(938,336,c),
(1074,1060,l),
(902,1060,l),
(852,792,l),
(946,924,l),
(786,924,l),
(918,820,l),
(882,978,o),
(734,1076,o),
(576,1076,cs),
(348,1076,o),
(146,882,o),
(94,546,cs),
(44,216,o),
(176,-16,o),
(432,-16,cs)
);
},
{
closed = 1;
nodes = (
(308,132,o),
(235,296,o),
(263,512,cs),
(293,732,o),
(416,928,o),
(614,928,cs),
(788,928,o),
(872,774,o),
(838,536,cs),
(804,296,o),
(666,132,o),
(486,132,cs)
);
},
{
closed = 1;
nodes = (
(1404,-16,o),
(1532,30,o),
(1612,84,c),
(1562,236,l),
(1500,182,o),
(1376,140,o),
(1272,140,cs),
(1078,140,o),
(976,268,o),
(1010,502,cs),
(1042,720,o),
(1182,920,o),
(1376,920,cs),
(1522,920,o),
(1634,817,o),
(1598,605,c),
(1010,605,l),
(988,465,l),
(1738,465,l),
(1744,483,o),
(1755,532,o),
(1759,558,cs),
(1815,884,o),
(1622,1076,o),
(1392,1076,cs),
(1152,1076,o),
(920,858,o),
(872,516,cs),
(830,206,o),
(974,-16,o),
(1270,-16,cs)
);
}
);
};
layerId = "8CC1EFAB-F3CB-44D1-8974-978FC52DD9AB";
shapes = (
{
closed = 1;
nodes = (
(554,-16,o),
(692,36,o),
(782,198,c),
(734,150,l),
(772,150,l),
(760,202,l),
(751,118,o),
(750,65,o),
(756,0,c),
(926,0,l),
(914,110,o),
(917,231,o),
(938,336,c),
(1074,1060,l),
(902,1060,l),
(852,792,l),
(946,924,l),
(786,924,l),
(918,820,l),
(882,978,o),
(734,1076,o),
(576,1076,cs),
(272,1076,o),
(83,748,o),
(83,413,cs),
(83,155,o),
(212,-16,o),
(432,-16,cs)
);
},
{
closed = 1;
nodes = (
(333,132,o),
(256,254,o),
(256,426,cs),
(256,672,o),
(391,928,o),
(614,928,cs),
(803,928,o),
(869,751,o),
(838,536,cs),
(804,296,o),
(666,132,o),
(486,132,cs)
);
},
{
closed = 1;
nodes = (
(1404,-16,o),
(1532,30,o),
(1612,84,c),
(1562,236,l),
(1500,182,o),
(1376,140,o),
(1272,140,cs),
(1103,140,o),
(1004,237,o),
(1004,418,cs),
(1004,657,o),
(1155,920,o),
(1376,920,cs),
(1503,920,o),
(1605,842,o),
(1605,681,cs),
(1605,657,o),
(1603,632,o),
(1598,605,c),
(1010,605,l),
(988,465,l),
(1738,465,l),
(1755,515,o),
(1769,608,o),
(1769,668,cs),
(1769,927,o),
(1595,1076,o),
(1392,1076,cs),
(1086,1076,o),
(865,746,o),
(865,414,cs),
(865,158,o),
(1008,-16,o),
(1270,-16,cs)
);
}
);
width = 1838;
}
);
metricLeft = o;
metricRight = e;
unicode = 230;
},
{
color = 3;
glyphname = b;
kernLeft = LAT_H_UC;
kernRight = LAT_O_LC;
lastChange = "2023-11-22 11:34:34 +0000";
layers = (
{
anchors = (
{
name = bottom;
pos = (458,0);
},
{
name = center;
pos = (345,1262);
},
{
name = top;
pos = (733,1155);
}
);
layerId = "AB099EFE-E788-4EFC-8633-CF147CB782A6";
shapes = (
{
closed = 1;
nodes = (
(128,0,l),
(178,260,l),
(212,260,l),
(190,368,l),
(268,762,l),
(332,870,l),
(301,870,l),
(435,1540,l),
(374,1540,l),
(66,0,l)
);
},
{
ref = _part.bowl;
}
);
width = 1157;
},
{
anchors = (
{
name = bottom;
pos = (509,0);
},
{
name = center;
pos = (445,1298);
},
{
name = top;
pos = (896,1163);
}
);
layerId = "2D8F7115-C311-411E-929D-56333CF7FFB2";
shapes = (
{
closed = 1;
nodes = (
(339,0,l),
(365,136,l),
(405,136,l),
(381,270,l),
(515,902,l),
(593,1016,l),
(563,1016,l),
(667,1540,l),
(313,1540,l),
(5,0,l)
);
},
{
pos = (-1,0);
ref = _part.bowl;
}
);
width = 1244;
},
{
anchors = (
{
name = bottom;
pos = (494,0);
},
{
name = center;
pos = (372,1278);
},
{
name = top;
pos = (814,1159);
}
);
layerId = "8CC1EFAB-F3CB-44D1-8974-978FC52DD9AB";
shapes = (
{
closed = 1;
nodes = (
(198,0,l),
(233,174,l),
(271,174,l),
(239,266,l),
(357,840,l),
(413,930,l),
(394,930,l),
(517,1540,l),
(341,1540,l),
(31,0,l)
);
},
{
alignment = -1;
pos = (5,0);
ref = _part.bowl;
}
);
width = 1189;
}
);
metricLeft = h;
metricRight = o;
unicode = 98;
},
{
color = 3;
glyphname = b.ss01;
kernLeft = LAT_L_LC;
kernRight = LAT_O_LC;
lastChange = "2023-11-22 11:34:34 +0000";
layers = (
{
anchors = (
{
name = bottom;
pos = (533,0);
},
{
name = center;
pos = (349,1262);
},
{
name = top;
pos = (741,1155);
}
);
layerId = "AB099EFE-E788-4EFC-8633-CF147CB782A6";
shapes = (
{
closed = 1;
nodes = (
(127,0,l),
(178,256,l),
(198,256,l),
(182,338,l),
(262,738,l),
(318,828,l),
(292,828,l),
(434,1540,l),
(373,1540,l),
(66,0,l)
);
},
{
ref = _part.bowl.ss01;
}
);
width = 1224;
},
{
anchors = (
{
name = bottom;
pos = (581,0);
},
{
name = center;
pos = (454,1298);
},
{
name = top;
pos = (904,1163);
}
);
layerId = "2D8F7115-C311-411E-929D-56333CF7FFB2";
shapes = (
{
closed = 1;
nodes = (
(331,0,l),
(360,145,l),
(407,145,l),
(387,226,l),
(511,816,l),
(588,989,l),
(558,989,l),
(668,1540,l),
(313,1540,l),
(5,0,l)
);
},
{
ref = _part.bowl.ss01;
}
);
width = 1302;
},
{
anchors = (
{
name = bottom;
pos = (560,0);
},
{
name = center;
pos = (376,1276);
},
{
name = top;
pos = (802,1159);
}
);
layerId = "8CC1EFAB-F3CB-44D1-8974-978FC52DD9AB";
shapes = (
{
closed = 1;
nodes = (
(199,0,l),
(235,188,l),
(261,188,l),
(247,272,l),
(345,772,l),
(411,934,l),
(392,934,l),
(512,1540,l),
(337,1540,l),
(31,0,l)
);
},
{
alignment = -1;
ref = _part.bowl.ss01;
}
);
width = 1260;
}
);
metricLeft = h;
metricRight = o;
},
{
color = 6;
glyphname = c;
kernLeft = LAT_O_LC;
kernRight = LAT_C_LC;
lastChange = "2023-11-22 11:34:25 +0000";
layers = (
{
anchors = (
{
name = base;
pos = (670,0);
},
{
name = bottom;
pos = (449,0);
},
{
name = cedilla;
pos = (465,0);
},
{
name = top;
pos = (657,1048);
}
);
background = {
shapes = (
{
closed = 1;
nodes = (
(601,-16,o),
(709,32,o),
(805,106,c),
(777,166,l),
(707,96,o),
(595,40,o),
(485,40,cs),
(245,40,o),
(125,282,o),
(181,562,cs),
(233,832,o),
(416,1008,o),
(650,1008,cs),
(764,1008,o),
(870,964,o),
(920,902,c),
(954,954,l),
(892,1018,o),
(770,1064,o),
(646,1064,cs),
(390,1064,o),
(180,880,o),
(120,564,cs),
(58,236,o),
(219,-16,o),
(491,-16,cs)
);
}
);
};
layerId = "AB099EFE-E788-4EFC-8633-CF147CB782A6";
shapes = (
{
closed = 1;
nodes = (
(603,-16,o),
(709,32,o),
(805,106,c),
(777,166,l),
(707,96,o),
(596,40,o),
(482,40,cs),
(284,40,o),
(168,209,o),
(168,438,cs),
(168,728,o),
(356,1008,o),
(648,1008,cs),
(764,1008,o),
(870,964,o),
(920,902,c),
(954,954,l),
(892,1018,o),
(770,1064,o),
(644,1064,cs),
(320,1064,o),
(108,760,o),
(108,439,cs),
(108,168,o),
(258,-16,o),
(486,-16,cs)
);
}
);
userData = {
RMXScaler = {
height = 71.5;
weight = 20;
width = 77;
};
};
width = 980;
},
{
anchors = (
{
name = base;
pos = (731,0);
},
{
name = bottom;
pos = (510,0);
},
{
name = cedilla;
pos = (520,0);
},
{
name = top;
pos = (719,1080);
}
);
background = {
shapes = (
{
closed = 1;
nodes = (
(658,-12,o),
(776,16,o),
(846,62,c),
(770,366,l),
(714,326,o),
(646,300,o),
(572,300,cs),
(442,300,o),
(374,404,o),
(404,560,cs),
(432,702,o),
(528,794,o),
(642,794,cs),
(700,794,o),
(780,766,o),
(822,726,c),
(998,988,l),
(942,1034,o),
(824,1096,o),
(656,1096,cs),
(346,1096,o),
(124,888,o),
(68,596,cs),
(-4,220,o),
(244,-12,o),
(550,-12,cs)
);
}
);
};
layerId = "2D8F7115-C311-411E-929D-56333CF7FFB2";
shapes = (
{
closed = 1;
nodes = (
(658,-12,o),
(776,16,o),
(846,62,c),
(770,366,l),
(714,326,o),
(645,300,o),
(575,300,cs),
(460,300,o),
(398,370,o),
(398,489,cs),
(398,638,o),
(495,794,o),
(640,794,cs),
(701,794,o),
(780,766,o),
(822,726,c),
(998,988,l),
(942,1034,o),
(823,1096,o),
(658,1096,cs),
(306,1096,o),
(56,812,o),
(56,477,cs),
(56,159,o),
(280,-12,o),
(549,-12,cs)
);
}
);
userData = {
RMXScaler = {
height = 73.5;
weight = -50;
width = 73;
};
};
width = 978;
},
{
anchors = (
{
name = base;
pos = (717,0);
},
{
name = bottom;
pos = (487,0);
},
{
name = cedilla;
pos = (500,0);
},
{
name = top;
pos = (695,1060);
}
);
background = {
shapes = (
{
closed = 1;
nodes = (
(647,-12,o),
(759,26,o),
(857,94,c),
(815,254,l),
(757,204,o),
(639,148,o),
(535,148,cs),
(335,148,o),
(226,320,o),
(274,550,cs),
(319,766,o),
(475,916,o),
(663,916,cs),
(757,916,o),
(857,882,o),
(897,826,c),
(985,972,l),
(923,1030,o),
(799,1076,o),
(673,1076,cs),
(393,1076,o),
(158,880,o),
(99,574,cs),
(33,232,o),
(229,-12,o),
(533,-12,cs)
);
}
);
};
layerId = "8CC1EFAB-F3CB-44D1-8974-978FC52DD9AB";
shapes = (
{
closed = 1;
nodes = (
(647,-12,o),
(759,26,o),
(857,94,c),
(815,254,l),
(757,204,o),
(639,148,o),
(535,148,cs),
(367,148,o),
(263,270,o),
(263,446,cs),
(263,684,o),
(428,916,o),
(663,916,cs),
(757,916,o),
(857,882,o),
(897,826,c),
(985,972,l),
(923,1030,o),
(799,1076,o),
(673,1076,cs),
(333,1076,o),
(86,788,o),
(86,445,cs),
(86,172,o),
(269,-12,o),
(533,-12,cs)
);
}
);
width = 1000;
}
);
metricLeft = o;
unicode = 99;
userData = {
RMXScaler = {
source = C;
};
};
},
{
color = 3;
glyphname = d;
kernLeft = LAT_O_LC;
kernRight = LAT_D_LC;
lastChange = "2023-11-22 11:34:34 +0000";
layers = (
{
anchors = (
{
name = bottom;
pos = (524,0);
},
{
name = center;
pos = (1126,1262);
},
{
name = leghookretroflex;
pos = (874,0);
},
{
name = top;
pos = (1176,1540);
},
{
name = topright;
pos = (1208,1540);
}
);
layerId = "AB099EFE-E788-4EFC-8633-CF147CB782A6";
shapes = (
{
closed = 1;
nodes = (
(972,40,l),
(894,84,o),
(911,152,o),
(928,236,cs),
(1188,1540,l),
(1127,1540,l),
(974,776,l),
(956,776,l),
(972,714,l),
(882,260,l),
(842,190,l),
(868,190,l),
(862,212,l),
(832,54,o),
(872,36,o),
(938,-16,c)
);
},
{
ref = "_part.bowl-reverse";
}
);
width = 1176;
},
{
anchors = (
{
name = bottom;
pos = (528,0);
},
{
name = center;
pos = (1110,1298);
},
{
name = leghookretroflex;
pos = (854,0);
},
{
name = top;
pos = (1159,1540);
},
{
name = topright;
pos = (1315,1540);
}
);
layerId = "2D8F7115-C311-411E-929D-56333CF7FFB2";
shapes = (
{
closed = 1;
nodes = (
(1170,274,l),
(1114,296,o),
(1099,314,o),
(1112,378,cs),
(1344,1540,l),
(990,1540,l),
(878,974,l),
(820,974,l),
(902,868,l),
(772,254,l),
(710,132,l),
(832,132,l),
(778,176,l),
(794,86,o),
(880,30,o),
(1000,-12,c)
);
},
{
ref = "_part.bowl-reverse";
}
);
width = 1295;
},
{
anchors = (
{
name = bottom;
pos = (481,0);
},
{
name = center;
pos = (1106,1274);
},
{
name = leghookretroflex;
pos = (852,0);
},
{
name = top;
pos = (1159,1540);
},
{
name = topright;
pos = (1366,1540);
}
);
layerId = "8CC1EFAB-F3CB-44D1-8974-978FC52DD9AB";
shapes = (
{
closed = 1;
nodes = (
(1040,138,l),
(978,170,o),
(978,214,o),
(994,296,cs),
(1242,1540,l),
(1067,1540,l),
(943,915,l),
(921,915,l),
(950,784,l),
(846,264,l),
(770,148,l),
(866,148,l),
(824,196,l),
(808,98,o),
(844,42,o),
(948,-16,c)
);
},
{
alignment = -1;
ref = "_part.bowl-reverse";
}
);
width = 1222;
}
);
metricLeft = o;
unicode = 100;
},
{
color = 3;
glyphname = d.ss01;
kernLeft = LAT_O_LC;
kernRight = LAT_H_UC;
lastChange = "2023-11-22 11:34:34 +0000";
layers = (
{
anchors = (
{
name = bottom;
pos = (516,0);
},
{
name = center;
pos = (1161,1262);
},
{
name = leghookretroflex;
pos = (889,0);
},
{
name = top;
pos = (1225,1540);
},
{
name = topright;
pos = (1254,1540);
}
);
layerId = "AB099EFE-E788-4EFC-8633-CF147CB782A6";
shapes = (
{
closed = 1;
nodes = (
(952,0,l),
(1256,1540,l),
(1196,1540,l),
(1047,792,l),
(1023,792,l),
(1046,740,l),
(954,292,l),
(911,228,l),
(936,228,l),
(891,0,l)
);
},
{
pos = (1,0);
ref = "_part.bowl-reverse.ss01";
}
);
width = 1266;
},
{
anchors = (
{
name = bottom;
pos = (530,0);
},
{
name = center;
pos = (1198,1298);
},
{
name = leghookretroflex;
pos = (913,0);
},
{
name = top;
pos = (1219,1540);
},
{
name = topright;
pos = (1382,1540);
}
);
layerId = "2D8F7115-C311-411E-929D-56333CF7FFB2";
shapes = (
{
closed = 1;
nodes = (
(1080,0,l),
(1384,1540,l),
(1028,1540,l),
(916,962,l),
(882,962,l),
(908,840,l),
(776,184,l),
(744,124,l),
(782,124,l),
(758,0,l)
);
},
{
ref = "_part.bowl-reverse.ss01";
}
);
width = 1299;
},
{
anchors = (
{
name = bottom;
pos = (528,0);
},
{
name = center;
pos = (1180,1276);
},
{
name = leghookretroflex;
pos = (909,0);
},
{
name = top;
pos = (1233,1540);
},
{
name = topright;
pos = (1321,1540);
}
);
layerId = "8CC1EFAB-F3CB-44D1-8974-978FC52DD9AB";
shapes = (
{
closed = 1;
nodes = (
(1016,0,l),
(1322,1540,l),
(1147,1540,l),
(1016,886,l),
(992,886,l),
(1020,808,l),
(894,208,l),
(850,152,l),
(879,152,l),
(849,0,l)
);
},
{
alignment = -1;
ref = "_part.bowl-reverse.ss01";
}
);
width = 1253;
}
);
metricLeft = o;
},
{
color = 6;
glyphname = eth;
kernLeft = LAT_ETH_LC;
kernRight = LAT_ETH_LC;
lastChange = "2023-11-22 11:34:34 +0000";
layers = (
{
background = {
shapes = (
{
closed = 1;
nodes = (
(764,-16,o),
(966,161,o),
(1034,504,cs),
(1123,952,o),
(958,1398,o),
(542,1560,c),
(516,1508,l),
(723,1432,o),
(974,1201,o),
(1002,822,c),
(1022,830,l),
(976,830,l),
(1016,786,l),
(966,940,o),
(806,1024,o),
(644,1024,cs),
(398,1024,o),
(182,838,o),
(128,562,cs),
(64,246,o),
(236,-16,o),
(524,-16,cs)
);
},
{
closed = 1;
nodes = (
(318,44,o),
(126,226,o),
(190,546,cs),
(238,778,o),
(398,968,o),
(652,968,cs),
(882,968,o),
(1025,810,o),
(972,518,cs),
(919,224,o),
(726,44,o),
(526,44,cs)
);
},
{
closed = 1;
nodes = (
(1100,1507,l),
(1082,1556,l),
(448,1222,l),
(464,1172,l)
);
}
);
};
layerId = "AB099EFE-E788-4EFC-8633-CF147CB782A6";
shapes = (
{
closed = 1;
nodes = (
(878,-16,o),
(1057,356,o),
(1057,733,cs),
(1057,1102,o),
(886,1425,o),
(542,1560,c),
(516,1508,l),
(723,1432,o),
(974,1201,o),
(1002,822,c),
(1022,830,l),
(976,830,l),
(1016,786,l),
(966,940,o),
(807,1024,o),
(642,1024,cs),
(341,1024,o),
(115,747,o),
(115,436,cs),
(115,174,o),
(276,-16,o),
(527,-16,cs)
);
},
{
closed = 1;
nodes = (
(346,44,o),
(177,177,o),
(177,436,cs),
(177,713,o),
(369,968,o),
(656,968,cs),
(850,968,o),
(983,852,o),
(983,625,cs),
(983,356,o),
(797,44,o),
(524,44,cs)
);
},
{
closed = 1;
nodes = (
(1100,1507,l),
(1082,1556,l),
(448,1222,l),
(464,1172,l)
);
}
);
width = 1166;
},
{
background = {
shapes = (
{
closed = 1;
nodes = (
(836,-16,o),
(1079,255,o),
(1142,638,cs),
(1212,1058,o),
(1040,1444,o),
(576,1692,c),
(400,1430,l),
(668,1318,o),
(832,1098,o),
(874,866,c),
(928,902,l),
(838,902,l),
(886,860,l),
(832,978,o),
(708,1028,o),
(590,1028,cs),
(354,1028,o),
(109,828,o),
(58,546,cs),
(6,256,o),
(179,-16,o),
(508,-16,cs)
);
},
{
closed = 1;
nodes = (
(435,294,o),
(381,379,o),
(400,510,cs),
(421,657,o),
(517,760,o),
(635,760,cs),
(748,760,o),
(787,664,o),
(774,552,cs),
(758,415,o),
(672,294,o),
(543,294,cs)
);
},
{
closed = 1;
nodes = (
(1196,1512,l),
(1110,1692,l),
(356,1212,l),
(422,1080,l)
);
}
);
};
layerId = "2D8F7115-C311-411E-929D-56333CF7FFB2";
shapes = (
{
closed = 1;
nodes = (
(908,-16,o),
(1157,387,o),
(1157,809,cs),
(1157,1174,o),
(970,1480,o),
(576,1692,c),
(400,1430,l),
(668,1318,o),
(832,1098,o),
(874,866,c),
(928,902,l),
(838,902,l),
(886,860,l),
(832,978,o),
(709,1028,o),
(588,1028,cs),
(301,1028,o),
(49,748,o),
(49,445,cs),
(49,196,o),
(218,-16,o),
(508,-16,cs)
);
},
{
closed = 1;
nodes = (
(449,294,o),
(396,357,o),
(396,465,cs),
(396,608,o),
(490,760,o),
(635,760,cs),
(734,760,o),
(776,687,o),
(776,588,cs),
(776,443,o),
(685,294,o),
(542,294,cs)
);
},
{
closed = 1;
nodes = (
(1196,1512,l),
(1110,1692,l),
(356,1212,l),
(422,1080,l)
);
}
);
width = 1196;
},
{
background = {
shapes = (
{
closed = 1;
nodes = (
(824,-16,o),
(1018,203,o),
(1090,546,cs),
(1188,1012,o),
(1001,1414,o),
(558,1614,c),
(476,1474,l),
(702,1374,o),
(932,1188,o),
(966,878,c),
(994,892,l),
(944,892,l),
(974,858,l),
(941,957,o),
(785,1030,o),
(625,1030,cs),
(355,1030,o),
(158,821,o),
(103,566,cs),
(32,236,o),
(232,-16,o),
(538,-16,cs)
);
},
{
closed = 1;
nodes = (
(370,142,o),
(228,293,o),
(264,518,cs),
(294,707,o),
(437,878,o),
(646,878,cs),
(840,878,o),
(960,732,o),
(920,518,cs),
(885,331,o),
(737,151,o),
(546,146,cs)
);
},
{
closed = 1;
nodes = (
(1160,1518,l),
(1118,1616,l),
(422,1238,l),
(458,1138,l)
);
}
);
};
layerId = "8CC1EFAB-F3CB-44D1-8974-978FC52DD9AB";
shapes = (
{
closed = 1;
nodes = (
(911,-16,o),
(1115,373,o),
(1115,770,cs),
(1115,1154,o),
(924,1447,o),
(558,1614,c),
(476,1474,l),
(702,1374,o),
(932,1188,o),
(966,878,c),
(994,892,l),
(944,892,l),
(974,858,l),
(942,956,o),
(785,1030,o),
(627,1030,cs),
(319,1030,o),
(89,747,o),
(89,443,cs),
(89,170,o),
(274,-16,o),
(534,-16,cs)
);
},
{
closed = 1;
nodes = (
(385,146,o),
(258,263,o),
(258,454,cs),
(258,672,o),
(422,878,o),
(649,878,cs),
(815,878,o),
(928,767,o),
(928,594,cs),
(928,380,o),
(755,146,o),
(538,146,cs)
);
},
{
closed = 1;
nodes = (
(1160,1518,l),
(1118,1616,l),
(422,1238,l),
(458,1138,l)
);
}
);
width = 1192;
}
);
unicode = 240;
},
{
color = 6;
glyphname = e;
kernLeft = LAT_O_LC;
kernRight = LAT_E_LC;
lastChange = "2023-11-22 11:34:34 +0000";
layers = (
{
anchors = (
{
name = bottom;
pos = (453,0);
},
{
name = cedilla;
pos = (440,0);
},
{
name = ogonek;
pos = (812,102);
},
{
name = top;
pos = (640,1048);
}
);
background = {
shapes = (
{
closed = 1;
nodes = (
(622,-16,o),
(736,42,o),
(812,102,c),
(789,160,l),
(701,88,o),
(604,40,o),
(480,40,cs),
(228,40,o),
(121,248,o),
(173,524,cs),
(227,818,o),
(392,1008,o),
(620,1008,cs),
(830,1008,o),
(948,826,o),
(898,562,c),
(168,562,l),
(156,506,l),
(948,506,l),
(950,512,o),
(954,534,o),
(956,544,cs),
(1016,848,o),
(874,1064,o),
(622,1064,cs),
(356,1064,o),
(168,854,o),
(112,522,cs),
(58,196,o),
(208,-16,o),
(476,-16,cs)
);
}
);
};
layerId = "AB099EFE-E788-4EFC-8633-CF147CB782A6";
shapes = (
{
closed = 1;
nodes = (
(622,-16,o),
(736,42,o),
(812,102,c),
(789,160,l),
(701,88,o),
(604,40,o),
(480,40,cs),
(270,40,o),
(163,180,o),
(163,406,cs),
(163,691,o),
(336,1008,o),
(618,1008,cs),
(797,1008,o),
(909,881,o),
(909,676,cs),
(909,642,o),
(906,603,o),
(898,562,c),
(168,562,l),
(156,506,l),
(948,506,l),
(958,539,o),
(970,620,o),
(970,687,cs),
(970,898,o),
(842,1064,o),
(618,1064,cs),
(301,1064,o),
(104,730,o),
(104,408,cs),
(104,135,o),
(245,-16,o),
(478,-16,cs)
);
}
);
width = 1060;
},
{
anchors = (
{
name = bottom;
pos = (514,0);
},
{
name = cedilla;
pos = (522,0);
},
{
name = ogonek;
pos = (916,58);
},
{
name = top;
pos = (672,1080);
}
);
background = {
shapes = (
{
closed = 1;
nodes = (
(682,-16,o),
(814,6,o),
(916,58,c),
(804,324,l),
(764,296,o),
(664,266,o),
(586,266,cs),
(450,266,o),
(352,356,o),
(352,502,cs),
(352,648,o),
(453,826,o),
(629,826,cs),
(751,826,o),
(792,734,o),
(770,638,c),
(348,638,l),
(306,426,l),
(1032,426,l),
(1050,460,o),
(1070,542,o),
(1078,586,cs),
(1130,894,o),
(912,1096,o),
(638,1096,cs),
(374,1096,o),
(136,908,o),
(72,614,cs),
(0,290,o),
(178,-16,o),
(574,-16,cs)
);
}
);
};
guides = (
{
angle = -67.5;
pos = (444,36);
}
);
layerId = "2D8F7115-C311-411E-929D-56333CF7FFB2";
shapes = (
{
closed = 1;
nodes = (
(682,-16,o),
(814,6,o),
(916,58,c),
(804,324,l),
(764,296,o),
(664,266,o),
(586,266,cs),
(450,266,o),
(352,356,o),
(352,502,cs),
(352,648,o),
(453,826,o),
(629,826,cs),
(730,826,o),
(776,763,o),
(776,686,cs),
(776,671,o),
(774,654,o),
(770,638,c),
(348,638,l),
(306,426,l),
(1032,426,l),
(1060,478,o),
(1086,602,o),
(1086,675,cs),
(1086,932,o),
(885,1096,o),
(638,1096,cs),
(307,1096,o),
(56,808,o),
(56,475,cs),
(56,208,o),
(236,-16,o),
(574,-16,cs)
);
}
);
width = 1122;
},
{
anchors = (
{
name = bottom;
pos = (475,0);
},
{
name = cedilla;
pos = (467,0);
},
{
name = ogonek;
pos = (858,92);
},
{
name = top;
pos = (662,1060);
}
);
background = {
shapes = (
{
closed = 1;
nodes = (
(650,-16,o),
(766,30,o),
(858,92,c),
(802,242,l),
(728,182,o),
(631,140,o),
(528,140,cs),
(323,140,o),
(216,306,o),
(254,536,cs),
(290,756,o),
(440,920,o),
(624,920,cs),
(800,920,o),
(897,770,o),
(857,602,c),
(228,602,l),
(204,462,l),
(985,462,l),
(993,480,o),
(1005,522,o),
(1013,564,cs),
(1062,826,o),
(920,1076,o),
(630,1076,cs),
(352,1076,o),
(146,845,o),
(96,558,cs),
(38,224,o),
(224,-16,o),
(520,-16,cs)
);
}
);
};
layerId = "8CC1EFAB-F3CB-44D1-8974-978FC52DD9AB";
shapes = (
{
closed = 1;
nodes = (
(650,-16,o),
(766,30,o),
(858,92,c),
(802,242,l),
(728,182,o),
(631,140,o),
(528,140,cs),
(350,140,o),
(246,265,o),
(246,447,cs),
(246,681,o),
(399,920,o),
(624,920,cs),
(773,920,o),
(866,812,o),
(866,676,cs),
(866,652,o),
(863,627,o),
(857,602,c),
(228,602,l),
(204,462,l),
(985,462,l),
(1006,510,o),
(1023,601,o),
(1023,665,cs),
(1023,887,o),
(882,1076,o),
(630,1076,cs),
(313,1076,o),
(85,770,o),
(85,439,cs),
(85,169,o),
(260,-16,o),
(520,-16,cs)
);
}
);
width = 1090;
},
{
anchors = (
{
name = bottom;
pos = (467,0);
},
{
name = cedilla;
pos = (457,0);
},
{
name = ogonek;
pos = (842,96);
},
{
name = top;
pos = (654,1056);
}
);
associatedMasterId = "AB099EFE-E788-4EFC-8633-CF147CB782A6";
attr = {
coordinates = (
68
);
};
layerId = "69BDFBC6-B679-4B0C-ADC3-EC62420DC0F3";
name = "{68}";
shapes = (
{
closed = 1;
nodes = (
(640,-16,o),
(755,34,o),
(842,96,c),
(797,213,l),
(718,148,o),
(621,104,o),
(511,104,cs),
(321,104,o),
(216,235,o),
(216,432,cs),
(216,685,o),
(377,951,o),
(622,951,cs),
(782,951,o),
(881,837,o),
(881,676,cs),
(881,648,o),
(878,618,o),
(872,588,c),
(207,588,l),
(187,478,l),
(972,478,l),
(989,520,o),
(1004,608,o),
(1004,673,cs),
(1004,891,o),
(868,1072,o),
(626,1072,cs),
(309,1072,o),
(92,756,o),
(92,428,cs),
(92,157,o),
(255,-16,o),
(505,-16,cs)
);
}
);
width = 1079;
},
{
anchors = (
{
name = bottom;
pos = (491,0);
},
{
name = cedilla;
pos = (489,0);
},
{
name = ogonek;
pos = (883,72);
},
{
name = top;
pos = (664,1073);
}
);
associatedMasterId = "8CC1EFAB-F3CB-44D1-8974-978FC52DD9AB";
attr = {
coordinates = (
140
);
};
background = {
shapes = (
{
closed = 1;
nodes = (
(650,-16,o),
(766,30,o),
(858,92,c),
(802,242,l),
(728,182,o),
(631,140,o),
(528,140,cs),
(323,140,o),
(216,306,o),
(254,536,cs),
(290,756,o),
(440,920,o),
(624,920,cs),
(800,920,o),
(897,770,o),
(857,602,c),
(228,602,l),
(204,462,l),
(985,462,l),
(993,480,o),
(1005,522,o),
(1013,564,cs),
(1062,826,o),
(920,1076,o),
(630,1076,cs),
(352,1076,o),
(146,845,o),
(96,558,cs),
(38,224,o),
(224,-16,o),
(520,-16,cs)
);
}
);
};
layerId = "E75BF0B3-2D30-4F58-92BF-42D61D8A4C13";
name = "22. Nov 23 at 12:22";
shapes = (
{
closed = 1;
nodes = (
(664,-16,o),
(786,16,o),
(883,72,c),
(795,289,l),
(741,244,o),
(645,208,o),
(553,208,cs),
(397,208,o),
(305,318,o),
(305,476,cs),
(305,666,o),
(434,859,o),
(616,859,cs),
(730,859,o),
(812,783,o),
(812,674,cs),
(812,662,o),
(811,646,o),
(807,630,c),
(297,630,l),
(262,446,l),
(1012,446,l),
(1037,507,o),
(1059,598,o),
(1059,678,cs),
(1059,906,o),
(883,1087,o),
(631,1087,cs),
(305,1087,o),
(68,783,o),
(68,460,cs),
(68,178,o),
(248,-16,o),
(544,-16,cs)
);
}
);
width = 1108;
}
);
metricLeft = o;
unicode = 101;
},
{
color = 6;
glyphname = f;
kernLeft = LAT_F_LC;
kernRight = LAT_F_LC;
lastChange = "2023-11-22 11:34:34 +0000";
layers = (
{
anchors = (
{
name = bottom;
pos = (190,0);
},
{
name = top;
pos = (676,1540);
}
);
layerId = "AB099EFE-E788-4EFC-8633-CF147CB782A6";
shapes = (
{
closed = 1;
nodes = (
(83,-318,o),
(173,-216,o),
(216,1,cs),
(468,1267,ls),
(495,1402,o),
(579,1501,o),
(692,1501,cs),
(722,1501,o),
(760,1493,o),
(786,1479,c),
(810,1530,l),
(779,1547,o),
(741,1556,o),
(698,1556,cs),
(549,1556,o),
(444,1448,o),
(407,1263,cs),
(155,1,ls),
(120,-176,o),
(54,-263,o),
(-50,-263,cs),
(-63,-263,o),
(-86,-259,o),
(-101,-255,c),
(-105,-312,l),
(-88,-316,o),
(-65,-318,o),
(-48,-318,cs)
);
},
{
closed = 1;
nodes = (
(671,992,l),
(682,1048,l),
(202,1048,l),
(191,992,l)
);
}
);
width = 676;
},
{
anchors = (
{
name = bottom;
pos = (307,0);
},
{
name = top;
pos = (743,1540);
}
);
layerId = "2D8F7115-C311-411E-929D-56333CF7FFB2";
shapes = (
{
closed = 1;
nodes = (
(276,-438,o),
(414,-281,o),
(467,-12,cs),
(694,1126,ls),
(713,1221,o),
(780,1272,o),
(854,1272,cs),
(881,1272,o),
(903,1266,o),
(918,1253,c),
(1044,1552,l),
(977,1581,o),
(899,1593,o),
(834,1593,cs),
(584,1593,o),
(399,1436,o),
(346,1167,cs),
(121,29,ls),
(102,-66,o),
(57,-129,o),
(-25,-129,cs),
(-39,-129,o),
(-53,-127,o),
(-74,-121,c),
(-115,-420,l),
(-66,-436,o),
(-18,-438,o),
(12,-438,cs)
);
},
{
closed = 1;
nodes = (
(862,780,l),
(922,1080,l),
(142,1080,l),
(82,780,l)
);
}
);
width = 860;
},
{
anchors = (
{
name = bottom;
pos = (238,0);
},
{
name = top;
pos = (729,1540);
}
);
layerId = "8CC1EFAB-F3CB-44D1-8974-978FC52DD9AB";
shapes = (
{
closed = 1;
nodes = (
(106,-408,o),
(250,-313,o),
(293,-98,cs),
(557,1229,ls),
(580,1337,o),
(651,1395,o),
(737,1395,cs),
(764,1395,o),
(795,1386,o),
(823,1372,c),
(891,1528,l),
(840,1548,o),
(791,1556,o),
(741,1556,cs),
(578,1556,o),
(426,1450,o),
(387,1251,cs),
(123,-74,ls),
(98,-193,o),
(33,-248,o),
(-63,-248,cs),
(-74,-248,o),
(-88,-248,o),
(-102,-244,c),
(-117,-401,l),
(-94,-406,o),
(-70,-408,o),
(-47,-408,cs)
);
},
{
closed = 1;
nodes = (
(751,904,l),
(782,1060,l),
(172,1060,l),
(141,904,l)
);
}
);
width = 744;
},
{
anchors = (
{
name = bottom;
pos = (221,0);
},
{
name = top;
pos = (710,1540);
}
);
associatedMasterId = "AB099EFE-E788-4EFC-8633-CF147CB782A6";
attr = {
coordinates = (
68
);
};
layerId = "75F887B0-8C75-4B2C-AB9C-0B9CA5162794";
name = "{68}";
shapes = (
{
closed = 1;
nodes = (
(97,-376,o),
(222,-278,o),
(265,-63,cs),
(525,1243,ls),
(549,1360,o),
(625,1433,o),
(721,1433,cs),
(749,1433,o),
(782,1424,o),
(809,1410,c),
(862,1529,l),
(818,1548,o),
(773,1556,o),
(725,1556,cs),
(567,1556,o),
(432,1449,o),
(394,1255,cs),
(134,-47,ls),
(106,-187,o),
(40,-253,o),
(-59,-253,cs),
(-70,-253,o),
(-88,-252,o),
(-102,-248,c),
(-113,-369,l),
(-92,-374,o),
(-69,-376,o),
(-48,-376,cs)
);
},
{
closed = 1;
nodes = (
(722,935,l),
(746,1056,l),
(183,1056,l),
(159,935,l)
);
}
);
width = 720;
},
{
anchors = (
{
name = bottom;
pos = (279,0);
},
{
name = top;
pos = (745,1540);
}
);
associatedMasterId = "8CC1EFAB-F3CB-44D1-8974-978FC52DD9AB";
attr = {
coordinates = (
140
);
};
layerId = "955023FD-481A-4E56-BDD4-72656AC0880B";
name = "22. Nov 23 at 12:22";
shapes = (
{
closed = 1;
nodes = (
(194,-425,o),
(335,-295,o),
(383,-49,cs),
(626,1171,ls),
(647,1271,o),
(716,1325,o),
(795,1325,cs),
(822,1325,o),
(848,1318,o),
(869,1305,c),
(969,1542,l),
(909,1567,o),
(844,1577,o),
(786,1577,cs),
(573,1577,o),
(403,1442,o),
(356,1204,cs),
(114,-16,ls),
(92,-121,o),
(39,-181,o),
(-50,-181,cs),
(-62,-181,o),
(-76,-180,o),
(-94,-174,c),
(-124,-412,l),
(-86,-423,o),
(-49,-425,o),
(-22,-425,cs)
);
},
{
closed = 1;
nodes = (
(818,851,l),
(862,1071,l),
(160,1071,l),
(116,851,l)
);
}
);
width = 801;
}
);
unicode = 102;
},
{
color = 6;
glyphname = f.ss01;
kernLeft = LAT_FSS01_LC;
kernRight = LAT_F_LC;
lastChange = "2023-11-22 11:34:34 +0000";
layers = (
{
anchors = (
{
name = bottom;
pos = (195,0);
},
{
name = top;
pos = (682,1540);
}
);
layerId = "AB099EFE-E788-4EFC-8633-CF147CB782A6";
shapes = (
{
closed = 1;
nodes = (
(212,0,l),
(464,1267,ls),
(491,1402,o),
(575,1501,o),
(688,1501,cs),
(717,1501,o),
(756,1493,o),
(782,1479,c),
(806,1530,l),
(773,1548,o),
(734,1556,o),
(694,1556,cs),
(544,1556,o),
(438,1442,o),
(402,1258,cs),
(153,0,l)
);
},
{
closed = 1;
nodes = (
(670,993,l),
(679,1048,l),
(199,1048,l),
(188,993,l)
);
}
);
width = 672;
},
{
anchors = (
{
name = bottom;
pos = (313,0);
},
{
name = top;
pos = (756,1540);
}
);
layerId = "2D8F7115-C311-411E-929D-56333CF7FFB2";
shapes = (
{
closed = 1;
nodes = (
(468,0,l),
(690,1122,ls),
(709,1217,o),
(778,1272,o),
(856,1272,cs),
(879,1272,o),
(899,1268,o),
(922,1253,c),
(1049,1552,l),
(979,1581,o),
(903,1593,o),
(836,1593,cs),
(584,1593,o),
(399,1442,o),
(346,1174,cs),
(113,0,l)
);
},
{
closed = 1;
nodes = (
(862,780,l),
(922,1080,l),
(141,1080,l),
(81,780,l)
);
}
);
width = 865;
},
{
anchors = (
{
name = bottom;
pos = (240,0);
},
{
name = top;
pos = (731,1540);
}
);
layerId = "8CC1EFAB-F3CB-44D1-8974-978FC52DD9AB";
shapes = (
{
closed = 1;
nodes = (
(326,0,l),
(569,1229,ls),
(590,1335,o),
(659,1393,o),
(748,1393,cs),
(772,1393,o),
(805,1389,o),
(834,1374,c),
(901,1528,l),
(852,1548,o),
(801,1556,o),
(752,1556,cs),
(586,1556,o),
(436,1444,o),
(397,1247,cs),
(150,0,l)
);
},
{
closed = 1;
nodes = (
(751,904,l),
(782,1060,l),
(172,1060,l),
(141,904,l)
);
}
);
width = 754;
},
{
anchors = (
{
name = bottom;
pos = (224,0);
},
{
name = top;
pos = (714,1540);
}
);
associatedMasterId = "AB099EFE-E788-4EFC-8633-CF147CB782A6";
attr = {
coordinates = (
68
);
};
layerId = "CCFD4927-7C46-4D18-AED8-BA1AA50E1767";
name = "{68}";
shapes = (
{
closed = 1;
nodes = (
(286,0,l),
(532,1243,ls),
(555,1359,o),
(629,1432,o),
(727,1432,cs),
(753,1432,o),
(788,1426,o),
(816,1412,c),
(867,1529,l),
(824,1548,o),
(777,1556,o),
(732,1556,cs),
(571,1556,o),
(437,1443,o),
(399,1251,cs),
(151,0,l)
);
},
{
closed = 1;
nodes = (
(722,936,l),
(745,1056,l),
(182,1056,l),
(158,936,l)
);
}
);
width = 725;
},
{
anchors = (
{
name = bottom;
pos = (274,0);
},
{
name = top;
pos = (745,1540);
}
);
associatedMasterId = "8CC1EFAB-F3CB-44D1-8974-978FC52DD9AB";
attr = {
coordinates = (
140
);
};
layerId = "6C45635A-09C5-4DB4-B52A-D7EF56A41D5D";
name = "22. Nov 23 at 12:22";
shapes = (
{
closed = 1;
nodes = (
(394,0,l),
(625,1169,ls),
(645,1268,o),
(714,1325,o),
(797,1325,cs),
(820,1325,o),
(846,1321,o),
(872,1306,c),
(973,1542,l),
(912,1567,o),
(847,1577,o),
(787,1577,cs),
(573,1577,o),
(403,1443,o),
(356,1206,cs),
(117,0,l)
);
},
{
closed = 1;
nodes = (
(813,851,l),
(858,1071,l),
(156,1071,l),
(109,851,l)
);
}
);
width = 805;
}
);
metricRight = f;
},
{
color = 6;
glyphname = g;
kernLeft = LAT_G_LC;
kernRight = LAT_G_LC;
lastChange = "2023-11-22 11:34:34 +0000";
layers = (
{
anchors = (
{
name = bottom;
pos = (387,-420);
},
{
name = top;
pos = (674,1048);
}
);
background = {
shapes = (
{
closed = 1;
nodes = (
(667,-434,o),
(829,-264,o),
(882,4,cs),
(1090,1048,l),
(1030,1048,l),
(979,790,l),
(962,790,l),
(976,740,l),
(874,260,l),
(832,184,l),
(858,184,l),
(822,8,ls),
(775,-224,o),
(643,-378,o),
(419,-378,cs),
(279,-378,o),
(135,-318,o),
(57,-238,c),
(33,-300,l),
(111,-370,o),
(261,-434,o),
(419,-434,cs)
);
},
{
closed = 1;
nodes = (
(729,-16,o),
(915,172,o),
(973,479,cs),
(1038,820,o),
(906,1064,o),
(627,1064,cs),
(351,1064,o),
(175,827,o),
(125,571,cs),
(65,266,o),
(186,-16,o),
(485,-16,cs)
);
},
{
closed = 1;
nodes = (
(243,40,o),
(129,272,o),
(183,552,cs),
(234,816,o),
(407,1008,o),
(627,1008,cs),
(840,1008,o),
(982,822,o),
(924,500,cs),
(876,232,o),
(704,40,o),
(483,40,cs)
);
}
);
};
guides = (
{
angle = 67.5;
pos = (71,-8);
}
);
layerId = "AB099EFE-E788-4EFC-8633-CF147CB782A6";
shapes = (
{
closed = 1;
nodes = (
(667,-434,o),
(829,-264,o),
(882,4,cs),
(1090,1048,l),
(1030,1048,l),
(979,790,l),
(962,790,l),
(976,740,l),
(874,260,l),
(832,184,l),
(858,184,l),
(822,8,ls),
(775,-224,o),
(643,-378,o),
(419,-378,cs),
(279,-378,o),
(135,-318,o),
(57,-238,c),
(33,-300,l),
(111,-370,o),
(262,-434,o),
(416,-434,cs)
);
},
{
closed = 1;
nodes = (
(802,-16,o),
(989,310,o),
(989,631,cs),
(989,898,o),
(859,1064,o),
(631,1064,cs),
(319,1064,o),
(110,753,o),
(110,429,cs),
(110,178,o),
(236,-16,o),
(482,-16,cs)
);
},
{
closed = 1;
nodes = (
(282,40,o),
(170,200,o),
(170,423,cs),
(170,708,o),
(352,1008,o),
(627,1008,cs),
(808,1008,o),
(937,877,o),
(937,632,cs),
(937,348,o),
(763,40,o),
(483,40,cs)
);
}
);
width = 1156;
},
{
anchors = (
{
name = bottom;
pos = (428,-420);
},
{
name = top;
pos = (709,1080);
}
);
background = {
shapes = (
{
closed = 1;
nodes = (
(715,-438,o),
(980,-296,o),
(1050,54,cs),
(1256,1080,l),
(930,1080,l),
(904,946,l),
(832,946,l),
(894,852,l),
(766,222,l),
(706,132,l),
(736,132,l),
(724,66,ls),
(700,-66,o),
(554,-144,o),
(402,-144,cs),
(280,-144,o),
(154,-92,o),
(86,-34,c),
(-34,-320,l),
(46,-374,o),
(202,-438,o),
(408,-438,cs)
);
},
{
closed = 1;
nodes = (
(689,30,o),
(920,240,o),
(974,524,cs),
(1031,821,o),
(872,1096,o),
(590,1096,cs),
(388,1096,o),
(126,956,o),
(64,596,cs),
(4,248,o),
(188,30,o),
(441,30,cs)
);
},
{
closed = 1;
nodes = (
(450,306,o),
(370,398,o),
(400,566,cs),
(426,710,o),
(512,808,o),
(646,808,cs),
(792,808,o),
(850,692,o),
(822,546,cs),
(799,428,o),
(724,306,o),
(576,306,cs)
);
}
);
};
guides = (
{
angle = 67.5;
pos = (38,-16);
}
);
layerId = "2D8F7115-C311-411E-929D-56333CF7FFB2";
shapes = (
{
closed = 1;
nodes = (
(715,-438,o),
(980,-296,o),
(1050,54,cs),
(1256,1080,l),
(930,1080,l),
(904,946,l),
(832,946,l),
(894,852,l),
(766,222,l),
(706,132,l),
(736,132,l),
(724,66,ls),
(700,-66,o),
(554,-144,o),
(402,-144,cs),
(280,-144,o),
(154,-92,o),
(86,-34,c),
(-34,-320,l),
(46,-374,o),
(202,-438,o),
(408,-438,cs)
);
},
{
closed = 1;
nodes = (
(741,30,o),
(986,325,o),
(986,643,cs),
(986,891,o),
(834,1096,o),
(590,1096,cs),
(269,1096,o),
(53,801,o),
(53,468,cs),
(53,195,o),
(221,30,o),
(441,30,cs)
);
},
{
closed = 1;
nodes = (
(468,306,o),
(394,374,o),
(394,499,cs),
(394,661,o),
(487,808,o),
(646,808,cs),
(768,808,o),
(829,727,o),
(829,614,cs),
(829,454,o),
(731,306,o),
(576,306,cs)
);
}
);
width = 1270;
},
{
anchors = (
{
name = bottom;
pos = (407,-420);
},
{
name = top;
pos = (691,1060);
}
);
background = {
shapes = (
{
closed = 1;
nodes = (
(699,-438,o),
(896,-266,o),
(953,16,cs),
(1165,1060,l),
(998,1060,l),
(962,886,l),
(910,886,l),
(941,782,l),
(833,250,l),
(771,128,l),
(805,128,l),
(783,28,ls),
(741,-161,o),
(615,-282,o),
(441,-282,cs),
(301,-282,o),
(145,-214,o),
(77,-146,c),
(11,-304,l),
(87,-374,o),
(267,-438,o),
(435,-438,cs)
);
},
{
closed = 1;
nodes = (
(737,-16,o),
(932,218,o),
(985,521,cs),
(1047,876,o),
(887,1076,o),
(635,1076,cs),
(382,1076,o),
(157,872,o),
(99,563,cs),
(35,222,o),
(222,-16,o),
(479,-16,cs)
);
},
{
closed = 1;
nodes = (
(316,142,o),
(232,317,o),
(273,538,cs),
(310,737,o),
(441,916,o),
(643,916,cs),
(821,916,o),
(934,776,o),
(884,523,cs),
(843,314,o),
(717,142,o),
(515,142,cs)
);
}
);
};
layerId = "8CC1EFAB-F3CB-44D1-8974-978FC52DD9AB";
shapes = (
{
closed = 1;
nodes = (
(700,-438,o),
(896,-266,o),
(953,16,cs),
(1165,1060,l),
(998,1060,l),
(962,886,l),
(910,886,l),
(941,782,l),
(833,250,l),
(771,128,l),
(805,128,l),
(783,28,ls),
(741,-161,o),
(617,-282,o),
(438,-282,cs),
(301,-282,o),
(142,-212,o),
(77,-146,c),
(11,-304,l),
(87,-374,o),
(268,-438,o),
(432,-438,cs)
);
},
{
closed = 1;
nodes = (
(791,-16,o),
(998,331,o),
(998,658,cs),
(998,934,o),
(850,1076,o),
(635,1076,cs),
(316,1076,o),
(86,761,o),
(86,438,cs),
(86,161,o),
(256,-16,o),
(479,-16,cs)
);
},
{
closed = 1;
nodes = (
(349,142,o),
(263,263,o),
(263,440,cs),
(263,675,o),
(414,916,o),
(646,916,cs),
(792,916,o),
(896,821,o),
(896,625,cs),
(896,391,o),
(748,142,o),
(513,142,cs)
);
}
);
width = 1196;
}
);
unicode = 103;
},
{
color = 3;
glyphname = g.ss01;
kernLeft = LAT_G_LC;
kernRight = LAT_G_LC;
lastChange = "2023-11-22 11:32:25 +0000";
layers = (
{
anchors = (
{
name = bottom;
pos = (402,-420);
},
{
name = top;
pos = (691,1048);
}
);
layerId = "AB099EFE-E788-4EFC-8633-CF147CB782A6";
shapes = (
{
closed = 1;
nodes = (
(642,-434,o),
(889,-326,o),
(955,4,cs),
(1163,1048,l),
(1102,1048,l),
(1051,794,l),
(1037,794,l),
(1047,740,l),
(961,316,l),
(924,234,l),
(940,234,l),
(895,8,ls),
(836,-290,o),
(612,-378,o),
(427,-378,cs),
(287,-378,o),
(153,-328,o),
(83,-238,c),
(55,-300,l),
(124,-378,o),
(278,-434,o),
(430,-434,cs)
);
},
{
pos = (4,0);
ref = "_part.bowl-reverse.ss01";
}
);
width = 1229;
},
{
anchors = (
{
name = bottom;
pos = (432,-420);
},
{
name = top;
pos = (711,1080);
}
);
layerId = "2D8F7115-C311-411E-929D-56333CF7FFB2";
shapes = (
{
closed = 1;
nodes = (
(735,-438,o),
(1011,-274,o),
(1077,54,cs),
(1285,1080,l),
(959,1080,l),
(931,948,l),
(861,948,l),
(905,860,l),
(775,230,l),
(735,142,l),
(760,142,l),
(744,66,ls),
(715,-73,o),
(567,-144,o),
(417,-144,cs),
(289,-144,o),
(165,-92,o),
(97,-34,c),
(-23,-320,l),
(55,-374,o),
(211,-438,o),
(417,-438,cs)
);
},
{
pos = (0,45);
ref = "_part.bowl-reverse.ss01";
scale = (1,0.9597);
}
);
width = 1299;
},
{
anchors = (
{
name = bottom;
pos = (425,-420);
},
{
name = top;
pos = (710,1060);
}
);
layerId = "8CC1EFAB-F3CB-44D1-8974-978FC52DD9AB";
shapes = (
{
closed = 1;
nodes = (
(724,-438,o),
(955,-288,o),
(1016,16,cs),
(1224,1060,l),
(1057,1060,l),
(1022,885,l),
(972,885,l),
(1002,776,l),
(898,266,l),
(836,144,l),
(870,144,l),
(847,28,ls),
(805,-184,o),
(632,-282,o),
(454,-282,cs),
(318,-282,o),
(164,-234,o),
(88,-150,c),
(24,-304,l),
(100,-374,o),
(272,-438,o),
(456,-438,cs)
);
},
{
alignment = -1;
pos = (2,0);
ref = "_part.bowl-reverse.ss01";
}
);
width = 1255;
}
);
metricLeft = g;
metricRight = g;
},
{
color = 6;
glyphname = h;
kernLeft = LAT_H_UC;
kernRight = LAT_N_LC;
lastChange = "2023-11-22 11:34:34 +0000";
layers = (
{
anchors = (
{
name = bottom;
pos = (460,0);
},
{
name = center;
pos = (351,1262);
},
{
name = top;
pos = (400,1475);
}
);
background = {
shapes = (
{
closed = 1;
nodes = (
(498,1065,o),
(358,963,o),
(276,827,c),
(332,877,l),
(307,877,l),
(438,1540,l),
(377,1540,l),
(68,0,l),
(129,0,l),
(264,664,ls),
(303,856,o),
(494,1008,o),
(676,1008,cs),
(844,1008,o),
(924,879,o),
(874,631,cs),
(795,229,ls),
(772,113,o),
(784,51,o),
(874,-14,c),
(901,49,l),
(852,78,o),
(836,127,o),
(852,213,cs),
(936,633,ls),
(991,911,o),
(893,1065,o),
(676,1065,cs)
);
}
);
};
layerId = "AB099EFE-E788-4EFC-8633-CF147CB782A6";
shapes = (
{
closed = 1;
nodes = (
(881,48,l),
(827,80,o),
(817,134,o),
(833,212,cs),
(917,634,ls),
(972,912,o),
(878,1064,o),
(666,1064,cs),
(490,1064,o),
(352,960,o),
(272,828,c),
(329,878,l),
(303,878,l),
(435,1540,l),
(374,1540,l),
(66,0,l),
(126,0,l),
(260,664,ls),
(299,858,o),
(490,1008,o),
(666,1008,cs),
(830,1008,o),
(904,880,o),
(855,632,cs),
(775,228,ls),
(753,116,o),
(765,56,o),
(855,-14,c)
);
}
);
width = 1068;
},
{
anchors = (
{
name = bottom;
pos = (515,0);
},
{
name = center;
pos = (441,1298);
},
{
name = top;
pos = (488,1540);
}
);
background = {
shapes = (
{
closed = 1;
nodes = (
(370,0,l),
(493,614,ls),
(515,729,o),
(577,807,o),
(673,807,cs),
(742,807,o),
(812,766,o),
(787,651,cs),
(716,313,ls),
(667,84,o),
(796,-10,o),
(998,-18,c),
(1121,270,l),
(1080,279,o),
(1070,303,o),
(1084,377,cs),
(1152,700,ls),
(1201,938,o),
(1076,1098,o),
(841,1098,cs),
(701,1098,o),
(560,1040,o),
(499,885,c),
(597,1004,l),
(572,1004,l),
(677,1540,l),
(321,1540,l),
(13,0,l)
);
}
);
};
layerId = "2D8F7115-C311-411E-929D-56333CF7FFB2";
shapes = (
{
closed = 1;
nodes = (
(1115,270,l),
(1075,280,o),
(1050,304,o),
(1065,378,cs),
(1129,700,ls),
(1175,932,o),
(1063,1096,o),
(827,1096,cs),
(691,1096,o),
(553,1040,o),
(491,886,c),
(589,1004,l),
(563,1004,l),
(667,1540,l),
(313,1540,l),
(5,0,l),
(359,0,l),
(483,614,ls),
(506,730,o),
(567,806,o),
(657,806,cs),
(721,806,o),
(788,765,o),
(765,652,cs),
(695,314,ls),
(647,84,o),
(793,-12,o),
(991,-18,c)
);
}
);
width = 1229;
},
{
anchors = (
{
name = bottom;
pos = (479,0);
},
{
name = center;
pos = (371,1276);
},
{
name = top;
pos = (420,1499);
}
);
layerId = "8CC1EFAB-F3CB-44D1-8974-978FC52DD9AB";
shapes = (
{
closed = 1;
nodes = (
(954,140,l),
(890,154,o),
(893,186,o),
(912,282,cs),
(988,666,ls),
(1028,866,o),
(946,1076,o),
(686,1076,cs),
(520,1076,o),
(387,992,o),
(319,850,c),
(421,966,l),
(399,966,l),
(512,1540,l),
(337,1540,l),
(31,0,l),
(206,0,l),
(335,648,ls),
(368,812,o),
(500,918,o),
(646,918,cs),
(786,918,o),
(843,820,o),
(807,638,cs),
(734,268,ls),
(706,124,o),
(736,36,o),
(894,-16,c)
);
}
);
width = 1114;
}
);
metricRight = n;
unicode = 104;
},
{
color = 6;
glyphname = h.ss01;
kernLeft = LAT_H_UC;
kernRight = LAT_N_LC;
lastChange = "2023-11-22 11:34:34 +0000";
layers = (
{
anchors = (
{
name = bottom;
pos = (448,0);
},
{
name = center;
pos = (352,1262);
},
{
name = top;
pos = (401,1474);
}
);
layerId = "AB099EFE-E788-4EFC-8633-CF147CB782A6";
shapes = (
{
closed = 1;
nodes = (
(126,0,l),
(261,664,ls),
(300,857,o),
(488,1009,o),
(683,1009,cs),
(918,1009,o),
(922,793,o),
(890,631,cs),
(765,0,l),
(826,0,l),
(953,640,ls),
(1004,897,o),
(910,1064,o),
(679,1064,cs),
(507,1064,o),
(357,962,o),
(273,826,c),
(328,876,l),
(304,876,l),
(435,1540,l),
(376,1540,l),
(66,0,l)
);
}
);
width = 1090;
},
{
anchors = (
{
name = bottom;
pos = (501,0);
},
{
name = center;
pos = (441,1298);
},
{
name = top;
pos = (488,1540);
}
);
layerId = "2D8F7115-C311-411E-929D-56333CF7FFB2";
shapes = (
{
closed = 1;
nodes = (
(360,0,l),
(482,614,ls),
(505,729,o),
(587,805,o),
(683,805,cs),
(753,805,o),
(804,766,o),
(781,651,cs),
(650,0,l),
(1005,0,l),
(1146,700,ls),
(1194,938,o),
(1084,1096,o),
(851,1096,cs),
(732,1096,o),
(583,1053,o),
(529,932,c),
(585,983,l),
(556,983,l),
(667,1540,l),
(312,1540,l),
(5,0,l)
);
}
);
width = 1222;
},
{
anchors = (
{
name = bottom;
pos = (465,0);
},
{
name = center;
pos = (379,1274);
},
{
name = top;
pos = (426,1524);
}
);
layerId = "8CC1EFAB-F3CB-44D1-8974-978FC52DD9AB";
shapes = (
{
closed = 1;
nodes = (
(207,0,l),
(336,647,ls),
(371,825,o),
(520,921,o),
(670,921,cs),
(833,921,o),
(883,805,o),
(850,637,cs),
(723,0,l),
(899,0,l),
(1032,668,ls),
(1069,856,o),
(1014,1076,o),
(735,1076,cs),
(573,1076,o),
(430,1006,o),
(344,864,c),
(434,936,l),
(393,936,l),
(514,1540,l),
(338,1540,l),
(31,0,l)
);
}
);
width = 1128;
}
);
metricLeft = h;
metricRight = n.ss01;
},
{
color = 6;
glyphname = idotless;
lastChange = "2023-11-22 11:34:34 +0000";
layers = (
{
anchors = (
{
name = bottom;
pos = (187,0);
},
{
name = center;
pos = (222,569);
},
{
name = ogonek;
pos = (250,-16);
},
{
name = top;
pos = (320,1048);
}
);
background = {
shapes = (
{
closed = 1;
nodes = (
(270,-8,o),
(307,-2,o),
(324,6,c),
(338,74,l),
(309,59,o),
(266,49,o),
(242,49,cs),
(162,49,o),
(180,133,o),
(190,184,cs),
(362,1048,l),
(301,1048,l),
(135,225,ls),
(113,117,o),
(102,-8,o),
(240,-8,cs)
);
}
);
};
guides = (
{
angle = 80;
pos = (64,-8);
}
);
layerId = "AB099EFE-E788-4EFC-8633-CF147CB782A6";
shapes = (
{
closed = 1;
nodes = (
(276,42,l),
(210,62,o),
(160,76,o),
(184,198,cs),
(353,1048,l),
(292,1048,l),
(130,236,ls),
(108,128,o),
(102,26,o),
(250,-16,c)
);
}
);
width = 486;
},
{
anchors = (
{
name = bottom;
pos = (221,0);
},
{
name = center;
pos = (301,569);
},
{
name = ogonek;
pos = (436,-16);
},
{
name = top;
pos = (397,1080);
}
);
background = {
shapes = (
{
closed = 1;
nodes = (
(389,-16,o),
(469,-4,o),
(518,20,c),
(569,307,l),
(551,295,o),
(520,283,o),
(492,283,cs),
(457,283,o),
(438,299,o),
(446,340,cs),
(594,1080,l),
(240,1080,l),
(86,311,ls),
(53,147,o),
(111,-16,o),
(334,-16,cs)
);
}
);
};
guides = (
{
angle = 80;
pos = (144,-8);
}
);
layerId = "2D8F7115-C311-411E-929D-56333CF7FFB2";
shapes = (
{
closed = 1;
nodes = (
(558,272,l),
(518,282,o),
(423,302,o),
(442,396,cs),
(580,1080,l),
(224,1080,l),
(90,412,ls),
(37,146,o),
(150,-4,o),
(436,-16,c)
);
}
);
width = 648;
},
{
anchors = (
{
name = bottom;
pos = (197,0);
},
{
name = center;
pos = (248,569);
},
{
name = ogonek;
pos = (315,-16);
},
{
name = top;
pos = (348,1060);
}
);
layerId = "8CC1EFAB-F3CB-44D1-8974-978FC52DD9AB";
shapes = (
{
closed = 1;
nodes = (
(382,144,l),
(322,154,o),
(262,174,o),
(278,254,cs),
(437,1060,l),
(262,1060,l),
(110,290,ls),
(78,130,o),
(114,14,o),
(318,-16,c)
);
}
);
width = 550;
}
);
unicode = 305;
},
{
color = 6;
glyphname = idotless.ss01;
lastChange = "2023-11-22 11:34:34 +0000";
layers = (
{
anchors = (
{
name = bottom;
pos = (97,0);
},
{
name = ogonek;
pos = (133,0);
},
{
name = top;
pos = (310,1048);
}
);
layerId = "AB099EFE-E788-4EFC-8633-CF147CB782A6";
shapes = (
{
closed = 1;
nodes = (
(133,0,l),
(342,1048,l),
(281,1048,l),
(72,0,l)
);
}
);
width = 414;
},
{
anchors = (
{
name = bottom;
pos = (191,0);
},
{
name = ogonek;
pos = (366,0);
},
{
name = top;
pos = (409,1080);
}
);
guides = (
{
angle = 60;
pos = (83,0);
}
);
layerId = "2D8F7115-C311-411E-929D-56333CF7FFB2";
shapes = (
{
closed = 1;
nodes = (
(366,0,l),
(583,1080,l),
(228,1080,l),
(11,0,l)
);
}
);
width = 594;
},
{
anchors = (
{
name = bottom;
pos = (121,0);
},
{
name = ogonek;
pos = (209,0);
},
{
name = top;
pos = (338,1060);
}
);
layerId = "8CC1EFAB-F3CB-44D1-8974-978FC52DD9AB";
shapes = (
{
closed = 1;
nodes = (
(209,0,l),
(424,1060,l),
(250,1060,l),
(35,0,l)
);
}
);
width = 459;
}
);
},
{
color = 6;
glyphname = jdotless;
kernLeft = LAT_J_LC;
kernRight = LAT_J_LC;
lastChange = "2023-11-22 11:34:34 +0000";
layers = (
{
anchors = (
{
name = center;
pos = (243,569);
},
{
name = top;
pos = (337,1048);
}
);
layerId = "AB099EFE-E788-4EFC-8633-CF147CB782A6";
shapes = (
{
closed = 1;
nodes = (
(-8,-438,o),
(98,-312,o),
(132,-144,cs),
(370,1048,l),
(309,1048,l),
(70,-148,ls),
(45,-274,o),
(-36,-382,o),
(-164,-382,cs),
(-176,-382,o),
(-200,-379,o),
(-224,-371,c),
(-236,-426,l),
(-210,-434,o),
(-180,-438,o),
(-156,-438,cs)
);
}
);
width = 438;
},
{
anchors = (
{
name = center;
pos = (324,569);
},
{
name = top;
pos = (420,1080);
}
);
layerId = "2D8F7115-C311-411E-929D-56333CF7FFB2";
shapes = (
{
closed = 1;
nodes = (
(178,-446,o),
(331,-280,o),
(381,-30,cs),
(601,1080,l),
(246,1080,l),
(28,-20,ls),
(17,-74,o),
(-32,-132,o),
(-110,-132,cs),
(-124,-132,o),
(-166,-132,o),
(-182,-124,c),
(-246,-426,l),
(-190,-438,o),
(-136,-446,o),
(-78,-446,cs)
);
}
);
width = 612;
},
{
anchors = (
{
name = center;
pos = (279,569);
},
{
name = top;
pos = (375,1060);
}
);
layerId = "8CC1EFAB-F3CB-44D1-8974-978FC52DD9AB";
shapes = (
{
closed = 1;
nodes = (
(70,-438,o),
(193,-300,o),
(224,-144,cs),
(463,1060,l),
(288,1060,l),
(55,-114,ls),
(34,-218,o),
(-36,-274,o),
(-130,-274,cs),
(-152,-274,o),
(-184,-270,o),
(-210,-260,c),
(-242,-420,l),
(-230,-424,o),
(-174,-438,o),
(-120,-438,cs)
);
}
);
width = 492;
}
);
unicode = 567;
},
{
color = 6;
glyphname = k;
kernLeft = LAT_H_UC;
kernRight = LAT_K_LC;
lastChange = "2023-11-22 11:34:34 +0000";
layers = (
{
anchors = (
{
name = bottom;
pos = (402,0);
},
{
name = top;
pos = (400,1540);
}
);
layerId = "AB099EFE-E788-4EFC-8633-CF147CB782A6";
shapes = (
{
closed = 1;
nodes = (
(127,0,l),
(228,504,l),
(306,504,l),
(270,528,l),
(700,0,l),
(772,0,l),
(324,550,l),
(326,514,l),
(944,1048,l),
(859,1048,l),
(270,540,l),
(316,564,l),
(240,564,l),
(435,1540,l),
(374,1540,l),
(66,0,l)
);
}
);
width = 932;
},
{
anchors = (
{
name = bottom;
pos = (513,0);
},
{
name = top;
pos = (491,1540);
}
);
layerId = "2D8F7115-C311-411E-929D-56333CF7FFB2";
shapes = (
{
closed = 1;
nodes = (
(359,0,l),
(449,442,l),
(555,442,l),
(443,514,l),
(715,0,l),
(1083,0,l),
(713,652,l),
(733,456,l),
(1291,1080,l),
(873,1080,l),
(483,606,l),
(587,648,l),
(490,648,l),
(668,1540,l),
(313,1540,l),
(5,0,l)
);
}
);
width = 1199;
},
{
anchors = (
{
name = bottom;
pos = (435,0);
},
{
name = top;
pos = (423,1540);
}
);
layerId = "8CC1EFAB-F3CB-44D1-8974-978FC52DD9AB";
shapes = (
{
closed = 1;
nodes = (
(206,0,l),
(304,482,l),
(391,482,l),
(339,536,l),
(717,0,l),
(915,0,l),
(489,596,l),
(503,504,l),
(1083,1060,l),
(847,1060,l),
(367,588,l),
(425,614,l),
(330,614,l),
(512,1540,l),
(337,1540,l),
(31,0,l)
);
}
);
width = 1064;
}
);
metricLeft = h;
unicode = 107;
},
{
color = 6;
glyphname = kgreenlandic;
lastChange = "2023-11-22 11:34:34 +0000";
layers = (
{
anchors = (
{
name = bottom;
pos = (374,0);
},
{
name = top;
pos = (583,1048);
}
);
layerId = "AB099EFE-E788-4EFC-8633-CF147CB782A6";
shapes = (
{
closed = 1;
nodes = (
(127,0,l),
(227,504,l),
(302,504,l),
(270,528,l),
(699,0,l),
(771,0,l),
(326,546,l),
(320,510,l),
(944,1048,l),
(859,1048,l),
(271,542,l),
(314,564,l),
(239,564,l),
(335,1048,l),
(274,1048,l),
(66,0,l)
);
}
);
width = 931;
},
{
anchors = (
{
name = bottom;
pos = (495,0);
},
{
name = top;
pos = (712,1080);
}
);
layerId = "2D8F7115-C311-411E-929D-56333CF7FFB2";
shapes = (
{
closed = 1;
nodes = (
(361,0,l),
(453,456,l),
(519,456,l),
(427,508,l),
(685,0,l),
(1087,0,l),
(715,668,l),
(679,464,l),
(1295,1080,l),
(865,1080,l),
(443,606,l),
(563,660,l),
(495,660,l),
(579,1080,l),
(223,1080,l),
(5,0,l)
);
}
);
width = 1203;
},
{
anchors = (
{
name = bottom;
pos = (402,0);
},
{
name = top;
pos = (615,1060);
}
);
layerId = "8CC1EFAB-F3CB-44D1-8974-978FC52DD9AB";
shapes = (
{
closed = 1;
nodes = (
(202,0,l),
(299,486,l),
(369,486,l),
(309,520,l),
(671,0,l),
(873,0,l),
(455,596,l),
(439,496,l),
(1063,1060,l),
(843,1060,l),
(317,566,l),
(393,600,l),
(322,600,l),
(415,1060,l),
(239,1060,l),
(27,0,l)
);
}
);
width = 1022;
}
);
metricLeft = n;
metricRight = k;
unicode = 312;
},
{
color = 6;
glyphname = l;
kernLeft = LAT_L_LC;
kernRight = LAT_L_LC;
lastChange = "2023-11-22 11:34:34 +0000";
layers = (
{
anchors = (
{
name = bottom;
pos = (156,0);
},
{
name = center;
pos = (250,766);
},
{
name = dot;
pos = (487,737);
},
{
name = top;
pos = (403,1540);
},
{
name = topright;
pos = (442,1540);
}
);
background = {
shapes = (
{
pos = (-8,0);
ref = l.ss01;
}
);
};
layerId = "AB099EFE-E788-4EFC-8633-CF147CB782A6";
shapes = (
{
closed = 1;
nodes = (
(228,-8,o),
(261,-4,o),
(281,8,c),
(291,68,l),
(271,56,o),
(233,48,o),
(207,48,cs),
(162,48,o),
(145,91,o),
(161,170,cs),
(436,1540,l),
(375,1540,l),
(103,188,ls),
(88,112,o),
(73,-8,o),
(204,-8,cs)
);
}
);
width = 456;
},
{
anchors = (
{
name = bottom;
pos = (225,0);
},
{
name = center;
pos = (338,807);
},
{
name = dot;
pos = (840,754);
},
{
name = top;
pos = (487,1540);
},
{
name = topright;
pos = (633,1540);
}
);
background = {
shapes = (
{
pos = (-6,0);
ref = l.ss01;
}
);
};
layerId = "2D8F7115-C311-411E-929D-56333CF7FFB2";
shapes = (
{
closed = 1;
nodes = (
(369,-16,o),
(449,-8,o),
(499,16,c),
(549,296,l),
(531,288,o),
(504,284,o),
(486,284,cs),
(437,284,o),
(423,313,o),
(433,362,cs),
(669,1540,l),
(311,1540,l),
(69,312,ls),
(28,106,o),
(129,-16,o),
(321,-16,cs)
);
}
);
width = 659;
},
{
anchors = (
{
name = bottom;
pos = (176,0);
},
{
name = center;
pos = (278,782);
},
{
name = dot;
pos = (622,768);
},
{
name = top;
pos = (427,1540);
},
{
name = topright;
pos = (676,1540);
}
);
layerId = "8CC1EFAB-F3CB-44D1-8974-978FC52DD9AB";
shapes = (
{
closed = 1;
nodes = (
(303,-14,o),
(337,-8,o),
(365,0,c),
(387,164,l),
(373,160,o),
(341,150,o),
(313,150,cs),
(263,150,o),
(243,183,o),
(255,244,cs),
(515,1540,l),
(340,1540,l),
(79,242,ls),
(46,80,o),
(125,-14,o),
(267,-14,cs)
);
}
);
width = 534;
}
);
metricLeft = h;
unicode = 108;
},
{
color = 6;
glyphname = l.ss01;
kernLeft = LAT_H_UC;
kernRight = LAT_H_UC;
lastChange = "2023-11-22 11:34:34 +0000";
layers = (
{
anchors = (
{
name = bottom;
pos = (117,0);
},
{
name = center;
pos = (263,732);
},
{
name = dot;
pos = (486,737);
},
{
name = top;
pos = (424,1540);
},
{
name = topright;
pos = (455,1540);
}
);
layerId = "AB099EFE-E788-4EFC-8633-CF147CB782A6";
shapes = (
{
closed = 1;
nodes = (
(147,0,l),
(455,1540,l),
(394,1540,l),
(86,0,l)
);
}
);
width = 443;
},
{
anchors = (
{
name = bottom;
pos = (207,0);
},
{
name = center;
pos = (367,807);
},
{
name = dot;
pos = (843,754);
},
{
name = top;
pos = (513,1540);
},
{
name = topright;
pos = (691,1540);
}
);
layerId = "2D8F7115-C311-411E-929D-56333CF7FFB2";
shapes = (
{
closed = 1;
nodes = (
(384,0,l),
(691,1540,l),
(336,1540,l),
(29,0,l)
);
}
);
width = 628;
},
{
anchors = (
{
name = bottom;
pos = (147,0);
},
{
name = center;
pos = (301,762);
},
{
name = dot;
pos = (618,743);
},
{
name = top;
pos = (453,1540);
},
{
name = topright;
pos = (543,1540);
}
);
layerId = "8CC1EFAB-F3CB-44D1-8974-978FC52DD9AB";
shapes = (
{
closed = 1;
nodes = (
(235,0,l),
(542,1540,l),
(367,1540,l),
(60,0,l)
);
}
);
width = 506;
}
);
},
{
color = 6;
glyphname = m;
kernLeft = LAT_N_LC;
kernRight = LAT_N_LC;
lastChange = "2023-11-22 11:34:34 +0000";
layers = (
{
anchors = (
{
name = bottom;
pos = (703,0);
},
{
name = leghookleft;
pos = (1320,0);
},
{
name = top;
pos = (912,1048);
}
);
layerId = "AB099EFE-E788-4EFC-8633-CF147CB782A6";
shapes = (
{
closed = 1;
nodes = (
(1433,48,l),
(1381,80,o),
(1369,136,o),
(1385,212,cs),
(1485,684,ls),
(1541,950,o),
(1400,1064,o),
(1230,1064,cs),
(1044,1064,o),
(936,938,o),
(876,832,c),
(906,840,l),
(862,840,l),
(882,814,l),
(880,942,o),
(770,1064,o),
(610,1064,cs),
(452,1064,o),
(334,958,o),
(280,828,c),
(317,876,l),
(301,876,l),
(335,1048,l),
(274,1048,l),
(66,0,l),
(127,0,l),
(256,648,ls),
(289,812,o),
(424,1008,o),
(610,1008,cs),
(724,1008,o),
(860,928,o),
(814,684,cs),
(686,0,l),
(747,0,l),
(873,674,ls),
(900,816,o),
(1036,1008,o),
(1226,1008,cs),
(1338,1008,o),
(1479,944,o),
(1421,672,cs),
(1327,228,ls),
(1306,128,o),
(1309,60,o),
(1407,-14,c)
);
}
);
width = 1620;
},
{
anchors = (
{
name = bottom;
pos = (787,0);
},
{
name = leghookleft;
pos = (1377,0);
},
{
name = top;
pos = (1000,1080);
}
);
layerId = "2D8F7115-C311-411E-929D-56333CF7FFB2";
shapes = (
{
closed = 1;
nodes = (
(1693,272,l),
(1651,282,o),
(1624,308,o),
(1639,380,cs),
(1697,660,ls),
(1753,928,o),
(1605,1096,o),
(1371,1096,cs),
(1219,1096,o),
(1105,1008,o),
(1029,918,c),
(1073,934,l),
(1005,934,l),
(1047,896,l),
(1033,1016,o),
(951,1096,o),
(821,1096,cs),
(681,1096,o),
(563,1028,o),
(463,832,c),
(577,946,l),
(527,946,l),
(559,1080,l),
(223,1080,l),
(5,0,l),
(359,0,l),
(479,586,ls),
(500,690,o),
(551,806,o),
(655,806,cs),
(727,806,o),
(766,750,o),
(749,660,cs),
(625,0,l),
(979,0,l),
(1089,586,ls),
(1104,668,o),
(1139,806,o),
(1249,806,cs),
(1321,806,o),
(1359,750,o),
(1341,660,cs),
(1271,314,ls),
(1236,140,o),
(1297,10,o),
(1571,-16,c)
);
}
);
width = 1806;
},
{
anchors = (
{
name = bottom;
pos = (724,0);
},
{
name = leghookleft;
pos = (1329,0);
},
{
name = top;
pos = (939,1060);
}
);
layerId = "8CC1EFAB-F3CB-44D1-8974-978FC52DD9AB";
shapes = (
{
closed = 1;
nodes = (
(1508,140,l),
(1441,155,o),
(1440,191,o),
(1460,282,cs),
(1548,698,ls),
(1597,928,o),
(1455,1078,o),
(1246,1078,cs),
(1078,1078,o),
(959,978,o),
(889,848,c),
(985,906,l),
(871,906,l),
(945,838,l),
(919,976,o),
(810,1078,o),
(667,1078,cs),
(523,1078,o),
(399,986,o),
(335,840,c),
(417,926,l),
(380,926,l),
(406,1060,l),
(239,1060,l),
(27,0,l),
(202,0,l),
(317,574,ls),
(356,770,o),
(464,922,o),
(615,922,cs),
(728,922,o),
(802,840,o),
(769,664,cs),
(645,0,l),
(820,0,l),
(927,580,ls),
(962,770,o),
(1069,922,o),
(1230,922,cs),
(1347,922,o),
(1403,840,o),
(1369,682,cs),
(1281,268,ls),
(1260,170,o),
(1251,46,o),
(1446,-16,c)
);
}
);
width = 1668;
}
);
metricLeft = n;
metricRight = n;
unicode = 109;
},
{
color = 6;
glyphname = m.ss01;
kernLeft = LAT_N_LC;
kernRight = LAT_N_LC;
lastChange = "2023-11-22 11:34:34 +0000";
layers = (
{
anchors = (
{
name = bottom;
pos = (715,0);
},
{
name = leghookleft;
pos = (1337,0);
},
{
name = top;
pos = (924,1048);
}
);
guides = (
{
angle = 60;
pos = (195,358);
}
);
layerId = "AB099EFE-E788-4EFC-8633-CF147CB782A6";
shapes = (
{
closed = 1;
nodes = (
(128,0,l),
(257,647,ls),
(290,811,o),
(441,1008,o),
(635,1008,cs),
(754,1008,o),
(873,928,o),
(824,684,cs),
(687,0,l),
(749,0,l),
(882,672,ls),
(910,815,o),
(1060,1008,o),
(1256,1008,cs),
(1366,1008,o),
(1496,944,o),
(1441,672,cs),
(1306,0,l),
(1367,0,l),
(1504,684,ls),
(1557,949,o),
(1417,1064,o),
(1255,1064,cs),
(1071,1064,o),
(952,937,o),
(893,830,c),
(921,839,l),
(876,839,l),
(896,814,l),
(892,955,o),
(785,1064,o),
(638,1064,cs),
(482,1064,o),
(368,965,o),
(275,827,c),
(311,855,l),
(296,855,l),
(335,1048,l),
(275,1048,l),
(66,0,l)
);
}
);
width = 1632;
},
{
anchors = (
{
name = bottom;
pos = (796,0);
},
{
name = leghookleft;
pos = (1390,0);
},
{
name = top;
pos = (1009,1080);
}
);
layerId = "2D8F7115-C311-411E-929D-56333CF7FFB2";
shapes = (
{
closed = 1;
nodes = (
(360,0,l),
(493,664,ls),
(509,743,o),
(560,804,o),
(636,804,cs),
(716,804,o),
(758,741,o),
(742,659,cs),
(610,0,l),
(967,0,l),
(1098,664,ls),
(1114,743,o),
(1162,804,o),
(1240,804,cs),
(1318,804,o),
(1363,743,o),
(1346,659,cs),
(1215,0,l),
(1570,0,l),
(1701,659,ls),
(1754,928,o),
(1605,1096,o),
(1377,1096,cs),
(1232,1096,o),
(1125,1026,o),
(1029,913,c),
(1091,950,l),
(1021,950,l),
(1076,903,l),
(1037,1024,o),
(970,1096,o),
(835,1096,cs),
(691,1096,o),
(564,1028,o),
(468,831,c),
(577,946,l),
(530,946,l),
(557,1080,l),
(222,1080,l),
(5,0,l)
);
}
);
width = 1785;
},
{
anchors = (
{
name = bottom;
pos = (745,0);
},
{
name = leghookleft;
pos = (1368,0);
},
{
name = top;
pos = (960,1060);
}
);
layerId = "8CC1EFAB-F3CB-44D1-8974-978FC52DD9AB";
shapes = (
{
closed = 1;
nodes = (
(203,0,l),
(330,635,ls),
(364,807,o),
(496,921,o),
(633,921,cs),
(756,921,o),
(819,834,o),
(782,649,cs),
(651,0,l),
(827,0,l),
(956,641,ls),
(990,809,o),
(1118,921,o),
(1255,921,cs),
(1378,921,o),
(1446,838,o),
(1407,647,cs),
(1276,0,l),
(1452,0,l),
(1589,680,ls),
(1635,909,o),
(1536,1076,o),
(1288,1076,cs),
(1100,1076,o),
(975,972,o),
(907,852,c),
(1012,908,l),
(897,908,l),
(963,842,l),
(934,982,o),
(858,1076,o),
(696,1076,cs),
(526,1076,o),
(403,979,o),
(334,834,c),
(420,924,l),
(380,924,l),
(407,1060,l),
(240,1060,l),
(27,0,l)
);
}
);
width = 1682;
}
);
metricLeft = n;
metricRight = n.ss01;
},
{
color = 6;
glyphname = n;
kernLeft = LAT_N_LC;
kernRight = LAT_N_LC;
lastChange = "2023-11-22 11:34:34 +0000";
layers = (
{
anchors = (
{
name = bottom;
pos = (464,0);
},
{
name = leghookleft;
pos = (99,0);
},
{
name = leghookretroflex;
pos = (765,0);
},
{
name = top;
pos = (663,1048);
}
);
layerId = "AB099EFE-E788-4EFC-8633-CF147CB782A6";
shapes = (
{
closed = 1;
nodes = (
(877,48,l),
(819,82,o),
(810,140,o),
(825,212,cs),
(925,678,ls),
(974,906,o),
(864,1064,o),
(658,1064,cs),
(472,1064,o),
(348,960,o),
(272,828,c),
(330,876,l),
(301,876,l),
(335,1048,l),
(274,1048,l),
(66,0,l),
(127,0,l),
(259,666,ls),
(295,850,o),
(460,1008,o),
(654,1008,cs),
(820,1008,o),
(905,872,o),
(863,676,cs),
(767,228,ls),
(745,126,o),
(753,56,o),
(851,-14,c)
);
}
);
width = 1064;
},
{
anchors = (
{
name = bottom;
pos = (505,0);
},
{
name = leghookleft;
pos = (181,0);
},
{
name = leghookretroflex;
pos = (810,0);
},
{
name = top;
pos = (742,1080);
}
);
layerId = "2D8F7115-C311-411E-929D-56333CF7FFB2";
shapes = (
{
closed = 1;
nodes = (
(1115,272,l),
(1075,282,o),
(1049,306,o),
(1065,380,cs),
(1133,702,ls),
(1184,942,o),
(1051,1096,o),
(849,1096,cs),
(693,1096,o),
(553,1016,o),
(483,832,c),
(577,938,l),
(535,938,l),
(563,1080,l),
(221,1080,l),
(5,0,l),
(359,0,l),
(475,574,ls),
(507,730,o),
(567,808,o),
(659,808,cs),
(723,808,o),
(792,768,o),
(767,652,cs),
(695,314,ls),
(646,84,o),
(791,-4,o),
(995,-16,c)
);
}
);
width = 1228;
},
{
anchors = (
{
name = bottom;
pos = (458,0);
},
{
name = leghookleft;
pos = (110,0);
},
{
name = leghookretroflex;
pos = (753,0);
},
{
name = top;
pos = (675,1060);
}
);
layerId = "8CC1EFAB-F3CB-44D1-8974-978FC52DD9AB";
shapes = (
{
closed = 1;
nodes = (
(931,138,l),
(865,152,o),
(862,184,o),
(883,280,cs),
(975,708,ls),
(1021,924,o),
(899,1076,o),
(687,1076,cs),
(525,1076,o),
(413,990,o),
(327,844,c),
(413,926,l),
(379,926,l),
(407,1060,l),
(239,1060,l),
(27,0,l),
(202,0,l),
(324,608,ls),
(360,786,o),
(487,920,o),
(637,920,cs),
(761,920,o),
(825,828,o),
(793,678,cs),
(704,266,ls),
(681,158,o),
(679,36,o),
(869,-18,c)
);
}
);
width = 1091;
}
);
unicode = 110;
},
{
color = 6;
glyphname = n.ss01;
kernLeft = LAT_N_LC;
kernRight = LAT_N_LC;
lastChange = "2023-11-22 11:34:34 +0000";
layers = (
{
anchors = (
{
name = bottom;
pos = (469,0);
},
{
name = leghookleft;
pos = (100,0);
},
{
name = leghookright;
pos = (796,0);
},
{
name = top;
pos = (682,1048);
}
);
layerId = "AB099EFE-E788-4EFC-8633-CF147CB782A6";
shapes = (
{
closed = 1;
nodes = (
(127,0,l),
(259,664,ls),
(295,847,o),
(460,1008,o),
(658,1008,cs),
(848,1008,o),
(937,860,o),
(893,641,cs),
(765,0,l),
(826,0,l),
(954,642,ls),
(1005,898,o),
(891,1064,o),
(662,1064,cs),
(487,1064,o),
(344,964,o),
(273,827,c),
(333,876,l),
(298,876,l),
(333,1048,l),
(275,1048,l),
(66,0,l)
);
}
);
width = 1091;
},
{
anchors = (
{
name = bottom;
pos = (497,0);
},
{
name = leghookleft;
pos = (181,0);
},
{
name = leghookright;
pos = (828,0);
},
{
name = top;
pos = (751,1080);
}
);
layerId = "2D8F7115-C311-411E-929D-56333CF7FFB2";
shapes = (
{
closed = 1;
nodes = (
(359,0,l),
(482,614,ls),
(505,729,o),
(572,805,o),
(665,805,cs),
(734,805,o),
(800,766,o),
(777,651,cs),
(648,0,l),
(1003,0,l),
(1142,702,ls),
(1189,940,o),
(1047,1096,o),
(828,1096,cs),
(680,1096,o),
(556,1026,o),
(486,841,c),
(579,934,l),
(526,934,l),
(554,1080,l),
(220,1080,l),
(5,0,l)
);
}
);
width = 1218;
},
{
anchors = (
{
name = bottom;
pos = (469,0);
},
{
name = leghookleft;
pos = (117,0);
},
{
name = leghookright;
pos = (807,0);
},
{
name = top;
pos = (711,1060);
}
);
layerId = "8CC1EFAB-F3CB-44D1-8974-978FC52DD9AB";
shapes = (
{
closed = 1;
nodes = (
(202,0,l),
(334,653,ls),
(364,803,o),
(500,921,o),
(651,921,cs),
(798,921,o),
(881,808,o),
(850,653,cs),
(720,0,l),
(895,0,l),
(1028,668,ls),
(1075,904,o),
(940,1076,o),
(702,1076,cs),
(541,1076,o),
(418,997,o),
(336,858,c),
(428,930,l),
(381,930,l),
(408,1060,l),
(240,1060,l),
(27,0,l)
);
}
);
width = 1124;
}
);
metricLeft = n;
},
{
color = 6;
glyphname = o;
kernLeft = LAT_O_LC;
kernRight = LAT_O_LC;
lastChange = "2023-11-22 11:34:34 +0000";
layers = (
{
anchors = (
{
name = bottom;
pos = (494,0);
},
{
name = center;
pos = (576,524);
},
{
name = horn;
pos = (888,983);
},
{
name = ogonek;
pos = (608,0);
},
{
name = top;
pos = (666,1048);
},
{
name = topright;
pos = (1196,1048);
}
);
background = {
shapes = (
{
closed = 1;
nodes = (
(763,-16,o),
(970,184,o),
(1028,472,cs),
(1091,783,o),
(952,1064,o),
(643,1064,cs),
(382,1064,o),
(181,863,o),
(124,583,cs),
(60,268,o),
(206,-16,o),
(509,-16,cs)
);
},
{
closed = 1;
nodes = (
(250,40,o),
(126,282,o),
(183,568,cs),
(235,828,o),
(415,1008,o),
(640,1008,cs),
(901,1008,o),
(1029,765,o),
(968,480,cs),
(917,238,o),
(747,40,o),
(511,40,cs)
);
}
);
};
layerId = "AB099EFE-E788-4EFC-8633-CF147CB782A6";
shapes = (
{
closed = 1;
nodes = (
(824,-16,o),
(1043,288,o),
(1043,616,cs),
(1043,865,o),
(903,1064,o),
(643,1064,cs),
(327,1064,o),
(109,767,o),
(109,439,cs),
(109,187,o),
(253,-16,o),
(509,-16,cs)
);
},
{
closed = 1;
nodes = (
(292,40,o),
(169,211,o),
(169,434,cs),
(169,727,o),
(356,1008,o),
(640,1008,cs),
(858,1008,o),
(983,839,o),
(983,617,cs),
(983,325,o),
(791,40,o),
(511,40,cs)
);
}
);
width = 1150;
},
{
anchors = (
{
name = bottom;
pos = (479,0);
},
{
name = center;
pos = (587,540);
},
{
name = horn;
pos = (965,989);
},
{
name = ogonek;
pos = (610,0);
},
{
name = top;
pos = (676,1080);
},
{
name = topright;
pos = (1217,1080);
}
);
background = {
shapes = (
{
closed = 1;
nodes = (
(824,-16,o),
(1049,210,o),
(1106,500,cs),
(1171,829,o),
(966,1096,o),
(642,1096,cs),
(334,1096,o),
(124,872,o),
(66,586,cs),
(0,258,o),
(194,-16,o),
(516,-16,cs)
);
},
{
closed = 1;
nodes = (
(418,280,o),
(374,382,o),
(396,526,cs),
(420,686,o),
(506,798,o),
(630,798,cs),
(744,798,o),
(793,700,o),
(776,564,cs),
(759,426,o),
(684,280,o),
(540,280,cs)
);
}
);
};
layerId = "2D8F7115-C311-411E-929D-56333CF7FFB2";
shapes = (
{
closed = 1;
nodes = (
(857,-16,o),
(1118,281,o),
(1118,611,cs),
(1118,894,o),
(926,1096,o),
(644,1096,cs),
(303,1096,o),
(55,803,o),
(55,472,cs),
(55,188,o),
(236,-16,o),
(516,-16,cs)
);
},
{
closed = 1;
nodes = (
(444,280,o),
(393,353,o),
(393,471,cs),
(393,626,o),
(481,800,o),
(631,800,cs),
(728,800,o),
(780,725,o),
(780,607,cs),
(780,452,o),
(691,280,o),
(541,280,cs)
);
}
);
width = 1172;
},
{
anchors = (
{
name = bottom;
pos = (485,0);
},
{
name = center;
pos = (575,530);
},
{
name = horn;
pos = (899,997);
},
{
name = ogonek;
pos = (604,0);
},
{
name = top;
pos = (659,1060);
},
{
name = topright;
pos = (1192,1060);
}
);
background = {
shapes = (
{
closed = 1;
nodes = (
(778,-16,o),
(988,188,o),
(1048,480,cs),
(1114,810,o),
(962,1076,o),
(644,1076,cs),
(368,1076,o),
(156,864,o),
(100,582,cs),
(36,254,o),
(200,-16,o),
(514,-16,cs)
);
},
{
closed = 1;
nodes = (
(314,144,o),
(229,326,o),
(273,552,cs),
(319,778,o),
(458,916,o),
(636,916,cs),
(830,916,o),
(920,740,o),
(876,520,cs),
(836,314,o),
(706,144,o),
(512,144,cs)
);
}
);
};
layerId = "8CC1EFAB-F3CB-44D1-8974-978FC52DD9AB";
shapes = (
{
closed = 1;
nodes = (
(838,-16,o),
(1063,291,o),
(1063,619,cs),
(1063,887,o),
(913,1076,o),
(649,1076,cs),
(319,1076,o),
(87,781,o),
(87,453,cs),
(87,183,o),
(245,-16,o),
(509,-16,cs)
);
},
{
closed = 1;
nodes = (
(348,144,o),
(263,269,o),
(263,447,cs),
(263,677,o),
(405,916,o),
(636,916,cs),
(798,916,o),
(887,797,o),
(887,619,cs),
(887,389,o),
(738,144,o),
(511,144,cs)
);
}
);
width = 1148;
}
);
unicode = 111;
},
{
color = 6;
glyphname = o.ss01;
kernLeft = LAT_O_LC;
kernRight = LAT_O_LC;
lastChange = "2023-11-22 11:34:34 +0000";
layers = (
{
anchors = (
{
name = bottom;
pos = (522,0);
},
{
name = center;
pos = (608,524);
},
{
name = horn;
pos = (929,983);
},
{
name = ogonek;
pos = (645,0);
},
{
name = top;
pos = (691,1048);
},
{
name = topright;
pos = (1256,1048);
}
);
background = {
shapes = (
{
closed = 1;
nodes = (
(804,-16,o),
(1026,182,o),
(1084,474,cs),
(1148,792,o),
(990,1064,o),
(670,1064,cs),
(398,1064,o),
(180,868,o),
(124,582,cs),
(60,262,o),
(216,-16,o),
(546,-16,cs)
);
},
{
closed = 1;
nodes = (
(260,40,o),
(126,280,o),
(182,568,cs),
(234,828,o),
(428,1008,o),
(668,1008,cs),
(950,1008,o),
(1081,766,o),
(1025,486,cs),
(971,224,o),
(782,40,o),
(542,40,cs)
);
}
);
};
layerId = "AB099EFE-E788-4EFC-8633-CF147CB782A6";
shapes = (
{
closed = 1;
nodes = (
(867,-16,o),
(1098,279,o),
(1098,602,cs),
(1098,867,o),
(943,1064,o),
(671,1064,cs),
(340,1064,o),
(110,773,o),
(110,449,cs),
(110,183,o),
(265,-16,o),
(537,-16,cs)
);
},
{
closed = 1;
nodes = (
(302,40,o),
(169,210,o),
(169,445,cs),
(169,737,o),
(374,1008,o),
(670,1008,cs),
(907,1008,o),
(1038,834,o),
(1038,602,cs),
(1038,312,o),
(834,40,o),
(538,40,cs)
);
}
);
width = 1208;
},
{
anchors = (
{
name = bottom;
pos = (506,0);
},
{
name = center;
pos = (608,541);
},
{
name = horn;
pos = (999,989);
},
{
name = ogonek;
pos = (645,0);
},
{
name = top;
pos = (713,1080);
},
{
name = topright;
pos = (1278,1080);
}
);
background = {
shapes = (
{
closed = 1;
nodes = (
(898,-16,o),
(1108,226,o),
(1160,484,cs),
(1228,826,o),
(1008,1096,o),
(664,1096,cs),
(324,1096,o),
(114,856,o),
(62,598,cs),
(2,302,o),
(154,-16,o),
(558,-16,cs)
);
},
{
closed = 1;
nodes = (
(432,280,o),
(366,420,o),
(396,566,cs),
(422,698,o),
(516,798,o),
(644,798,cs),
(784,798,o),
(856,678,o),
(826,522,cs),
(802,398,o),
(720,280,o),
(582,280,cs)
);
}
);
};
layerId = "2D8F7115-C311-411E-929D-56333CF7FFB2";
shapes = (
{
closed = 1;
nodes = (
(907,-16,o),
(1172,258,o),
(1172,594,cs),
(1172,890,o),
(966,1096,o),
(666,1096,cs),
(315,1096,o),
(49,818,o),
(49,482,cs),
(49,219,o),
(212,-16,o),
(546,-16,cs)
);
},
{
closed = 1;
nodes = (
(456,280,o),
(389,379,o),
(389,501,cs),
(389,651,o),
(490,798,o),
(645,798,cs),
(763,798,o),
(833,710,o),
(833,583,cs),
(833,431,o),
(734,280,o),
(580,280,cs)
);
}
);
width = 1222;
},
{
anchors = (
{
name = bottom;
pos = (512,0);
},
{
name = center;
pos = (604,530);
},
{
name = horn;
pos = (952,985);
},
{
name = ogonek;
pos = (641,0);
},
{
name = top;
pos = (696,1060);
},
{
name = topright;
pos = (1262,1060);
}
);
background = {
shapes = (
{
closed = 1;
nodes = (
(834,-16,o),
(1054,196,o),
(1110,480,cs),
(1170,787,o),
(1016,1076,o),
(662,1076,cs),
(366,1076,o),
(150,865,o),
(96,586,cs),
(36,276,o),
(190,-16,o),
(540,-16,cs)
);
},
{
closed = 1;
nodes = (
(320,144,o),
(225,330,o),
(271,562,cs),
(311,765,o),
(444,916,o),
(654,916,cs),
(886,916,o),
(981,730,o),
(934,500,cs),
(892,294,o),
(752,144,o),
(548,144,cs)
);
}
);
};
layerId = "8CC1EFAB-F3CB-44D1-8974-978FC52DD9AB";
shapes = (
{
closed = 1;
nodes = (
(876,-16,o),
(1123,269,o),
(1123,600,cs),
(1123,863,o),
(966,1076,o),
(668,1076,cs),
(326,1076,o),
(83,793,o),
(83,461,cs),
(83,195,o),
(239,-16,o),
(535,-16,cs)
);
},
{
closed = 1;
nodes = (
(357,144,o),
(260,268,o),
(260,459,cs),
(260,696,o),
(410,916,o),
(657,916,cs),
(847,916,o),
(946,789,o),
(946,601,cs),
(946,365,o),
(790,144,o),
(544,144,cs)
);
}
);
width = 1206;
}
);
},
{
color = 6;
glyphname = oe;
kernLeft = LAT_O_LC;
kernRight = LAT_E_LC;
lastChange = "2023-11-22 11:34:34 +0000";
layers = (
{
anchors = (
{
name = bottom;
pos = (879,0);
},
{
name = top;
pos = (1087,1048);
}
);
background = {
shapes = (
{
closed = 1;
nodes = (
(749,-16,o),
(933,184,o),
(991,472,cs),
(1055,792,o),
(927,1064,o),
(627,1064,cs),
(373,1064,o),
(181,868,o),
(123,582,cs),
(59,262,o),
(199,-16,o),
(497,-16,cs)
);
},
{
closed = 1;
nodes = (
(241,40,o),
(123,280,o),
(181,570,cs),
(231,828,o),
(403,1008,o),
(625,1008,cs),
(879,1008,o),
(993,772,o),
(933,482,cs),
(881,226,o),
(721,40,o),
(499,40,cs)
);
},
{
closed = 1;
nodes = (
(1443,-16,o),
(1549,42,o),
(1621,102,c),
(1599,160,l),
(1519,88,o),
(1425,40,o),
(1309,40,cs),
(1083,40,o),
(953,204,o),
(1005,498,cs),
(1055,774,o),
(1241,1008,o),
(1455,1008,cs),
(1649,1008,o),
(1753,822,o),
(1705,562,c),
(1001,562,l),
(989,506,l),
(1751,506,l),
(1759,542,o),
(1753,508,o),
(1759,544,cs),
(1813,846,o),
(1691,1064,o),
(1457,1064,cs),
(1225,1064,o),
(995,848,o),
(949,490,cs),
(911,198,o),
(1037,-16,o),
(1305,-16,cs)
);
}
);
};
layerId = "AB099EFE-E788-4EFC-8633-CF147CB782A6";
shapes = (
{
closed = 1;
nodes = (
(808,-16,o),
(1007,298,o),
(1007,619,cs),
(1007,878,o),
(877,1064,o),
(630,1064,cs),
(314,1064,o),
(109,761,o),
(109,441,cs),
(109,179,o),
(247,-16,o),
(494,-16,cs)
);
},
{
closed = 1;
nodes = (
(284,40,o),
(167,206,o),
(167,437,cs),
(167,720,o),
(343,1008,o),
(625,1008,cs),
(834,1008,o),
(949,851,o),
(949,620,cs),
(949,335,o),
(775,40,o),
(494,40,cs)
);
},
{
closed = 1;
nodes = (
(1443,-16,o),
(1549,42,o),
(1621,102,c),
(1599,160,l),
(1519,88,o),
(1426,40,o),
(1306,40,cs),
(1116,40,o),
(994,159,o),
(994,380,cs),
(994,662,o),
(1192,1008,o),
(1455,1008,cs),
(1617,1008,o),
(1719,878,o),
(1719,683,cs),
(1719,645,o),
(1715,604,o),
(1707,562,c),
(1001,562,l),
(989,506,l),
(1753,506,l),
(1766,566,o),
(1774,617,o),
(1774,677,cs),
(1774,909,o),
(1656,1064,o),
(1454,1064,cs),
(1153,1064,o),
(942,718,o),
(942,397,cs),
(942,149,o),
(1068,-16,o),
(1303,-16,cs)
);
}
);
width = 1864;
},
{
anchors = (
{
name = bottom;
pos = (807,0);
},
{
name = top;
pos = (995,1080);
}
);
background = {
shapes = (
{
closed = 1;
nodes = (
(766,-16,o),
(1001,250,o),
(1051,514,cs),
(1106,801,o),
(946,1096,o),
(633,1096,cs),
(369,1096,o),
(127,885,o),
(64,577,cs),
(-5,239,o),
(188,-16,o),
(474,-16,cs)
);
},
{
closed = 1;
nodes = (
(407,280,o),
(362,379,o),
(383,524,cs),
(406,682,o),
(494,798,o),
(618,798,cs),
(734,798,o),
(780,696,o),
(765,564,cs),
(749,426,o),
(673,280,o),
(527,280,cs)
);
},
{
closed = 1;
nodes = (
(1389,-16,o),
(1505,6,o),
(1595,54,c),
(1493,316,l),
(1467,292,o),
(1358,258,o),
(1277,258,cs),
(1137,258,o),
(1036,361,o),
(1045,510,cs),
(1053,636,o),
(1143,818,o),
(1309,818,cs),
(1383,818,o),
(1489,782,o),
(1471,652,c),
(1053,652,l),
(1017,422,l),
(1717,422,l),
(1733,461,o),
(1746,514,o),
(1753,555,cs),
(1807,871,o),
(1616,1096,o),
(1351,1096,cs),
(1096,1096,o),
(867,887,o),
(817,552,cs),
(766,211,o),
(932,-16,o),
(1281,-16,cs)
);
}
);
};
layerId = "2D8F7115-C311-411E-929D-56333CF7FFB2";
shapes = (
{
closed = 1;
nodes = (
(790,-16,o),
(1062,304,o),
(1062,627,cs),
(1062,873,o),
(905,1096,o),
(632,1096,cs),
(304,1096,o),
(50,775,o),
(50,447,cs),
(50,173,o),
(227,-16,o),
(472,-16,cs)
);
},
{
closed = 1;
nodes = (
(426,280,o),
(378,349,o),
(378,465,cs),
(378,620,o),
(465,798,o),
(619,798,cs),
(720,798,o),
(768,721,o),
(768,605,cs),
(768,447,o),
(678,280,o),
(525,280,cs)
);
},
{
closed = 1;
nodes = (
(1393,-16,o),
(1523,13,o),
(1596,54,c),
(1494,316,l),
(1467,295,o),
(1385,258,o),
(1292,258,cs),
(1167,258,o),
(1049,326,o),
(1049,509,cs),
(1049,656,o),
(1125,824,o),
(1313,824,cs),
(1414,824,o),
(1472,776,o),
(1472,690,cs),
(1472,670,o),
(1469,652,o),
(1466,638,c),
(1008,638,l),
(974,426,l),
(1716,426,l),
(1745,499,o),
(1763,577,o),
(1763,659,cs),
(1763,921,o),
(1593,1096,o),
(1355,1096,cs),
(1038,1096,o),
(780,786,o),
(780,448,cs),
(780,173,o),
(951,-16,o),
(1269,-16,cs)
);
}
);
width = 1804;
},
{
anchors = (
{
name = bottom;
pos = (848,0);
},
{
name = top;
pos = (1049,1060);
}
);
background = {
shapes = (
{
closed = 1;
nodes = (
(769,-16,o),
(977,203,o),
(1034,484,cs),
(1097,794,o),
(954,1076,o),
(642,1076,cs),
(379,1076,o),
(161,876,o),
(100,580,cs),
(33,253,o),
(198,-16,o),
(498,-16,cs)
);
},
{
closed = 1;
nodes = (
(301,141,o),
(216,325,o),
(262,556,cs),
(307,780,o),
(445,920,o),
(632,920,cs),
(849,920,o),
(929,732,o),
(888,516,cs),
(851,316,o),
(720,141,o),
(513,141,cs)
);
},
{
closed = 1;
nodes = (
(1447,-16,o),
(1552,30,o),
(1632,84,c),
(1582,236,l),
(1520,182,o),
(1421,140,o),
(1312,140,cs),
(1121,140,o),
(1016,268,o),
(1052,502,cs),
(1085,720,o),
(1226,920,o),
(1422,920,cs),
(1575,920,o),
(1655,799,o),
(1618,602,c),
(1052,602,l),
(1028,462,l),
(1758,462,l),
(1763,481,o),
(1769,510,o),
(1776,547,cs),
(1833,860,o),
(1675,1076,o),
(1436,1076,cs),
(1194,1076,o),
(956,855,o),
(910,516,cs),
(868,206,o),
(1014,-16,o),
(1312,-16,cs)
);
}
);
};
layerId = "8CC1EFAB-F3CB-44D1-8974-978FC52DD9AB";
shapes = (
{
closed = 1;
nodes = (
(818,-16,o),
(1049,294,o),
(1049,620,cs),
(1049,876,o),
(906,1076,o),
(643,1076,cs),
(317,1076,o),
(86,770,o),
(86,445,cs),
(86,177,o),
(243,-16,o),
(497,-16,cs)
);
},
{
closed = 1;
nodes = (
(338,141,o),
(251,264,o),
(251,449,cs),
(251,685,o),
(394,920,o),
(635,920,cs),
(813,920,o),
(898,791,o),
(898,613,cs),
(898,376,o),
(747,141,o),
(510,141,cs)
);
},
{
closed = 1;
nodes = (
(1447,-16,o),
(1552,30,o),
(1632,84,c),
(1582,236,l),
(1520,182,o),
(1421,140,o),
(1311,140,cs),
(1146,140,o),
(1045,235,o),
(1045,422,cs),
(1045,654,o),
(1199,920,o),
(1423,920,cs),
(1550,920,o),
(1627,835,o),
(1627,692,cs),
(1627,664,o),
(1624,634,o),
(1618,602,c),
(1052,602,l),
(1028,462,l),
(1758,462,l),
(1781,549,o),
(1787,612,o),
(1787,664,cs),
(1787,918,o),
(1647,1076,o),
(1435,1076,cs),
(1128,1076,o),
(903,745,o),
(903,419,cs),
(903,158,o),
(1048,-16,o),
(1312,-16,cs)
);
}
);
width = 1858;
}
);
metricLeft = o;
metricRight = e;
unicode = 339;
},
{
color = 3;
glyphname = p;
kernLeft = LAT_P_LC;
kernRight = LAT_O_LC;
lastChange = "2023-11-22 11:34:34 +0000";
layers = (
{
anchors = (
{
name = bottom;
pos = (17,-420);
},
{
name = top;
pos = (679,1048);
}
);
layerId = "AB099EFE-E788-4EFC-8633-CF147CB782A6";
shapes = (
{
closed = 1;
nodes = (
(47,-420,l),
(182,256,l),
(200,256,l),
(184,324,l),
(280,796,l),
(310,861,l),
(302,861,l),
(340,1048,l),
(278,1048,l),
(-14,-420,l)
);
},
{
ref = _part.bowl;
}
);
width = 1157;
},
{
anchors = (
{
name = bottom;
pos = (104,-420);
},
{
name = top;
pos = (768,1080);
}
);
layerId = "2D8F7115-C311-411E-929D-56333CF7FFB2";
shapes = (
{
closed = 1;
nodes = (
(284,-420,l),
(388,98,l),
(438,98,l),
(374,250,l),
(500,902,l),
(586,994,l),
(536,994,l),
(554,1080,l),
(228,1080,l),
(-72,-420,l)
);
},
{
ref = _part.bowl;
}
);
width = 1245;
},
{
anchors = (
{
name = bottom;
pos = (33,-420);
},
{
name = top;
pos = (721,1060);
}
);
layerId = "8CC1EFAB-F3CB-44D1-8974-978FC52DD9AB";
shapes = (
{
closed = 1;
nodes = (
(119,-420,l),
(237,168,l),
(267,168,l),
(237,282,l),
(349,838,l),
(413,920,l),
(380,920,l),
(408,1060,l),
(241,1060,l),
(-57,-420,l)
);
},
{
alignment = -1;
ref = _part.bowl;
}
);
width = 1184;
}
);
metricRight = o;
unicode = 112;
},
{
color = 3;
glyphname = p.ss01;
kernLeft = LAT_P_LC;
kernRight = LAT_O_LC;
lastChange = "2023-11-22 11:34:34 +0000";
layers = (
{
anchors = (
{
name = bottom;
pos = (12,-420);
},
{
name = top;
pos = (669,1048);
}
);
layerId = "AB099EFE-E788-4EFC-8633-CF147CB782A6";
shapes = (
{
closed = 1;
nodes = (
(43,-420,l),
(176,250,l),
(206,250,l),
(176,334,l),
(266,760,l),
(308,835,l),
(293,835,l),
(335,1048,l),
(274,1048,l),
(-18,-420,l)
);
},
{
ref = _part.bowl.ss01;
}
);
width = 1224;
},
{
anchors = (
{
name = bottom;
pos = (100,-420);
},
{
name = top;
pos = (729,1080);
}
);
layerId = "2D8F7115-C311-411E-929D-56333CF7FFB2";
shapes = (
{
closed = 1;
nodes = (
(280,-420,l),
(384,106,l),
(440,106,l),
(388,268,l),
(508,858,l),
(582,974,l),
(529,974,l),
(551,1080,l),
(224,1080,l),
(-76,-420,l)
);
},
{
ref = _part.bowl.ss01;
}
);
width = 1303;
},
{
anchors = (
{
name = bottom;
pos = (27,-420);
},
{
name = top;
pos = (686,1060);
}
);
layerId = "8CC1EFAB-F3CB-44D1-8974-978FC52DD9AB";
shapes = (
{
closed = 1;
nodes = (
(117,-420,l),
(237,176,l),
(294,176,l),
(236,262,l),
(342,798,l),
(418,926,l),
(380,926,l),
(407,1060,l),
(240,1060,l),
(-58,-420,l)
);
},
{
alignment = -1;
ref = _part.bowl.ss01;
}
);
width = 1257;
}
);
metricRight = o;
},
{
color = 3;
glyphname = thorn;
kernLeft = LAT_L_LC;
kernRight = LAT_O_LC;
lastChange = "2023-11-22 11:34:34 +0000";
layers = (
{
anchors = (
{
name = bottom;
pos = (398,-49);
},
{
name = top;
pos = (433,1647);
}
);
layerId = "AB099EFE-E788-4EFC-8633-CF147CB782A6";
shapes = (
{
closed = 1;
nodes = (
(43,-420,l),
(179,263,l),
(199,263,l),
(184,330,l),
(280,790,l),
(305,855,l),
(296,855,l),
(433,1540,l),
(372,1540,l),
(-18,-420,l)
);
},
{
ref = _part.bowl;
}
);
width = 1157;
},
{
anchors = (
{
name = bottom;
pos = (459,-49);
},
{
name = top;
pos = (516,1647);
}
);
layerId = "2D8F7115-C311-411E-929D-56333CF7FFB2";
shapes = (
{
closed = 1;
nodes = (
(277,-420,l),
(381,106,l),
(431,106,l),
(355,230,l),
(481,882,l),
(633,1016,l),
(565,1016,l),
(671,1540,l),
(311,1540,l),
(-79,-420,l)
);
},
{
ref = _part.bowl;
}
);
width = 1245;
},
{
anchors = (
{
name = bottom;
pos = (445,-49);
},
{
name = top;
pos = (464,1647);
}
);
layerId = "8CC1EFAB-F3CB-44D1-8974-978FC52DD9AB";
shapes = (
{
closed = 1;
nodes = (
(125,-420,l),
(241,158,l),
(270,158,l),
(243,257,l),
(358,840,l),
(417,932,l),
(393,932,l),
(517,1540,l),
(341,1540,l),
(-53,-420,l)
);
},
{
alignment = -1;
ref = _part.bowl;
}
);
width = 1184;
}
);
metricLeft = h;
metricRight = p;
unicode = 254;
},
{
color = 3;
glyphname = thorn.ss01;
kernLeft = LAT_L_LC;
kernRight = LAT_O_LC;
lastChange = "2023-11-22 11:34:34 +0000";
layers = (
{
anchors = (
{
name = bottom;
pos = (516,0);
},
{
name = top;
pos = (402,1540);
}
);
layerId = "AB099EFE-E788-4EFC-8633-CF147CB782A6";
shapes = (
{
closed = 1;
nodes = (
(43,-420,l),
(178,258,l),
(205,258,l),
(186,372,l),
(264,757,l),
(320,825,l),
(291,825,l),
(433,1540,l),
(372,1540,l),
(-18,-420,l)
);
},
{
ref = _part.bowl.ss01;
}
);
width = 1224;
},
{
anchors = (
{
name = bottom;
pos = (639,0);
},
{
name = top;
pos = (479,1540);
}
);
layerId = "2D8F7115-C311-411E-929D-56333CF7FFB2";
shapes = (
{
closed = 1;
nodes = (
(279,-420,l),
(383,110,l),
(429,110,l),
(383,214,l),
(515,840,l),
(595,988,l),
(558,988,l),
(667,1540,l),
(311,1540,l),
(-79,-420,l)
);
},
{
ref = _part.bowl.ss01;
}
);
width = 1303;
},
{
anchors = (
{
name = bottom;
pos = (579,0);
},
{
name = top;
pos = (420,1540);
}
);
layerId = "8CC1EFAB-F3CB-44D1-8974-978FC52DD9AB";
shapes = (
{
closed = 1;
nodes = (
(122,-420,l),
(242,178,l),
(303,178,l),
(251,326,l),
(345,808,l),
(437,930,l),
(391,930,l),
(512,1540,l),
(337,1540,l),
(-53,-420,l)
);
},
{
alignment = -1;
ref = _part.bowl.ss01;
}
);
width = 1257;
}
);
metricLeft = h;
metricRight = p;
},
{
color = 3;
glyphname = q;
kernLeft = LAT_O_LC;
kernRight = LAT_Q_LC;
lastChange = "2023-11-22 11:34:34 +0000";
layers = (
{
anchors = (
{
name = bottom;
pos = (752,-420);
},
{
name = top;
pos = (655,1048);
}
);
background = {
shapes = (
{
closed = 1;
nodes = (
(884,-377,l),
(837,-348,o),
(822,-281,o),
(841,-193,cs),
(1091,1048,l),
(1027,1048,l),
(980,811,l),
(964,811,l),
(974,741,l),
(880,274,l),
(845,205,l),
(859,205,l),
(781,-176,ls),
(757,-295,o),
(773,-381,o),
(857,-440,c)
);
}
);
};
guides = (
{
angle = 67.5;
pos = (429,-184);
}
);
layerId = "AB099EFE-E788-4EFC-8633-CF147CB782A6";
shapes = (
{
closed = 1;
nodes = (
(898,-438,o),
(930,-434,o),
(948,-420,c),
(958,-362,l),
(940,-376,o),
(900,-384,o),
(876,-384,cs),
(806,-384,o),
(818,-310,o),
(828,-260,cs),
(1090,1048,l),
(1029,1048,l),
(976,780,l),
(958,780,l),
(974,723,l),
(882,264,l),
(840,186,l),
(856,186,l),
(772,-244,ls),
(758,-316,o),
(740,-438,o),
(868,-438,cs)
);
},
{
ref = "_part.bowl-reverse";
}
);
width = 1142;
},
{
anchors = (
{
name = bottom;
pos = (786,-420);
},
{
name = top;
pos = (686,1080);
}
);
background = {
shapes = (
{
closed = 1;
nodes = (
(1065,-152,l),
(1026,-131,o),
(1016,-119,o),
(1030,-45,cs),
(1255,1080,l),
(922,1080,l),
(895,954,l),
(864,954,l),
(879,852,l),
(735,143,l),
(639,66,l),
(692,66,l),
(670,-45,ls),
(637,-207,o),
(705,-340,o),
(942,-440,c)
);
}
);
};
layerId = "2D8F7115-C311-411E-929D-56333CF7FFB2";
shapes = (
{
closed = 1;
nodes = (
(1024,-438,o),
(1088,-428,o),
(1112,-416,c),
(1148,-140,l),
(1126,-148,o),
(1096,-154,o),
(1074,-154,cs),
(1030,-154,o),
(1006,-134,o),
(1014,-92,cs),
(1248,1080,l),
(920,1080,l),
(892,946,l),
(854,946,l),
(892,852,l),
(748,144,l),
(632,65,l),
(712,65,l),
(682,-88,ls),
(646,-272,o),
(756,-438,o),
(972,-438,cs)
);
},
{
ref = "_part.bowl-reverse";
}
);
width = 1270;
},
{
anchors = (
{
name = bottom;
pos = (793,-420);
},
{
name = top;
pos = (657,1060);
}
);
layerId = "8CC1EFAB-F3CB-44D1-8974-978FC52DD9AB";
shapes = (
{
closed = 1;
nodes = (
(944,-438,o),
(996,-430,o),
(1018,-418,c),
(1030,-268,l),
(1014,-276,o),
(988,-286,o),
(964,-286,cs),
(902,-286,o),
(903,-236,o),
(914,-180,cs),
(1160,1060,l),
(994,1060,l),
(956,884,l),
(920,884,l),
(946,794,l),
(832,216,l),
(770,128,l),
(801,128,l),
(741,-168,ls),
(709,-324,o),
(758,-438,o),
(906,-438,cs)
);
},
{
alignment = -1;
ref = "_part.bowl-reverse";
}
);
width = 1210;
}
);
metricLeft = o;
unicode = 113;
},
{
color = 3;
glyphname = q.ss01;
kernLeft = LAT_O_LC;
kernRight = LAT_G_LC;
lastChange = "2023-11-22 11:34:34 +0000";
layers = (
{
anchors = (
{
name = bottom;
pos = (883,-420);
},
{
name = top;
pos = (731,1048);
}
);
layerId = "AB099EFE-E788-4EFC-8633-CF147CB782A6";
shapes = (
{
closed = 1;
nodes = (
(864,-420,l),
(1156,1048,l),
(1095,1048,l),
(1045,798,l),
(1028,798,l),
(1036,716,l),
(968,330,l),
(906,218,l),
(930,218,l),
(802,-420,l)
);
},
{
ref = "_part.bowl-reverse.ss01";
}
);
width = 1224;
},
{
anchors = (
{
name = bottom;
pos = (856,-420);
},
{
name = top;
pos = (733,1080);
}
);
layerId = "2D8F7115-C311-411E-929D-56333CF7FFB2";
shapes = (
{
closed = 1;
nodes = (
(998,-420,l),
(1296,1080,l),
(962,1080,l),
(932,932,l),
(898,932,l),
(924,860,l),
(768,140,l),
(702,82,l),
(744,82,l),
(644,-420,l)
);
},
{
ref = "_part.bowl-reverse.ss01";
}
);
width = 1304;
},
{
anchors = (
{
name = bottom;
pos = (872,-420);
},
{
name = top;
pos = (733,1060);
}
);
layerId = "8CC1EFAB-F3CB-44D1-8974-978FC52DD9AB";
shapes = (
{
closed = 1;
nodes = (
(935,-420,l),
(1231,1060,l),
(1064,1060,l),
(1025,867,l),
(987,867,l),
(1019,809,l),
(895,201,l),
(831,149,l),
(873,149,l),
(760,-420,l)
);
},
{
alignment = -1;
ref = "_part.bowl-reverse.ss01";
}
);
width = 1258;
}
);
metricLeft = o;
},
{
color = 6;
glyphname = r;
kernLeft = LAT_N_LC;
kernRight = LAT_R_LC;
lastChange = "2023-11-22 11:34:34 +0000";
layers = (
{
anchors = (
{
name = bottom;
pos = (97,0);
},
{
name = top;
pos = (474,1048);
}
);
guides = (
{
angle = 67.5;
pos = (-175,-200);
}
);
layerId = "AB099EFE-E788-4EFC-8633-CF147CB782A6";
shapes = (
{
closed = 1;
nodes = (
(127,0,l),
(254,640,ls),
(297,856,o),
(462,1008,o),
(608,1008,cs),
(648,1008,o),
(700,994,o),
(716,978,c),
(742,1028,l),
(726,1044,o),
(670,1064,o),
(610,1064,cs),
(476,1064,o),
(344,964,o),
(270,814,c),
(316,874,l),
(301,874,l),
(335,1048,l),
(274,1048,l),
(66,0,l)
);
}
);
width = 674;
},
{
anchors = (
{
name = bottom;
pos = (185,0);
},
{
name = top;
pos = (554,1080);
}
);
guides = (
{
angle = 67.5;
pos = (-60,-200);
}
);
layerId = "2D8F7115-C311-411E-929D-56333CF7FFB2";
shapes = (
{
closed = 1;
nodes = (
(360,0,l),
(466,524,ls),
(497,676,o),
(616,752,o),
(712,752,cs),
(743,752,o),
(777,744,o),
(799,732,c),
(993,1048,l),
(973,1072,o),
(915,1096,o),
(839,1096,cs),
(657,1096,o),
(529,964,o),
(493,872,c),
(565,954,l),
(540,954,l),
(566,1080,l),
(223,1080,l),
(5,0,l)
);
}
);
width = 885;
},
{
anchors = (
{
name = bottom;
pos = (114,0);
},
{
name = top;
pos = (501,1060);
}
);
layerId = "8CC1EFAB-F3CB-44D1-8974-978FC52DD9AB";
shapes = (
{
closed = 1;
nodes = (
(203,0,l),
(323,598,ls),
(359,780,o),
(523,912,o),
(653,912,cs),
(695,912,o),
(741,898,o),
(755,880,c),
(847,1034,l),
(825,1054,o),
(777,1078,o),
(703,1078,cs),
(557,1078,o),
(401,982,o),
(351,856,c),
(403,916,l),
(379,916,l),
(409,1060,l),
(241,1060,l),
(27,0,l)
);
}
);
width = 755;
}
);
metricLeft = n;
unicode = 114;
},
{
color = 6;
glyphname = s;
kernLeft = LAT_S_LC;
kernRight = LAT_S_LC;
lastChange = "2023-11-22 11:34:34 +0000";
layers = (
{
anchors = (
{
name = bottom;
pos = (327,0);
},
{
name = cedilla;
pos = (333,0);
},
{
name = top;
pos = (530,1048);
}
);
background = {
shapes = (
{
closed = 1;
nodes = (
(556,-16,o),
(668,106,o),
(694,234,cs),
(724,381,o),
(634,501,o),
(462,564,cs),
(352,604,o),
(227,662,o),
(259,824,cs),
(281,937,o),
(383,1008,o),
(506,1008,cs),
(628,1008,o),
(695,938,o),
(723,860,c),
(780,884,l),
(758,972,o),
(662,1064,o),
(507,1064,cs),
(353,1064,o),
(231,974,o),
(200,836,cs),
(161,663,o),
(296,564,o),
(442,512,cs),
(574,465,o),
(661,372,o),
(635,244,cs),
(612,130,o),
(503,40,o),
(378,40,cs),
(255,40,o),
(148,128,o),
(122,238,c),
(62,214,l),
(98,90,o),
(212,-16,o),
(376,-16,cs)
);
}
);
};
guides = (
{
angle = 22.5;
pos = (134,327);
}
);
layerId = "AB099EFE-E788-4EFC-8633-CF147CB782A6";
shapes = (
{
closed = 1;
nodes = (
(555,-16,o),
(700,116,o),
(700,293,cs),
(700,603,o),
(254,521,o),
(254,783,cs),
(254,910,o),
(360,1008,o),
(506,1008,cs),
(628,1008,o),
(695,938,o),
(723,860,c),
(780,884,l),
(758,972,o),
(662,1064,o),
(507,1064,cs),
(333,1064,o),
(193,943,o),
(193,777,cs),
(193,480,o),
(640,559,o),
(640,292,cs),
(640,153,o),
(519,40,o),
(379,40,cs),
(255,40,o),
(148,128,o),
(122,238,c),
(62,214,l),
(98,90,o),
(212,-16,o),
(374,-16,cs)
);
}
);
width = 876;
},
{
anchors = (
{
name = bottom;
pos = (373,0);
},
{
name = cedilla;
pos = (389,0);
},
{
name = top;
pos = (577,1080);
}
);
background = {
shapes = (
{
closed = 1;
nodes = (
(641,-16,o),
(827,91,o),
(865,296,cs),
(905,510,o),
(742,602,o),
(604,646,cs),
(519,673,o),
(423,689,o),
(432,754,cs),
(438,794,o),
(476,818,o),
(527,818,cs),
(590,818,o),
(640,782,o),
(668,732,c),
(956,850,l),
(904,997,o),
(750,1096,o),
(548,1096,cs),
(336,1096,o),
(175,988,o),
(134,821,cs),
(92,652,o),
(192,501,o),
(372,440,cs),
(453,413,o),
(572,393,o),
(556,326,cs),
(548,291,o),
(506,262,o),
(449,262,cs),
(360,262,o),
(314,334,o),
(294,380,c),
(-4,258,l),
(48,98,o),
(218,-16,o),
(433,-16,cs)
);
}
);
};
guides = (
{
angle = 22.5;
pos = (138,280);
}
);
layerId = "2D8F7115-C311-411E-929D-56333CF7FFB2";
shapes = (
{
closed = 1;
nodes = (
(674,-16,o),
(871,132,o),
(871,352,cs),
(871,681,o),
(431,625,o),
(431,750,cs),
(431,786,o),
(468,818,o),
(527,818,cs),
(590,818,o),
(640,782,o),
(668,732,c),
(956,850,l),
(904,997,o),
(749,1096,o),
(551,1096,cs),
(317,1096,o),
(124,959,o),
(124,743,cs),
(124,420,o),
(557,442,o),
(557,338,cs),
(557,307,o),
(519,262,o),
(449,262,cs),
(360,262,o),
(314,334,o),
(294,380,c),
(-4,258,l),
(48,98,o),
(218,-16,o),
(431,-16,cs)
);
}
);
width = 966;
},
{
anchors = (
{
name = bottom;
pos = (309,0);
},
{
name = cedilla;
pos = (317,0);
},
{
name = top;
pos = (513,1060);
}
);
background = {
shapes = (
{
closed = 1;
nodes = (
(544,-16,o),
(698,105,o),
(722,285,cs),
(748,475,o),
(603,554,o),
(480,601,cs),
(410,628,o),
(282,666,o),
(310,796,cs),
(329,884,o),
(398,928,o),
(481,928,cs),
(583,928,o),
(630,862,o),
(652,810,c),
(804,870,l),
(772,972,o),
(667,1076,o),
(488,1076,cs),
(322,1076,o),
(184,986,o),
(152,821,cs),
(118,648,o),
(229,544,o),
(375,484,cs),
(453,452,o),
(579,417,o),
(561,293,cs),
(548,203,o),
(467,134,o),
(374,134,cs),
(280,134,o),
(190,206,o),
(168,292,c),
(12,224,l),
(44,100,o),
(186,-16,o),
(363,-16,cs)
);
}
);
};
layerId = "8CC1EFAB-F3CB-44D1-8974-978FC52DD9AB";
shapes = (
{
closed = 1;
nodes = (
(563,-16,o),
(725,132,o),
(725,327,cs),
(725,639,o),
(306,556,o),
(306,767,cs),
(306,852,o),
(375,928,o),
(482,928,cs),
(583,928,o),
(630,862,o),
(652,810,c),
(804,870,l),
(772,972,o),
(667,1076,o),
(488,1076,cs),
(293,1076,o),
(146,950,o),
(146,762,cs),
(146,444,o),
(563,522,o),
(563,312,cs),
(563,216,o),
(475,134,o),
(374,134,cs),
(280,134,o),
(190,206,o),
(168,292,c),
(12,224,l),
(44,100,o),
(186,-16,o),
(363,-16,cs)
);
}
);
width = 844;
},
{
anchors = (
{
name = bottom;
pos = (315,0);
},
{
name = cedilla;
pos = (323,0);
},
{
name = top;
pos = (519,1056);
}
);
associatedMasterId = "AB099EFE-E788-4EFC-8633-CF147CB782A6";
attr = {
coordinates = (
68
);
};
layerId = "01AFED46-1A33-4B4C-B260-1B58F79F5A43";
name = "{68}";
shapes = (
{
closed = 1;
nodes = (
(560,-16,o),
(716,126,o),
(716,315,cs),
(716,626,o),
(287,544,o),
(287,773,cs),
(287,873,o),
(370,957,o),
(491,957,cs),
(599,957,o),
(653,889,o),
(677,828,c),
(795,875,l),
(767,972,o),
(665,1072,o),
(495,1072,cs),
(307,1072,o),
(163,948,o),
(163,767,cs),
(163,457,o),
(591,535,o),
(591,305,cs),
(591,194,o),
(491,100,o),
(376,100,cs),
(271,100,o),
(175,178,o),
(152,273,c),
(30,220,l),
(63,96,o),
(195,-16,o),
(367,-16,cs)
);
}
);
width = 855;
},
{
anchors = (
{
name = bottom;
pos = (332,0);
},
{
name = cedilla;
pos = (346,0);
},
{
name = top;
pos = (544,1071);
}
);
associatedMasterId = "8CC1EFAB-F3CB-44D1-8974-978FC52DD9AB";
attr = {
coordinates = (
140
);
};
background = {
shapes = (
{
closed = 1;
nodes = (
(544,-16,o),
(698,105,o),
(722,285,cs),
(748,475,o),
(603,554,o),
(480,601,cs),
(410,628,o),
(282,666,o),
(310,796,cs),
(329,884,o),
(398,928,o),
(481,928,cs),
(583,928,o),
(630,862,o),
(652,810,c),
(804,870,l),
(772,972,o),
(667,1076,o),
(488,1076,cs),
(322,1076,o),
(184,986,o),
(152,821,cs),
(118,648,o),
(229,544,o),
(375,484,cs),
(453,452,o),
(579,417,o),
(561,293,cs),
(548,203,o),
(467,134,o),
(374,134,cs),
(280,134,o),
(190,206,o),
(168,292,c),
(12,224,l),
(44,100,o),
(186,-16,o),
(363,-16,cs)
);
}
);
};
layerId = "A3AA1256-D05D-4611-AEFB-0C5DDA494D1F";
name = "22. Nov 23 at 12:22";
shapes = (
{
closed = 1;
nodes = (
(624,-16,o),
(795,136,o),
(795,343,cs),
(795,665,o),
(379,600,o),
(379,753,cs),
(379,805,o),
(428,858,o),
(505,858,cs),
(576,858,o),
(623,813,o),
(647,766,c),
(872,864,l),
(837,982,o),
(708,1087,o),
(518,1087,cs),
(305,1087,o),
(141,954,o),
(141,748,cs),
(141,424,o),
(544,474,o),
(544,323,cs),
(544,265,o),
(486,213,o),
(412,213,cs),
(328,213,o),
(258,279,o),
(236,342,c),
(2,242,l),
(39,104,o),
(202,-16,o),
(401,-16,cs)
);
}
);
width = 900;
}
);
unicode = 115;
userData = {
com.typemytype.robofont.layerData = {
background = {
anchors = (
);
components = (
);
contours = (
{
points = (
{
segmentType = curve;
smooth = 1;
x = 213;
y = -12;
},
{
smooth = 0;
x = 318;
y = -12;
},
{
smooth = 0;
x = 376;
y = 50;
},
{
segmentType = curve;
smooth = 1;
x = 376;
y = 120;
},
{
smooth = 0;
x = 376;
y = 214;
},
{
smooth = 0;
x = 288;
y = 237;
},
{
segmentType = curve;
smooth = 1;
x = 208;
y = 266;
},
{
smooth = 0;
x = 147;
y = 288;
},
{
smooth = 0;
x = 85;
y = 310;
},
{
segmentType = curve;
smooth = 1;
x = 85;
y = 368;
},
{
smooth = 0;
x = 85;
y = 415;
},
{
smooth = 0;
x = 124;
y = 462;
},
{
segmentType = curve;
smooth = 1;
x = 208;
y = 462;
},
{
smooth = 0;
x = 253;
y = 462;
},
{
smooth = 0;
x = 284;
y = 448;
},
{
segmentType = curve;
smooth = 1;
x = 314;
y = 429;
},
{
smooth = 0;
x = 325;
y = 422;
},
{
smooth = 0;
x = 336;
y = 423;
},
{
segmentType = curve;
smooth = 1;
x = 343;
y = 434;
},
{
segmentType = line;
smooth = 1;
x = 346;
y = 439;
},
{
smooth = 0;
x = 347;
y = 441;
},
{
smooth = 0;
x = 347;
y = 443;
},
{
segmentType = curve;
smooth = 1;
x = 345;
y = 444;
},
{
smooth = 0;
x = 311;
y = 468;
},
{
smooth = 0;
x = 257;
y = 490;
},
{
segmentType = curve;
smooth = 1;
x = 211;
y = 490;
},
{
smooth = 0;
x = 108;
y = 490;
},
{
smooth = 0;
x = 54;
y = 432;
},
{
segmentType = curve;
smooth = 1;
x = 54;
y = 366;
},
{
smooth = 0;
x = 54;
y = 284;
},
{
smooth = 0;
x = 141;
y = 256;
},
{
segmentType = curve;
smooth = 1;
x = 218;
y = 230;
},
{
smooth = 0;
x = 277;
y = 210;
},
{
smooth = 0;
x = 344;
y = 182;
},
{
segmentType = curve;
smooth = 1;
x = 344;
y = 118;
},
{
smooth = 0;
x = 344;
y = 64;
},
{
smooth = 0;
x = 300;
y = 16;
},
{
segmentType = curve;
smooth = 1;
x = 215;
y = 16;
},
{
smooth = 0;
x = 148;
y = 16;
},
{
smooth = 0;
x = 105;
y = 37;
},
{
segmentType = curve;
smooth = 1;
x = 66;
y = 65;
},
{
smooth = 0;
x = 55;
y = 73;
},
{
smooth = 0;
x = 45;
y = 74;
},
{
segmentType = curve;
smooth = 1;
x = 37;
y = 63;
},
{
segmentType = line;
smooth = 1;
x = 33;
y = 57;
},
{
smooth = 0;
x = 32;
y = 55;
},
{
smooth = 0;
x = 32;
y = 53;
},
{
segmentType = curve;
smooth = 1;
x = 34;
y = 51;
},
{
smooth = 0;
x = 73;
y = 12;
},
{
smooth = 0;
x = 139;
y = -12;
}
);
}
);
lib = {
};
name = s;
unicodes = (
);
width = 439;
};
};
};
},
{
color = 6;
glyphname = germandbls;
kernLeft = LAT_J_LC;
kernRight = LAT_GERMANDBLS_LC;
lastChange = "2023-11-22 11:34:34 +0000";
layers = (
{
background = {
shapes = (
{
closed = 1;
nodes = (
(-34,-318,o),
(76,-182,o),
(113,2,cs),
(344,1164,ls),
(385,1368,o),
(508,1500,o),
(680,1500,cs),
(844,1500,o),
(923,1396,o),
(891,1228,cs),
(841,972,o),
(604,986,o),
(566,832,cs),
(516,634,o),
(880,631,o),
(812,339,cs),
(770,163,o),
(605,40,o),
(425,40,cs),
(357,40,o),
(303,49,o),
(251,65,c),
(240,8,l),
(284,-8,o),
(342,-16,o),
(416,-16,cs),
(636,-16,o),
(824,112,o),
(870,326,cs),
(942,650,o),
(590,679,o),
(624,819,cs),
(652,933,o),
(902,942,o),
(950,1220,cs),
(986,1420,o),
(884,1556,o),
(682,1556,cs),
(480,1556,o),
(329,1398,o),
(282,1160,cs),
(52,2,ls),
(21,-152,o),
(-66,-264,o),
(-156,-264,cs),
(-168,-264,o),
(-192,-260,o),
(-202,-256,c),
(-206,-314,l),
(-202,-316,o),
(-174,-318,o),
(-160,-318,cs)
);
}
);
};
layerId = "AB099EFE-E788-4EFC-8633-CF147CB782A6";
shapes = (
{
closed = 1;
nodes = (
(-32,-318,o),
(76,-182,o),
(113,2,cs),
(344,1164,ls),
(385,1368,o),
(505,1500,o),
(685,1500,cs),
(820,1500,o),
(898,1426,o),
(898,1289,cs),
(898,1004,o),
(561,974,o),
(561,797,cs),
(561,641,o),
(820,629,o),
(820,398,cs),
(820,201,o),
(633,41,o),
(403,41,cs),
(352,41,o),
(303,49,o),
(251,65,c),
(240,8,l),
(277,-6,o),
(341,-16,o),
(405,-16,cs),
(686,-16,o),
(880,176,o),
(880,399,cs),
(880,656,o),
(622,686,o),
(622,797,cs),
(622,924,o),
(957,983,o),
(957,1291,cs),
(957,1459,o),
(857,1556,o),
(688,1556,cs),
(477,1556,o),
(329,1398,o),
(282,1160,cs),
(52,2,ls),
(21,-152,o),
(-65,-264,o),
(-153,-264,cs),
(-169,-264,o),
(-192,-260,o),
(-202,-256,c),
(-206,-314,l),
(-202,-316,o),
(-175,-318,o),
(-160,-318,cs)
);
}
);
width = 1031;
},
{
background = {
shapes = (
{
closed = 1;
nodes = (
(159,-438,o),
(305,-276,o),
(358,-6,cs),
(560,1024,ls),
(589,1167,o),
(664,1262,o),
(781,1262,cs),
(883,1262,o),
(931,1189,o),
(908,1103,cs),
(875,980,o),
(732,955,o),
(706,816,cs),
(673,635,o),
(906,635,o),
(866,432,cs),
(847,336,o),
(784,280,o),
(658,280,cs),
(624,280,o),
(568,284,o),
(544,292,c),
(484,-4,l),
(548,-12,o),
(645,-15,o),
(696,-15,cs),
(972,-15,o),
(1156,100,o),
(1200,322,cs),
(1260,625,o),
(971,702,o),
(1001,801,cs),
(1021,868,o),
(1178,916,o),
(1216,1123,cs),
(1260,1358,o),
(1106,1556,o),
(784,1556,cs),
(484,1556,o),
(277,1384,o),
(216,1074,cs),
(10,30,ls),
(-10,-68,o),
(-55,-130,o),
(-137,-130,cs),
(-152,-130,o),
(-166,-128,o),
(-186,-122,c),
(-226,-420,l),
(-178,-436,o),
(-130,-438,o),
(-101,-438,cs)
);
}
);
};
layerId = "2D8F7115-C311-411E-929D-56333CF7FFB2";
shapes = (
{
closed = 1;
nodes = (
(159,-438,o),
(305,-276,o),
(358,-6,cs),
(560,1024,ls),
(588,1167,o),
(664,1262,o),
(781,1262,cs),
(866,1262,o),
(914,1211,o),
(914,1143,cs),
(914,999,o),
(703,939,o),
(703,782,cs),
(703,642,o),
(871,635,o),
(871,469,cs),
(871,356,o),
(794,280,o),
(656,280,cs),
(624,280,o),
(568,284,o),
(544,292,c),
(484,-4,l),
(548,-12,o),
(647,-15,o),
(690,-15,cs),
(1006,-15,o),
(1208,144,o),
(1208,390,cs),
(1208,641,o),
(999,697,o),
(999,786,cs),
(999,878,o),
(1223,937,o),
(1223,1192,cs),
(1223,1403,o),
(1070,1556,o),
(786,1556,cs),
(484,1556,o),
(277,1384,o),
(216,1074,cs),
(10,30,ls),
(-9,-68,o),
(-57,-130,o),
(-137,-130,cs),
(-152,-130,o),
(-166,-128,o),
(-186,-122,c),
(-226,-420,l),
(-178,-436,o),
(-130,-438,o),
(-101,-438,cs)
);
}
);
width = 1295;
},
{
background = {
shapes = (
{
closed = 1;
nodes = (
(-3,-408,o),
(148,-306,o),
(190,-98,cs),
(429,1086,ls),
(468,1278,o),
(574,1402,o),
(738,1402,cs),
(888,1402,o),
(941,1299,o),
(925,1196,cs),
(896,1013,o),
(673,976,o),
(641,808,cs),
(603,606,o),
(913,584,o),
(851,342,cs),
(819,217,o),
(714,142,o),
(555,142,cs),
(481,142,o),
(415,158,o),
(375,180,c),
(343,24,l),
(407,0,o),
(481,-16,o),
(566,-16,cs),
(809,-16,o),
(981,115,o),
(1023,318,cs),
(1087,621,o),
(784,689,o),
(809,798,cs),
(829,888,o),
(1059,955,o),
(1097,1188,cs),
(1129,1387,o),
(1002,1556,o),
(744,1556,cs),
(484,1556,o),
(314,1384,o),
(259,1112,cs),
(19,-74,ls),
(6,-136,o),
(-30,-248,o),
(-177,-248,cs),
(-183,-248,o),
(-187,-248,o),
(-207,-246,c),
(-221,-402,l),
(-201,-406,o),
(-175,-408,o),
(-153,-408,cs)
);
}
);
};
layerId = "8CC1EFAB-F3CB-44D1-8974-978FC52DD9AB";
shapes = (
{
closed = 1;
nodes = (
(-3,-408,o),
(148,-306,o),
(190,-98,cs),
(429,1086,ls),
(468,1278,o),
(574,1402,o),
(738,1402,cs),
(866,1402,o),
(931,1328,o),
(931,1235,cs),
(931,1036,o),
(638,955,o),
(638,777,cs),
(638,622,o),
(859,585,o),
(859,394,cs),
(859,249,o),
(733,142,o),
(552,142,cs),
(482,142,o),
(415,158,o),
(375,180,c),
(343,24,l),
(407,0,o),
(482,-16,o),
(564,-16,cs),
(829,-16,o),
(1032,153,o),
(1032,389,cs),
(1032,636,o),
(808,689,o),
(808,784,cs),
(808,893,o),
(1102,967,o),
(1102,1242,cs),
(1102,1422,o),
(976,1556,o),
(745,1556,cs),
(484,1556,o),
(314,1384,o),
(259,1112,cs),
(19,-74,ls),
(6,-136,o),
(-29,-248,o),
(-177,-248,cs),
(-183,-248,o),
(-187,-248,o),
(-207,-246,c),
(-221,-402,l),
(-201,-406,o),
(-175,-408,o),
(-153,-408,cs)
);
}
);
width = 1162;
},
{
associatedMasterId = "AB099EFE-E788-4EFC-8633-CF147CB782A6";
attr = {
coordinates = (
68
);
};
layerId = "3CFE4E77-2197-4EA5-9C59-9592752093C4";
name = "{68}";
shapes = (
{
closed = 1;
nodes = (
(-13,-376,o),
(122,-262,o),
(163,-62,cs),
(399,1114,ls),
(438,1310,o),
(549,1437,o),
(719,1437,cs),
(850,1437,o),
(919,1363,o),
(919,1254,cs),
(919,1025,o),
(611,962,o),
(611,784,cs),
(611,629,o),
(845,601,o),
(845,395,cs),
(845,232,o),
(697,106,o),
(499,106,cs),
(436,106,o),
(375,119,o),
(331,139,c),
(306,18,l),
(361,-2,o),
(432,-16,o),
(507,-16,cs),
(778,-16,o),
(978,161,o),
(978,393,cs),
(978,643,o),
(742,688,o),
(742,789,cs),
(742,904,o),
(1050,973,o),
(1050,1260,cs),
(1050,1435,o),
(934,1556,o),
(725,1556,cs),
(482,1556,o),
(319,1389,o),
(267,1129,cs),
(31,-47,ls),
(11,-142,o),
(-42,-254,o),
(-168,-254,cs),
(-178,-254,o),
(-189,-252,o),
(-205,-250,c),
(-216,-371,l),
(-201,-374,o),
(-175,-376,o),
(-155,-376,cs)
);
}
);
width = 1115;
},
{
associatedMasterId = "8CC1EFAB-F3CB-44D1-8974-978FC52DD9AB";
attr = {
coordinates = (
140
);
};
background = {
shapes = (
{
closed = 1;
nodes = (
(-3,-408,o),
(148,-306,o),
(190,-98,cs),
(429,1086,ls),
(468,1278,o),
(574,1402,o),
(738,1402,cs),
(888,1402,o),
(941,1299,o),
(925,1196,cs),
(896,1013,o),
(673,976,o),
(641,808,cs),
(603,606,o),
(913,584,o),
(851,342,cs),
(819,217,o),
(714,142,o),
(555,142,cs),
(481,142,o),
(415,158,o),
(375,180,c),
(343,24,l),
(407,0,o),
(481,-16,o),
(566,-16,cs),
(809,-16,o),
(981,115,o),
(1023,318,cs),
(1087,621,o),
(784,689,o),
(809,798,cs),
(829,888,o),
(1059,955,o),
(1097,1188,cs),
(1129,1387,o),
(1002,1556,o),
(744,1556,cs),
(484,1556,o),
(314,1384,o),
(259,1112,cs),
(19,-74,ls),
(6,-136,o),
(-30,-248,o),
(-177,-248,cs),
(-183,-248,o),
(-187,-248,o),
(-207,-246,c),
(-221,-402,l),
(-201,-406,o),
(-175,-408,o),
(-153,-408,cs)
);
}
);
};
layerId = "AB0A5F77-F72B-4BF8-800A-76CE46F2A1C4";
name = "22. Nov 23 at 12:22";
shapes = (
{
closed = 1;
nodes = (
(74,-436,o),
(234,-311,o),
(281,-74,cs),
(504,1044,ls),
(536,1206,o),
(621,1319,o),
(770,1319,cs),
(876,1319,o),
(925,1261,o),
(925,1192,cs),
(925,1032,o),
(667,958,o),
(667,783,cs),
(667,628,o),
(871,574,o),
(871,411,cs),
(871,298,o),
(773,221,o),
(629,221,cs),
(561,221,o),
(498,238,o),
(467,250,c),
(420,8,l),
(496,-7,o),
(561,-14,o),
(627,-14,cs),
(950,-14,o),
(1135,128,o),
(1135,379,cs),
(1135,646,o),
(925,689,o),
(925,781,cs),
(925,882,o),
(1181,957,o),
(1181,1217,cs),
(1181,1424,o),
(1020,1556,o),
(771,1556,cs),
(486,1556,o),
(296,1382,o),
(236,1085,cs),
(10,-41,ls),
(-2,-100,o),
(-48,-191,o),
(-146,-191,cs),
(-164,-191,o),
(-184,-188,o),
(-197,-186,c),
(-225,-426,l),
(-188,-434,o),
(-154,-436,o),
(-127,-436,cs)
);
}
);
width = 1244;
}
);
metricLeft = j;
metricRight = B;
unicode = 223;
},
{
color = 6;
glyphname = germandbls.ss01;
kernLeft = LAT_L_LC;
kernRight = LAT_GERMANDBLS_LC;
lastChange = "2023-11-22 11:34:34 +0000";
layers = (
{
background = {
shapes = (
{
closed = 1;
nodes = (
(731,-15,o),
(911,113,o),
(962,354,cs),
(1020,628,o),
(863,838,o),
(593,838,c),
(590,810,l),
(778,793,o),
(979,967,o),
(1016,1183,cs),
(1050,1383,o),
(935,1556,o),
(709,1556,cs),
(497,1556,o),
(345,1403,o),
(301,1181,cs),
(68,0,l),
(127,0,l),
(362,1186,ls),
(398,1366,o),
(534,1501,o),
(713,1501,cs),
(897,1501,o),
(987,1358,o),
(956,1190,cs),
(924,1014,o),
(765,858,o),
(584,858,cs),
(516,858,l),
(507,798,l),
(537,798,ls),
(834,798,o),
(954,607,o),
(905,374,cs),
(858,153,o),
(692,39,o),
(487,39,cs),
(421,39,o),
(348,51,o),
(307,66,c),
(295,8,l),
(354,-11,o),
(423,-15,o),
(469,-15,cs)
);
}
);
};
layerId = "AB099EFE-E788-4EFC-8633-CF147CB782A6";
shapes = (
{
closed = 1;
nodes = (
(773,-15,o),
(974,175,o),
(974,451,cs),
(974,689,o),
(825,838,o),
(593,838,c),
(590,810,l),
(808,790,o),
(1022,1019,o),
(1022,1251,cs),
(1022,1421,o),
(909,1556,o),
(709,1556,cs),
(497,1556,o),
(345,1403,o),
(301,1181,cs),
(68,0,l),
(127,0,l),
(362,1186,ls),
(398,1366,o),
(534,1501,o),
(713,1501,cs),
(873,1501,o),
(962,1393,o),
(962,1254,cs),
(962,1055,o),
(787,858,o),
(584,858,cs),
(516,858,l),
(507,798,l),
(537,798,ls),
(791,798,o),
(916,662,o),
(916,462,cs),
(916,227,o),
(744,39,o),
(486,39,cs),
(421,39,o),
(348,51,o),
(307,66,c),
(295,8,l),
(354,-11,o),
(423,-15,o),
(467,-15,cs)
);
}
);
width = 1118;
},
{
background = {
shapes = (
{
closed = 1;
nodes = (
(960,-16,o),
(1164,123,o),
(1218,360,cs),
(1278,621,o),
(1111,803,o),
(824,803,c),
(831,745,l),
(974,745,o),
(1189,854,o),
(1240,1098,cs),
(1293,1350,o),
(1134,1556,o),
(802,1556,cs),
(493,1556,o),
(278,1376,o),
(218,1073,cs),
(5,0,l),
(359,0,l),
(564,1024,ls),
(595,1175,o),
(679,1262,o),
(794,1262,cs),
(890,1262,o),
(946,1202,o),
(937,1124,cs),
(926,1024,o),
(817,926,o),
(720,926,cs),
(673,926,l),
(605,610,l),
(716,610,ls),
(766,610,o),
(908,592,o),
(886,447,cs),
(869,338,o),
(781,279,o),
(670,279,cs),
(635,279,o),
(585,285,o),
(548,295,c),
(489,0,l),
(542,-10,o),
(609,-16,o),
(671,-16,cs)
);
}
);
};
layerId = "2D8F7115-C311-411E-929D-56333CF7FFB2";
shapes = (
{
closed = 1;
nodes = (
(997,-16,o),
(1230,178,o),
(1230,449,cs),
(1230,673,o),
(1072,803,o),
(824,803,c),
(831,745,l),
(1058,745,o),
(1250,956,o),
(1250,1188,cs),
(1250,1399,o),
(1092,1556,o),
(802,1556,cs),
(493,1556,o),
(278,1376,o),
(218,1073,cs),
(5,0,l),
(359,0,l),
(564,1024,ls),
(593,1169,o),
(675,1262,o),
(794,1262,cs),
(883,1262,o),
(938,1210,o),
(938,1140,cs),
(938,1035,o),
(822,926,o),
(720,926,cs),
(673,926,l),
(605,610,l),
(716,610,ls),
(762,610,o),
(888,600,o),
(888,466,cs),
(888,353,o),
(797,280,o),
(653,280,cs),
(636,280,o),
(604,281,o),
(548,295,c),
(489,0,l),
(542,-10,o),
(610,-16,o),
(668,-16,cs)
);
}
);
width = 1306;
},
{
background = {
shapes = (
{
closed = 1;
nodes = (
(836,-15,o),
(1025,131,o),
(1071,371,cs),
(1123,641,o),
(950,821,o),
(704,817,c),
(694,758,l),
(917,743,o),
(1089,940,o),
(1122,1147,cs),
(1158,1378,o),
(1008,1556,o),
(740,1556,cs),
(472,1556,o),
(308,1378,o),
(256,1118,cs),
(31,0,l),
(203,0,l),
(424,1092,ls),
(461,1270,o),
(569,1401,o),
(738,1401,cs),
(894,1401,o),
(971,1290,o),
(950,1153,cs),
(928,1011,o),
(809,874,o),
(639,874,cs),
(577,874,l),
(547,721,l),
(584,721,ls),
(834,721,o),
(940,580,o),
(899,395,cs),
(866,246,o),
(757,139,o),
(594,139,cs),
(525,139,o),
(440,158,o),
(389,178,c),
(358,23,l),
(444,-6,o),
(520,-15,o),
(583,-15,cs)
);
}
);
};
layerId = "8CC1EFAB-F3CB-44D1-8974-978FC52DD9AB";
shapes = (
{
closed = 1;
nodes = (
(871,-15,o),
(1080,187,o),
(1080,455,cs),
(1080,686,o),
(924,819,o),
(704,817,c),
(694,758,l),
(926,741,o),
(1127,972,o),
(1127,1210,cs),
(1127,1412,o),
(982,1556,o),
(741,1556,cs),
(472,1556,o),
(308,1378,o),
(256,1118,cs),
(31,0,l),
(203,0,l),
(424,1092,ls),
(461,1272,o),
(569,1401,o),
(738,1401,cs),
(877,1401,o),
(953,1314,o),
(953,1193,cs),
(953,1030,o),
(814,874,o),
(639,874,cs),
(577,874,l),
(547,721,l),
(584,721,ls),
(628,721,o),
(908,721,o),
(908,464,cs),
(908,291,o),
(780,139,o),
(592,139,cs),
(526,139,o),
(440,158,o),
(389,178,c),
(358,23,l),
(444,-6,o),
(520,-15,o),
(581,-15,cs)
);
}
);
width = 1199;
}
);
metricLeft = h;
metricRight = B;
},
{
color = 6;
glyphname = t;
kernLeft = LAT_T_LC;
kernRight = LAT_T_LC;
lastChange = "2023-11-22 11:34:34 +0000";
layers = (
{
anchors = (
{
name = bottom;
pos = (330,0);
},
{
name = cedilla;
pos = (350,0);
},
{
name = center;
pos = (281,524);
},
{
name = top;
pos = (457,1413);
},
{
name = topright;
pos = (550,1580);
}
);
guides = (
{
angle = 112.5;
pos = (245,10);
}
);
layerId = "AB099EFE-E788-4EFC-8633-CF147CB782A6";
shapes = (
{
closed = 1;
nodes = (
(418,-10,o),
(461,4,o),
(485,24,c),
(465,76,l),
(443,60,o),
(408,46,o),
(380,46,cs),
(266,46,o),
(230,134,o),
(257,270,cs),
(484,1414,l),
(423,1414,l),
(200,292,ls),
(163,106,o),
(216,-10,o),
(380,-10,cs)
);
},
{
closed = 1;
nodes = (
(663,992,l),
(674,1048,l),
(202,1048,l),
(191,992,l)
);
}
);
width = 682;
},
{
anchors = (
{
name = bottom;
pos = (420,0);
},
{
name = cedilla;
pos = (442,0);
},
{
name = center;
pos = (385,541);
},
{
name = top;
pos = (549,1380);
},
{
name = topright;
pos = (784,1733);
}
);
guides = (
{
angle = 112.5;
pos = (379,46);
}
);
layerId = "2D8F7115-C311-411E-929D-56333CF7FFB2";
shapes = (
{
closed = 1;
nodes = (
(616,-16,o),
(730,12,o),
(780,44,c),
(666,322,l),
(656,314,o),
(622,296,o),
(584,296,cs),
(518,296,o),
(520,354,o),
(528,396,cs),
(722,1380,l),
(370,1380,l),
(168,368,ls),
(130,176,o),
(216,-16,o),
(508,-16,cs)
);
},
{
closed = 1;
nodes = (
(828,780,l),
(888,1080,l),
(142,1080,l),
(82,780,l)
);
}
);
width = 896;
},
{
anchors = (
{
name = bottom;
pos = (386,0);
},
{
name = cedilla;
pos = (409,0);
},
{
name = center;
pos = (333,535);
},
{
name = top;
pos = (503,1401);
},
{
name = topright;
pos = (677,1630);
}
);
layerId = "8CC1EFAB-F3CB-44D1-8974-978FC52DD9AB";
shapes = (
{
closed = 1;
nodes = (
(505,-12,o),
(565,4,o),
(613,32,c),
(553,178,l),
(529,164,o),
(491,148,o),
(457,148,cs),
(385,148,o),
(351,202,o),
(372,306,cs),
(588,1402,l),
(413,1402,l),
(195,298,ls),
(159,114,o),
(245,-12,o),
(437,-12,cs)
);
},
{
closed = 1;
nodes = (
(735,904,l),
(766,1060,l),
(181,1060,l),
(150,904,l)
);
}
);
width = 776;
},
{
anchors = (
{
name = bottom;
pos = (366,0);
},
{
name = cedilla;
pos = (388,0);
},
{
name = center;
pos = (314,531);
},
{
name = top;
pos = (487,1405);
},
{
name = topright;
pos = (632,1612);
}
);
associatedMasterId = "AB099EFE-E788-4EFC-8633-CF147CB782A6";
attr = {
coordinates = (
68
);
};
layerId = "70155F5E-2F91-4369-BE5E-440FF05951E8";
name = "{68}";
shapes = (
{
closed = 1;
nodes = (
(474,-11,o),
(528,4,o),
(567,29,c),
(522,142,l),
(498,127,o),
(461,112,o),
(430,112,cs),
(343,112,o),
(308,178,o),
(331,293,cs),
(551,1406,l),
(417,1406,l),
(197,296,ls),
(160,111,o),
(235,-11,o),
(417,-11,cs)
);
},
{
closed = 1;
nodes = (
(709,935,l),
(733,1056,l),
(189,1056,l),
(165,935,l)
);
}
);
width = 742;
},
{
anchors = (
{
name = bottom;
pos = (414,0);
},
{
name = cedilla;
pos = (438,0);
},
{
name = center;
pos = (369,539);
},
{
name = top;
pos = (532,1391);
},
{
name = topright;
pos = (750,1683);
}
);
associatedMasterId = "8CC1EFAB-F3CB-44D1-8974-978FC52DD9AB";
attr = {
coordinates = (
140
);
};
layerId = "1E431DE9-883E-48FA-AF3F-2DA93F85B1D1";
name = "22. Nov 23 at 12:22";
shapes = (
{
closed = 1;
nodes = (
(571,-16,o),
(662,10,o),
(715,35,c),
(623,258,l),
(606,246,o),
(567,227,o),
(530,227,cs),
(475,227,o),
(450,270,o),
(467,358,cs),
(670,1391,l),
(395,1391,l),
(184,328,ls),
(147,141,o),
(240,-16,o),
(492,-16,cs)
);
},
{
closed = 1;
nodes = (
(805,851,l),
(850,1071,l),
(162,1071,l),
(115,851,l)
);
}
);
width = 855;
}
);
unicode = 116;
},
{
color = 6;
glyphname = t.ss01;
kernLeft = LAT_T_LC;
kernRight = LAT_TSS04_LC;
lastChange = "2023-11-22 11:34:34 +0000";
layers = (
{
anchors = (
{
name = bottom;
pos = (227,0);
},
{
name = cedilla;
pos = (215,0);
},
{
name = center;
pos = (331,524);
},
{
name = top;
pos = (508,1414);
},
{
name = topright;
pos = (600,1540);
}
);
layerId = "AB099EFE-E788-4EFC-8633-CF147CB782A6";
shapes = (
{
closed = 1;
nodes = (
(258,0,l),
(539,1414,l),
(478,1414,l),
(197,0,l)
);
},
{
closed = 1;
nodes = (
(681,992,l),
(692,1048,l),
(178,1048,l),
(167,992,l)
);
}
);
width = 662;
},
{
anchors = (
{
name = bottom;
pos = (311,0);
},
{
name = cedilla;
pos = (393,0);
},
{
name = center;
pos = (420,541);
},
{
name = top;
pos = (590,1380);
},
{
name = topright;
pos = (805,1729);
}
);
guides = (
{
angle = 100;
pos = (307,-8);
}
);
layerId = "2D8F7115-C311-411E-929D-56333CF7FFB2";
shapes = (
{
closed = 1;
nodes = (
(493,0,l),
(768,1380,l),
(413,1380,l),
(138,0,l)
);
},
{
closed = 1;
nodes = (
(860,780,l),
(920,1080,l),
(142,1080,l),
(82,780,l)
);
}
);
width = 844;
},
{
anchors = (
{
name = bottom;
pos = (252,0);
},
{
name = cedilla;
pos = (276,0);
},
{
name = center;
pos = (358,530);
},
{
name = top;
pos = (532,1401);
},
{
name = topright;
pos = (672,1612);
}
);
layerId = "8CC1EFAB-F3CB-44D1-8974-978FC52DD9AB";
shapes = (
{
closed = 1;
nodes = (
(341,0,l),
(621,1402,l),
(446,1402,l),
(166,0,l)
);
},
{
closed = 1;
nodes = (
(741,904,l),
(772,1060,l),
(160,1060,l),
(129,904,l)
);
}
);
width = 722;
},
{
anchors = (
{
name = bottom;
pos = (243,0);
},
{
name = cedilla;
pos = (254,0);
},
{
name = center;
pos = (348,528);
},
{
name = top;
pos = (523,1406);
},
{
name = topright;
pos = (646,1586);
}
);
associatedMasterId = "AB099EFE-E788-4EFC-8633-CF147CB782A6";
attr = {
coordinates = (
68
);
};
layerId = "B94FD6D6-19EB-466C-B7CD-949E1150A6B0";
name = "{68}";
shapes = (
{
closed = 1;
nodes = (
(311,0,l),
(592,1406,l),
(457,1406,l),
(177,0,l)
);
},
{
closed = 1;
nodes = (
(720,935,l),
(743,1056,l),
(166,1056,l),
(143,935,l)
);
}
);
width = 701;
},
{
anchors = (
{
name = bottom;
pos = (287,0);
},
{
name = cedilla;
pos = (344,0);
},
{
name = center;
pos = (393,537);
},
{
name = top;
pos = (565,1389);
},
{
name = topright;
pos = (748,1677);
}
);
associatedMasterId = "8CC1EFAB-F3CB-44D1-8974-978FC52DD9AB";
attr = {
coordinates = (
140
);
};
layerId = "9639FD83-526C-4897-A902-45680B4E9C18";
name = "22. Nov 23 at 12:22";
shapes = (
{
closed = 1;
nodes = (
(428,0,l),
(705,1389,l),
(430,1389,l),
(152,0,l)
);
},
{
closed = 1;
nodes = (
(811,851,l),
(856,1071,l),
(150,1071,l),
(104,851,l)
);
}
);
width = 791;
}
);
},
{
color = 6;
glyphname = u;
kernLeft = LAT_U_LC;
kernRight = LAT_A_LC;
lastChange = "2023-11-22 11:34:34 +0000";
layers = (
{
anchors = (
{
name = bottom;
pos = (472,0);
},
{
name = horn;
pos = (966,1048);
},
{
name = ogonek;
pos = (851,-16);
},
{
name = top;
pos = (642,1048);
}
);
guides = (
{
angle = 67.5;
pos = (413,-8);
}
);
layerId = "AB099EFE-E788-4EFC-8633-CF147CB782A6";
shapes = (
{
closed = 1;
nodes = (
(588,-16,o),
(726,96,o),
(800,234,c),
(748,184,l),
(794,184,l),
(778,224,l),
(752,98,o),
(776,28,o),
(852,-16,c),
(874,40,l),
(808,72,o),
(821,152,o),
(836,228,cs),
(999,1048,l),
(938,1048,l),
(807,390,ls),
(770,204,o),
(606,40,o),
(418,40,cs),
(250,40,o),
(154,168,o),
(199,394,cs),
(329,1048,l),
(268,1048,l),
(137,390,ls),
(87,140,o),
(210,-16,o),
(416,-16,cs)
);
}
);
width = 1068;
},
{
anchors = (
{
name = bottom;
pos = (567,0);
},
{
name = horn;
pos = (1049,1080);
},
{
name = ogonek;
pos = (997,-16);
},
{
name = top;
pos = (743,1080);
}
);
guides = (
{
angle = 67.5;
pos = (377,-6);
}
);
layerId = "2D8F7115-C311-411E-929D-56333CF7FFB2";
shapes = (
{
closed = 1;
nodes = (
(602,-16,o),
(736,66,o),
(816,206,c),
(666,116,l),
(820,116,l),
(744,218,l),
(724,98,o),
(816,24,o),
(998,-16,c),
(1118,272,l),
(1080,282,o),
(1050,308,o),
(1064,380,cs),
(1204,1080,l),
(846,1080,l),
(722,468,ls),
(701,365,o),
(651,284,o),
(558,284,cs),
(484,284,o),
(434,335,o),
(454,434,cs),
(582,1080,l),
(224,1080,l),
(90,414,ls),
(34,135,o),
(231,-16,o),
(444,-16,cs)
);
}
);
width = 1230;
},
{
anchors = (
{
name = bottom;
pos = (439,0);
},
{
name = horn;
pos = (972,1060);
},
{
name = ogonek;
pos = (875,-16);
},
{
name = top;
pos = (641,1060);
}
);
layerId = "8CC1EFAB-F3CB-44D1-8974-978FC52DD9AB";
shapes = (
{
closed = 1;
nodes = (
(597,-16,o),
(707,81,o),
(779,198,c),
(679,132,l),
(806,132,l),
(737,182,l),
(721,104,o),
(763,19,o),
(876,-16,c),
(938,140,l),
(874,167,o),
(888,227,o),
(901,296,cs),
(1055,1060,l),
(880,1060,l),
(750,418,ls),
(720,270,o),
(611,140,o),
(458,140,cs),
(330,140,o),
(240,233,o),
(277,416,cs),
(406,1060,l),
(231,1060,l),
(101,412,ls),
(47,144,o),
(196,-16,o),
(419,-16,cs)
);
}
);
width = 1108;
}
);
unicode = 117;
},
{
color = 6;
glyphname = v;
kernLeft = LAT_V_LC;
kernRight = LAT_V_LC;
lastChange = "2023-11-22 11:34:34 +0000";
layers = (
{
anchors = (
{
name = bottom;
pos = (384,0);
},
{
name = top;
pos = (585,1048);
}
);
layerId = "AB099EFE-E788-4EFC-8633-CF147CB782A6";
shapes = (
{
closed = 1;
nodes = (
(424,0,l),
(998,1048,l),
(929,1048,l),
(406,83,l),
(398,83,l),
(231,1048,l),
(170,1048,l),
(356,0,l)
);
}
);
width = 960;
},
{
anchors = (
{
name = bottom;
pos = (457,0);
},
{
name = top;
pos = (674,1080);
}
);
layerId = "2D8F7115-C311-411E-929D-56333CF7FFB2";
shapes = (
{
closed = 1;
nodes = (
(639,0,l),
(1223,1080,l),
(831,1080,l),
(529,370,l),
(521,370,l),
(489,1080,l),
(131,1080,l),
(303,0,l)
);
}
);
width = 1140;
},
{
anchors = (
{
name = bottom;
pos = (432,0);
},
{
name = top;
pos = (635,1060);
}
);
layerId = "8CC1EFAB-F3CB-44D1-8974-978FC52DD9AB";
shapes = (
{
closed = 1;
nodes = (
(512,0,l),
(1113,1060,l),
(915,1060,l),
(468,220,l),
(460,220,l),
(329,1060,l),
(153,1060,l),
(350,0,l)
);
}
);
width = 1056;
}
);
unicode = 118;
},
{
color = 6;
glyphname = w;
kernLeft = LAT_V_LC;
kernRight = LAT_V_LC;
lastChange = "2023-11-22 11:34:34 +0000";
layers = (
{
anchors = (
{
name = bottom;
pos = (642,0);
},
{
name = top;
pos = (851,1048);
}
);
layerId = "AB099EFE-E788-4EFC-8633-CF147CB782A6";
shapes = (
{
closed = 1;
nodes = (
(380,0,l),
(796,858,l),
(804,858,l),
(950,0,l),
(1018,0,l),
(1522,1048,l),
(1454,1048,l),
(994,72,l),
(990,72,l),
(840,988,l),
(798,988,l),
(360,76,l),
(356,76,l),
(244,1048,l),
(180,1048,l),
(312,0,l)
);
}
);
userData = {
RMXScaler = {
adjustSpace = 8;
height = 72;
weight = 8;
width = 80;
};
};
width = 1494;
},
{
anchors = (
{
name = bottom;
pos = (723,0);
},
{
name = top;
pos = (940,1080);
}
);
layerId = "2D8F7115-C311-411E-929D-56333CF7FFB2";
shapes = (
{
closed = 1;
nodes = (
(543,0,l),
(811,452,l),
(815,452,l),
(931,0,l),
(1213,0,l),
(1735,1080,l),
(1369,1080,l),
(1105,422,l),
(1099,422,l),
(969,1048,l),
(845,1048,l),
(507,422,l),
(499,422,l),
(479,1080,l),
(147,1080,l),
(259,0,l)
);
}
);
userData = {
RMXScaler = {
adjustSpace = 20;
height = 73;
weight = -120;
width = 79;
};
};
width = 1668;
},
{
anchors = (
{
name = bottom;
pos = (670,0);
},
{
name = top;
pos = (879,1060);
}
);
layerId = "8CC1EFAB-F3CB-44D1-8974-978FC52DD9AB";
shapes = (
{
closed = 1;
nodes = (
(439,0,l),
(803,686,l),
(811,686,l),
(961,0,l),
(1117,0,l),
(1609,1060,l),
(1427,1060,l),
(1059,226,l),
(1053,226,l),
(883,1012,l),
(809,1012,l),
(409,228,l),
(403,228,l),
(325,1060,l),
(157,1060,l),
(283,0,l)
);
}
);
width = 1556;
}
);
unicode = 119;
userData = {
RMXScaler = {
source = W;
};
};
},
{
color = 6;
glyphname = w.ss03;
kernLeft = LAT_V_LC;
kernRight = LAT_V_LC;
lastChange = "2023-11-22 11:34:34 +0000";
layers = (
{
anchors = (
{
name = bottom;
pos = (652,0);
},
{
name = top;
pos = (861,1048);
}
);
background = {
shapes = (
{
closed = 1;
nodes = (
(469,0,l),
(670,688,l),
(764,995,l),
(772,995,l),
(862,688,l),
(1063,0,l),
(1153,0,l),
(1477,1048,l),
(1411,1048,l),
(1198,344,l),
(1112,61,l),
(1104,61,l),
(1022,344,l),
(809,1048,l),
(723,1048,l),
(510,344,l),
(432,61,l),
(420,61,l),
(334,344,l),
(121,1048,l),
(55,1048,l),
(383,0,l)
);
}
);
};
layerId = "AB099EFE-E788-4EFC-8633-CF147CB782A6";
shapes = (
{
closed = 1;
nodes = (
(356,0,l),
(568,407,l),
(829,921,l),
(842,921,l),
(897,407,l),
(944,0,l),
(1016,0,l),
(1548,1048,l),
(1485,1048,l),
(1170,424,l),
(998,71,l),
(994,71,l),
(949,424,l),
(882,1048,l),
(838,1048,l),
(515,424,l),
(339,71,l),
(335,71,l),
(293,424,l),
(233,1048,l),
(170,1048,l),
(285,0,l)
);
}
);
width = 1510;
},
{
anchors = (
{
name = bottom;
pos = (706,0);
},
{
name = top;
pos = (923,1080);
}
);
background = {
anchors = (
{
name = bottom;
pos = (709,0);
},
{
name = top;
pos = (926,1080);
}
);
shapes = (
{
closed = 1;
nodes = (
(537,0,l),
(707,307,l),
(807,520,l),
(811,520,l),
(842,307,l),
(889,0,l),
(1212,0,l),
(1737,1080,l),
(1352,1080,l),
(1182,627,l),
(1092,365,l),
(1083,365,l),
(1055,635,l),
(1012,1080,l),
(832,1080,l),
(610,635,l),
(481,365,l),
(473,365,l),
(481,627,l),
(500,1080,l),
(123,1080,l),
(213,0,l)
);
}
);
};
layerId = "2D8F7115-C311-411E-929D-56333CF7FFB2";
shapes = (
{
closed = 1;
nodes = (
(529,0,l),
(654,225,l),
(796,477,l),
(801,477,l),
(860,225,l),
(911,0,l),
(1203,0,l),
(1719,1080,l),
(1355,1080,l),
(1181,645,l),
(1091,408,l),
(1084,408,l),
(1053,645,l),
(993,1080,l),
(828,1080,l),
(607,645,l),
(490,408,l),
(481,408,l),
(475,645,l),
(463,1080,l),
(131,1080,l),
(238,0,l)
);
}
);
width = 1636;
},
{
anchors = (
{
name = bottom;
pos = (681,0);
},
{
name = top;
pos = (896,1060);
}
);
layerId = "8CC1EFAB-F3CB-44D1-8974-978FC52DD9AB";
shapes = (
{
closed = 1;
nodes = (
(429,0,l),
(628,369,l),
(832,762,l),
(841,762,l),
(890,369,l),
(941,0,l),
(1109,0,l),
(1641,1060,l),
(1453,1060,l),
(1205,535,l),
(1062,217,l),
(1058,217,l),
(1017,537,l),
(943,1060,l),
(845,1060,l),
(560,537,l),
(400,217,l),
(396,217,l),
(374,535,l),
(333,1060,l),
(153,1060,l),
(261,0,l)
);
}
);
width = 1584;
}
);
metricLeft = v;
metricRight = v;
},
{
color = 6;
glyphname = x;
kernLeft = LAT_X_LC;
kernRight = LAT_X_LC;
lastChange = "2023-11-22 11:34:34 +0000";
layers = (
{
anchors = (
{
name = bottom;
pos = (360,0);
},
{
name = top;
pos = (569,1048);
}
);
layerId = "AB099EFE-E788-4EFC-8633-CF147CB782A6";
shapes = (
{
closed = 1;
nodes = (
(776,0,l),
(514,516,l),
(514,524,l),
(482,568,l),
(472,568,l),
(238,1048,l),
(170,1048,l),
(434,530,l),
(434,522,l),
(464,476,l),
(472,476,l),
(708,0,l)
);
},
{
closed = 1;
nodes = (
(44,0,l),
(464,476,l),
(472,476,l),
(514,516,l),
(514,524,l),
(984,1048,l),
(906,1048,l),
(482,568,l),
(472,568,l),
(434,530,l),
(434,522,l),
(-40,0,l)
);
}
);
userData = {
RMXScaler = {
height = 71;
weight = 16;
width = 73.5;
};
};
width = 944;
},
{
anchors = (
{
name = bottom;
pos = (496,0);
},
{
name = top;
pos = (713,1080);
}
);
background = {
shapes = (
{
closed = 1;
nodes = (
(332,0,l),
(575,322,l),
(586,322,l),
(823,528,l),
(827,532,l),
(1260,1080,l),
(874,1080,l),
(643,741,l),
(635,741,l),
(395,553,l),
(391,549,l),
(-59,0,l)
);
},
{
closed = 1;
nodes = (
(1055,0,l),
(823,524,l),
(819,528,l),
(643,741,l),
(635,741,l),
(485,1080,l),
(150,1080,l),
(395,557,l),
(399,553,l),
(575,322,l),
(582,322,l),
(711,0,l)
);
}
);
};
layerId = "2D8F7115-C311-411E-929D-56333CF7FFB2";
shapes = (
{
closed = 1;
nodes = (
(1048,0,l),
(810,526,l),
(810,530,l),
(632,744,l),
(624,744,l),
(480,1080,l),
(142,1080,l),
(388,558,l),
(388,554,l),
(568,322,l),
(576,322,l),
(702,0,l)
);
},
{
closed = 1;
nodes = (
(324,0,l),
(568,322,l),
(576,322,l),
(810,526,l),
(810,530,l),
(1248,1080,l),
(862,1080,l),
(632,744,l),
(624,744,l),
(388,556,l),
(388,552,l),
(-68,0,l)
);
}
);
userData = {
RMXScaler = {
height = 73.5;
weight = -110;
width = 73;
};
};
width = 1188;
},
{
anchors = (
{
name = bottom;
pos = (410,0);
},
{
name = top;
pos = (625,1060);
}
);
layerId = "8CC1EFAB-F3CB-44D1-8974-978FC52DD9AB";
shapes = (
{
closed = 1;
nodes = (
(883,0,l),
(630,518,l),
(630,526,l),
(536,650,l),
(526,650,l),
(335,1060,l),
(153,1060,l),
(406,552,l),
(406,544,l),
(498,410,l),
(506,410,l),
(697,0,l)
);
},
{
closed = 1;
nodes = (
(159,0,l),
(498,410,l),
(506,410,l),
(630,518,l),
(630,526,l),
(1083,1060,l),
(874,1060,l),
(536,650,l),
(526,650,l),
(406,552,l),
(406,544,l),
(-57,0,l)
);
}
);
width = 1036;
}
);
unicode = 120;
userData = {
RMXScaler = {
source = X;
};
};
},
